<svg width="48" height="48" version="1.1" xmlns="http://www.w3.org/2000/svg" xmlns:xlink="http://www.w3.org/1999/xlink">
 <defs>
  <clipPath id="clipPath3126">
   <path d="m30 94 2 2 3 10 1-12 3 15v-19l2 5 3 14v-19l2 2 3 17 3-23 6.6157 25.92 0.38432-15.92 2-6 2 25 6-25 2 21 5-22 5 24 1-18 3-6 1 23 5-22 3 10 1-9 3 6v-19l-3 8-1-17-2 13-2-4-1-14-5 19-1-4-3-30-3 26-2 8-4-27-4 23-2 6-1-41.305-6 46.305-6-42-3 36-2-4-2-24-1 24-3 7-2-24-2 19-3-5v14l-4-15z" fill="none" stroke="#000" stroke-width="1px"/>
  </clipPath>
  <radialGradient id="radialGradient841" cx="22.709" cy="7.7743" r="16.003" gradientTransform="matrix(1 0 0 1.2498 0 -5.9944)" gradientUnits="userSpaceOnUse">
   <stop stop-color="#1a7262" offset="0"/>
   <stop stop-color="#135247" offset="1"/>
  </radialGradient>
 </defs>
 <g>
  <path d="m10 4c-1.108 0-2 0.892-2 2v36c0 1.108 0.892 2 2 2h28c1.108 0 2-0.892 2-2v-26.791c0-1.4861 0.12432-1.8536-0.76409-2.742l-7.892-7.6403c-0.37518-0.37518-1.1798-0.82706-1.7892-0.82706z" fill="url(#radialGradient841)"/>
  <path d="m10 3.1504c-1.5642 0-2.8496 1.2854-2.8496 2.8496v36c0 1.5642 1.2854 2.8496 2.8496 2.8496h28c1.5642 0 2.8496-1.2854 2.8496-2.8496v-26.791c0-0.71936 0.0492-1.2037-0.06641-1.7656-0.11561-0.56189-0.44565-1.0765-0.94531-1.5762l-0.0059-0.0059-7.8867-7.6348c-0.56348-0.56348-1.361-1.0761-2.3906-1.0761zm0 1.6992h19.555c0.18929 0 1.0007 0.3913 1.1875 0.57812l0.0059 0.00586 7.8867 7.6348c0.38875 0.38875 0.44004 0.50131 0.48438 0.7168 0.04434 0.21549 0.03125 0.65707 0.03125 1.4238v26.791c0 0.6518-0.49859 1.1504-1.1504 1.1504h-28c-0.6518 0-1.1504-0.49859-1.1504-1.1504v-36c0-0.6518 0.49859-1.1504 1.1504-1.1504z" color="#000000" color-rendering="auto" dominant-baseline="auto" fill="#00e4bb" image-rendering="auto" shape-rendering="auto" solid-color="#000000" style="font-feature-settings:normal;font-variant-alternates:normal;font-variant-caps:normal;font-variant-ligatures:normal;font-variant-numeric:normal;font-variant-position:normal;isolation:auto;mix-blend-mode:normal;shape-padding:0;text-decoration-color:#000000;text-decoration-line:none;text-decoration-style:solid;text-indent:0;text-orientation:mixed;text-transform:none;white-space:normal"/>
  <g fill="#fff" stroke-width=".19217" aria-label="AUP">
   <path d="m20.53 37.689h-1.5051l-0.29276 1.1185h-1.1673l1.7078-5.4649h1.0097l1.719 5.4649h-1.1786zm-1.2649-0.91958h1.0209l-0.51046-1.948z"/>
   <path d="m26.01 33.342v3.7834q-0.0075 0.85202-0.46917 1.3062-0.46166 0.45041-1.3249 0.45041-0.87829 0-1.3437-0.45791-0.46167-0.45791-0.46167-1.3249v-3.7571h1.111v3.7609q0 0.46542 0.15014 0.66435 0.15014 0.19893 0.54424 0.19893t0.54049-0.19518q0.14638-0.19893 0.15014-0.64934v-3.7797z"/>
   <path d="m27.958 36.885v1.9217h-1.1035v-5.4649h1.8617q0.81073 0 1.2912 0.50295 0.48419 0.50295 0.48419 1.3062 0 0.80322-0.47668 1.2686t-1.3212 0.46542zm0-0.91958h0.75818q0.31528 0 0.48794-0.20644 0.17266-0.20644 0.17266-0.60054 0-0.40912-0.17641-0.64933-0.17641-0.24397-0.47293-0.24772h-0.76944z"/>
  </g>
  <g transform="matrix(.17093 0 0 .17093 -30.823 -5.7822)" fill="#00e4bb">
   <g transform="translate(255.97 85.05)" clip-path="url(#clipPath3126)" fill-rule="evenodd">
    <path d="m28 116v-73h72v73z"/>
    <path d="m29 80 8 5 3-9 5 6 6-10 2 12 2-8 3 6 1-6s3 8 3 7 4-15 4-15l4 13 6-12 3 13 5-9 3 9 5-5 6 6v8l-4 3-6-2-4-2-1 10-2-10-4 9-6-9-2 9-4-6-5 13-3-15-6 3-4-6-2 10-4-5-4 5-2-3-6 1z"/>
   </g>
   <path d="m319.97 91.925c-13.263 0-25.359 4.1408-34.281 11.094-8.9226 6.953-14.719 16.901-14.719 27.969v4c-8.8588 4.4885-15 16.262-15 30.062 0 17.664 10.049 32 23 32v-66.062c0-8.2881 4.2898-15.916 11.656-21.656s17.768-9.4062 29.344-9.4062c11.575 0 21.977 3.666 29.344 9.4062 7.3664 5.7403 11.656 13.368 11.656 21.656v66.062c12.951 0 23-14.336 23-32 0-13.8-6.1412-25.574-15-30.062v-4c0-11.067-5.7962-21.016-14.719-27.969-8.9226-6.953-21.018-11.094-34.281-11.094zm-38 42.125v63c2 0 4-1 5-3v-58c-1-1-3-2-5-2zm76 0c-2 0-4 1-5 2v58c1 2 3 3 5 3z"/>
  </g>
 </g>
</svg>
