<svg width="48" height="48" version="1.1" xmlns="http://www.w3.org/2000/svg">
 <defs>
  <radialGradient id="radialGradient1426" cx="23.212" cy="8.1636" r="16.003" gradientTransform="matrix(1.0985 0 0 1.4454 -2.286 -7.8531)" gradientUnits="userSpaceOnUse">
   <stop stop-color="#581e84" offset="0"/>
   <stop stop-color="#371352" offset="1"/>
  </radialGradient>
 </defs>
 <path d="m10 4c-1.108 0-2 0.892-2 2v36c0 1.108 0.892 2 2 2h28c1.108 0 2-0.892 2-2v-26.791c0-1.4861 0.12432-1.8536-0.76409-2.742l-7.892-7.6403c-0.37518-0.37518-1.1798-0.82706-1.7892-0.82706z" fill="url(#radialGradient1426)"/>
 <path d="m22.99 8.5728v2e-3a1.498 1.4992 0 0 0-0.85156 2.6992l1.7012 1.3086h-8.2773a1.4988 1.5 0 0 0 0 3h3.7539l-6.1328 4.459a1.498 1.4992 0 1 0 1.7598 2.4238l3.1348-2.2773a7.9886 7.9946 0 0 0-0.01953 0.39062 7.9886 7.9946 0 0 0 7.9883 7.9941 7.9886 7.9946 0 0 0 7.9902-7.9941 7.9886 7.9946 0 0 0-3.4746-6.5957 1.498 1.4992 0 0 0-0.10742-0.08984l-6.4902-4.9961a1.498 1.4992 0 0 0-0.97461-0.32422zm3.0781 7a5.0001 5.0001 0 0 1 5 5 5.0001 5.0001 0 0 1-5 5 5.0001 5.0001 0 0 1-5.002-5 5.0001 5.0001 0 0 1 5.002-5zm-0.05078 2a3 3 0 0 0-3 3 3 3 0 0 0 3 3 3 3 0 0 0 3-3 3 3 0 0 0-3-3z" fill="#d8a1ff"/>
 <path d="m10 3.1504c-1.5642 0-2.8496 1.2854-2.8496 2.8496v36c0 1.5642 1.2854 2.8496 2.8496 2.8496h28c1.5642 0 2.8496-1.2854 2.8496-2.8496v-26.791c0-0.71936 0.0492-1.2037-0.06641-1.7656-0.11561-0.56189-0.44565-1.0765-0.94531-1.5762l-0.0059-0.0059-7.8867-7.6348c-0.56348-0.56348-1.361-1.0761-2.3906-1.0761zm0 1.6992h19.555c0.18929 0 1.0007 0.3913 1.1875 0.57812l0.0059 0.00586 7.8867 7.6348c0.38875 0.38875 0.44004 0.50131 0.48438 0.7168s0.03125 0.65707 0.03125 1.4238v26.791c0 0.6518-0.49859 1.1504-1.1504 1.1504h-28c-0.6518 0-1.1504-0.49859-1.1504-1.1504v-36c0-0.6518 0.49859-1.1504 1.1504-1.1504z" color="#000000" color-rendering="auto" dominant-baseline="auto" fill="#d8a1ff" image-rendering="auto" shape-rendering="auto" solid-color="#000000" style="font-feature-settings:normal;font-variant-alternates:normal;font-variant-caps:normal;font-variant-ligatures:normal;font-variant-numeric:normal;font-variant-position:normal;isolation:auto;mix-blend-mode:normal;shape-padding:0;text-decoration-color:#000000;text-decoration-line:none;text-decoration-style:solid;text-indent:0;text-orientation:mixed;text-transform:none;white-space:normal"/>
 <g fill="#fff" stroke-width=".19182" aria-label="BLEND">
  <path d="m14.571 38.797v-5.455h1.686q0.85421 0 1.2963 0.38215 0.44584 0.3784 0.44584 1.1127 0 0.41587-0.18358 0.71559t-0.50204 0.43835q0.36716 0.1049 0.56573 0.42336 0.19857 0.31471 0.19857 0.77928 0 0.79427-0.43835 1.1989-0.4346 0.40463-1.2626 0.40463zm1.1015-2.3716v1.4574h0.70435q0.29598 0 0.44959-0.18358t0.15361-0.52077q0-0.73432-0.53201-0.75306zm0-0.80176h0.57322q0.64815 0 0.64815-0.67063 0-0.37091-0.14986-0.53201t-0.48705-0.1611h-0.58446z"/>
  <path d="m19.974 37.883h1.9332v0.91416h-3.0347v-5.455h1.1015z"/>
  <path d="m25.361 36.437h-1.7159v1.4462h2.0306v0.91416h-3.1321v-5.455h3.1246v0.91791h-2.0231v1.2888h1.7159z"/>
  <path d="m30.119 38.797h-1.1015l-1.611-3.578v3.578h-1.1015v-5.455h1.1015l1.6148 3.5817v-3.5817h1.0977z"/>
  <path d="m31.011 38.797v-5.455h1.4424q0.95537 0 1.5211 0.60694 0.56948 0.60694 0.58072 1.6635v0.88419q0 1.0753-0.56948 1.6897-0.56573 0.61069-1.5623 0.61069zm1.1015-4.5371v3.6229h0.3297q0.55074 0 0.77554-0.28848 0.22479-0.29223 0.23603-1.0041v-0.94788q0-0.7643-0.21355-1.064-0.21355-0.30347-0.72683-0.31846z"/>
 </g>
</svg>
