<svg width="48" height="48" version="1.1" xmlns="http://www.w3.org/2000/svg">
 <defs>
  <radialGradient id="radialGradient2026" cx="22.956" cy="8.9136" r="16.003" gradientTransform="matrix(1.6291 2.4239e-8 -2.6065e-8 1.7518 -14.717 -11.344)" gradientUnits="userSpaceOnUse">
   <stop stop-color="#157b7e" offset="0"/>
   <stop stop-color="#0e5052" offset="1"/>
  </radialGradient>
 </defs>
 <path d="m10 4c-1.108 0-2 0.892-2 2v36c0 1.108 0.892 2 2 2h28c1.108 0 2-0.892 2-2v-26.791c0-1.4861 0.12432-1.8536-0.76409-2.742l-7.892-7.6403c-0.37518-0.37518-1.1798-0.82706-1.7892-0.82706z" fill="url(#radialGradient2026)"/>
 <path d="m10 3.1504c-1.5642 0-2.8496 1.2854-2.8496 2.8496v36c0 1.5642 1.2854 2.8496 2.8496 2.8496h28c1.5642 0 2.8496-1.2854 2.8496-2.8496v-26.791c0-0.71936 0.0492-1.2037-0.06641-1.7656-0.11561-0.56189-0.44565-1.0765-0.94531-1.5762l-0.0059-0.0059-7.8867-7.6348c-0.56348-0.56348-1.361-1.0761-2.3906-1.0761zm0 1.6992h19.555c0.18929 0 1.0007 0.3913 1.1875 0.57812l0.0059 0.00586 7.8867 7.6348c0.38875 0.38875 0.44004 0.50131 0.48438 0.7168s0.03125 0.65707 0.03125 1.4238v26.791c0 0.6518-0.49859 1.1504-1.1504 1.1504h-28c-0.6518 0-1.1504-0.49859-1.1504-1.1504v-36c0-0.6518 0.49859-1.1504 1.1504-1.1504z" color="#000000" color-rendering="auto" dominant-baseline="auto" fill="#25dadf" image-rendering="auto" shape-rendering="auto" solid-color="#000000" style="font-feature-settings:normal;font-variant-alternates:normal;font-variant-caps:normal;font-variant-ligatures:normal;font-variant-numeric:normal;font-variant-position:normal;isolation:auto;mix-blend-mode:normal;shape-padding:0;text-decoration-color:#000000;text-decoration-line:none;text-decoration-style:solid;text-indent:0;text-orientation:mixed;text-transform:none;white-space:normal"/>
 <g fill="#fff" stroke-width=".14883" aria-label="PROJECT">
  <path d="m13.995 36.774v1.4883h-0.85459v-4.2322h1.4418q0.62786 0 0.99993 0.38951 0.37497 0.38951 0.37497 1.0116 0 0.62205-0.36916 0.98249t-1.0232 0.36044zm0-0.71216h0.58717q0.24417 0 0.37788-0.15987t0.13371-0.46508q0-0.31684-0.13662-0.50287-0.13662-0.18894-0.36625-0.19185h-0.59589z"/>
  <path d="m17.749 36.716h-0.42439v1.5464h-0.85459v-4.2322h1.3633q0.6424 0 0.99121 0.33428 0.35172 0.33137 0.35172 0.9447 0 0.84296-0.61333 1.1801l0.74122 1.7324v0.04069h-0.91854zm-0.42439-0.71216h0.48543q0.2558 0 0.38369-0.16859 0.1279-0.1715 0.1279-0.45636 0-0.63658-0.49706-0.63658h-0.49996z"/>
  <path d="m22.692 36.527q0 0.85168-0.40404 1.3226-0.40113 0.4709-1.1162 0.4709-0.71216 0-1.1191-0.46508-0.40695-0.46799-0.41276-1.308v-0.72378q0-0.87203 0.40404-1.3604 0.40404-0.49124 1.122-0.49124 0.70634 0 1.1133 0.48252 0.40695 0.47962 0.41276 1.3487zm-0.8575-0.70925q0-0.57263-0.16278-0.85168t-0.50578-0.27905q-0.34009 0-0.50287 0.27033-0.16278 0.26742-0.16859 0.8168v0.75285q0 0.55519 0.16569 0.81971 0.16569 0.26161 0.51159 0.26161 0.33428 0 0.49706-0.2558 0.16278-0.2587 0.16569-0.79936z"/>
  <path d="m24.641 34.03h0.85459v2.93q0 0.61623-0.343 0.9883t-0.88366 0.37207q-0.58135 0-0.904-0.3459t-0.32265-0.96214h0.8575q0 0.59879 0.36916 0.59879 0.37207 0 0.37207-0.69181z"/>
  <path d="m28.296 36.431h-1.3313v1.122h1.5755v0.70925h-2.4301v-4.2322h2.4242v0.71216h-1.5697v0.99993h1.3313z"/>
  <path d="m31.841 36.853q-0.03197 0.72378-0.40695 1.0959-0.37497 0.37207-1.0581 0.37207-0.71797 0-1.1017-0.4709-0.38079-0.4738-0.38079-1.3487v-0.71216q0-0.87203 0.39532-1.3429 0.39532-0.4738 1.0988-0.4738 0.69181 0 1.0493 0.3866 0.36044 0.3866 0.40985 1.1104h-0.8575q-0.01163-0.44764-0.13952-0.61623-0.12499-0.1715-0.46218-0.1715-0.343 0-0.48543 0.24126-0.14243 0.23835-0.15115 0.78773v0.79936q0 0.63077 0.13952 0.86622 0.14243 0.23545 0.48543 0.23545 0.33718 0 0.46508-0.16278 0.1279-0.16568 0.14534-0.59589z"/>
  <path d="m34.97 34.742h-1.0464v3.5201h-0.8575v-3.5201h-1.029v-0.71216h2.9329z"/>
 </g>
 <g transform="matrix(.060153 0 0 .060153 11.323 7.0822)" fill="#25dadf">
  <path d="m178.9 62.154c-33.434 67.388-86.646 185.45-107.58 231.33-8.0488 17.641-22.425 50.252-25.179 58.375s-0.67549 18.786 11.515 2.2254c152.22-206.78 122.96 6.3653 293.11 6.3653 21.378 0 17.456-16.314 7.4027-33.728s-133.37-264.56-133.37-264.56c-10.856-21.535-28.672-34.737-45.901-0.01156z" fill="#25dadf"/>
 </g>
</svg>
