<svg width="48" height="48" version="1.1" xmlns="http://www.w3.org/2000/svg">
 <defs>
  <radialGradient id="radialGradient2026" cx="22.956" cy="8.9136" r="16.003" gradientTransform="matrix(1.6291 2.4239e-8 -2.6065e-8 1.7518 -14.717 -11.344)" gradientUnits="userSpaceOnUse">
   <stop stop-color="#6a1d7e" offset="0"/>
   <stop stop-color="#451352" offset="1"/>
  </radialGradient>
 </defs>
 <path d="m10 4c-1.108 0-2 0.892-2 2v36c0 1.108 0.892 2 2 2h28c1.108 0 2-0.892 2-2v-26.791c0-1.4861 0.12432-1.8536-0.76409-2.742l-7.892-7.6403c-0.37518-0.37518-1.1798-0.82706-1.7892-0.82706z" fill="url(#radialGradient2026)"/>
 <path d="m10 3.1504c-1.5642 0-2.8496 1.2854-2.8496 2.8496v36c0 1.5642 1.2854 2.8496 2.8496 2.8496h28c1.5642 0 2.8496-1.2854 2.8496-2.8496v-26.791c0-0.71936 0.0492-1.2037-0.06641-1.7656-0.11561-0.56189-0.44565-1.0765-0.94531-1.5762l-0.0059-0.0059-7.8867-7.6348c-0.56348-0.56348-1.361-1.0761-2.3906-1.0761zm0 1.6992h19.555c0.18929 0 1.0007 0.3913 1.1875 0.57812l0.0059 0.00586 7.8867 7.6348c0.38875 0.38875 0.44004 0.50131 0.48438 0.7168s0.03125 0.65707 0.03125 1.4238v26.791c0 0.6518-0.49859 1.1504-1.1504 1.1504h-28c-0.6518 0-1.1504-0.49859-1.1504-1.1504v-36c0-0.6518 0.49859-1.1504 1.1504-1.1504z" color="#000000" color-rendering="auto" dominant-baseline="auto" fill="#e579ff" image-rendering="auto" shape-rendering="auto" solid-color="#000000" style="font-feature-settings:normal;font-variant-alternates:normal;font-variant-caps:normal;font-variant-ligatures:normal;font-variant-numeric:normal;font-variant-position:normal;isolation:auto;mix-blend-mode:normal;shape-padding:0;text-decoration-color:#000000;text-decoration-line:none;text-decoration-style:solid;text-indent:0;text-orientation:mixed;text-transform:none;white-space:normal"/>
 <g fill="#fff" stroke-width=".19169" aria-label="OVE">
  <path d="m21.478 36.689q0 1.097-0.52042 1.7035-0.51668 0.60654-1.4377 0.60654-0.91729 0-1.4415-0.59905-0.52417-0.60279-0.53165-1.6848v-0.93227q0-1.1232 0.52042-1.7522 0.52042-0.63274 1.4452-0.63274 0.9098 0 1.434 0.62151 0.52417 0.61777 0.53165 1.7372zm-1.1045-0.91355q0-0.73758-0.20967-1.097-0.20967-0.35943-0.65146-0.35943-0.43805 0-0.64772 0.3482-0.20967 0.34445-0.21715 1.0521v0.96971q0 0.71511 0.21341 1.0558 0.21341 0.33696 0.65895 0.33696 0.43056 0 0.64023-0.32948 0.20967-0.33322 0.21341-1.0296z"/>
  <path d="m23.967 37.426 0.91729-3.9537h1.228l-1.5725 5.4513h-1.1457l-1.5613-5.4513h1.2206z"/>
  <path d="m29.441 36.565h-1.7148v1.4452h2.0293v0.91355h-3.13v-5.4513h3.1225v0.91729h-2.0218v1.288h1.7148z"/>
 </g>
 <path d="m31.792 29.096c-1.8195-0.5935-2.2722-1.0374-2.2032-2.1604 0.1025-0.5073-0.03257-0.65568-0.34117-1.0309-0.2216-0.26945-0.34048-0.35014-0.28904-0.1962l0.08738 0.26149-0.27482-0.24871c-0.4106-0.37158-0.33182-0.12764 0.15402 0.47692l0.42884 0.53364c0.06764 0.70283 0.12174 1.4875-0.1441 2.0108-0.47269 0.91664-1.0087 0.13567-1.2066-1.7581l-0.08235-0.78794 0.22043-0.33642c0.12124-0.18503 0.22043-0.39823 0.22043-0.47378 0-0.18016-2.7092-2.9919-2.7976-2.9035-0.03735 0.03735 0.21726 0.37279 0.5658 0.74542 0.83211 0.8896 1.0425 1.432 1.1218 2.8913l0.06576 1.2106-0.13018-0.13452c-1.9263-1.9904-2.9185-3.8888-2.3945-4.5815 0.36317-0.48015 0.23348-0.77867-0.77235-1.7778-0.53812-0.53453-1.0209-0.97188-1.0728-0.97188-0.18807 0 0.15418 0.63808 0.5598 1.0437 0.39698 0.30624 0.41527 0.46872 0.41527 0.93678 0 1.2353-1.3037 0.95057-1.5621-0.34118-0.11369-0.36135-0.08611-0.43715 0.1504-0.6985l0.2376-0.26254-0.16722-0.59724-0.16721-0.59724-0.55727-0.44048c-0.3065-0.24227-0.80909-0.64347-1.1169-0.89156l-0.55959-0.45108 0.47029 1.116c0.25866 0.61383 0.69207 1.5642 0.96314 2.1119 0.65451 0.95662 0.51317 1.9784 0.53624 3.0939 0.02387 1.1539-0.01103 2.243-0.07745 2.4202l-0.12084 0.32219-0.30456-0.32219c-1.1493-1.2159-1.9365-4.3148-1.4225-5.5996l0.20306-0.5075-0.45772-1.5883c-0.25174-0.87355-0.47932-1.6017-0.50572-1.6181-0.0549-0.03413-1.5358-1.242-1.9118-1.5594-0.46933-0.39609 0.70823 1.3965 1.2754 1.9416 1.2054 1.1583 1.2193 2.4885 0.026 2.4885-1.1723 0-2.2667-1.8079-1.5642-2.5841l0.22743-0.2513-1.3292-2.7321-0.85816-0.94902c-2.4309-2.6883-3.3979-4.4757-2.7642-5.1094 0.27787-0.27787 0.49758-0.26671 0.8823 0.044818l0.31639 0.2562-0.23423 0.25883c-0.68925 0.76161 0.54114 2.8349 2.9169 4.9152l1.0178 0.89125 0.84125-0.39244c0.46543-0.21712 1.3521-0.4744 1.9846-0.5759 0.62886-0.1009 1.3552-0.29957 1.6142-0.44147l0.47081-0.258 1.3452 4e-3c2.2142 0.0066 4.2373 0.72235 4.2373 1.4991v0.17833l-0.5717-8e-3c-0.31443-0.0044-0.85922-0.05535-1.2106-0.11319l-0.63895-0.10518v0.24771c0 0.29946-0.09333 0.30253-1.4284 0.04708l-1.0486-0.20062-1.3509 0.08407c-1.8327 0.11405-1.9076 0.21115-0.44669 0.5794 2.8594 0.72079 5.5014 1.7771 6.1004 2.439l0.23362 0.25815h-0.39446c-0.21696 0-0.53392 0.09768-0.70437 0.21706l-0.3099 0.21709-0.42624-0.21005c-0.23443-0.11552-0.76975-0.23863-1.1896-0.27356-1.0365-0.08624-1.9299-0.50747-2.734-1.2891l-0.67258-0.65378-1.4858-0.41622c-0.81719-0.22892-1.5362-0.41622-1.5978-0.41622s0.48596 0.47477 1.2168 1.055l1.3288 1.055 1.1434 0.37338c0.62886 0.20536 1.359 0.48268 1.6226 0.61628l0.47924 0.2429 0.19334-0.12234c0.83328-0.52727 2.9509 0.53949 2.9509 1.4865 0 1.404-2.6204 0.7389-3.2068-0.81391l-0.13001-0.34433-1.1823-0.49303c-1.4164-0.59065-1.4593-0.58059-0.55056 0.12911 0.3872 0.30241 1.3215 1.1041 2.0762 1.7815l1.3722 1.2317 4.1097 0.08038 1.2076 0.36656c1.4574 0.4424 3.1923 1.1744 3.2593 1.3752 0.06381 0.19143-1.7848 0.52172-2.92 0.52172h-0.87435l-0.85773-0.60532c-0.47175-0.33293-0.96244-0.68259-1.0904-0.77704-0.22976-0.16955-2.3058-0.59174-2.4103-0.49018-0.02969 0.02883 0.21398 0.34089 0.54148 0.69345s0.87677 1.0087 1.2206 1.458l0.62514 0.81699 1.4875 0.33289 0.29396-0.15732c0.62953-0.33692 1.5397 0.07476 2.9816 1.3485 0.35174 0.31074 0.60044 0.6282 0.55268 0.70548-0.11657 0.18862-1.6905 0.04714-2.4701-0.22205l-0.60532-0.20901 0.37131 0.2801c0.54876 0.41396 2.1172 2.2508 2.1172 2.4794 0 0.24892-0.01069 0.24778-1.1434-0.12171zm-2.354-3.5602c0-0.13609-0.15418-0.31769-0.34262-0.40355-0.44064-0.20077-0.44704-0.19952-0.40612 0.0793 0.01901 0.12947 0.10142 0.2354 0.18315 0.2354 0.08172 0 0.22426 0.07567 0.31674 0.16814 0.22201 0.222 0.24886 0.21345 0.24886-0.0793zm-0.67258-0.22337c0-0.03699 0.03027-0.06725 0.06726-0.06725s0.06725 0.03027 0.06725 0.06725c0 0.03699-0.03027 0.06725-0.06725 0.06725-0.03699 0-0.06726-0.03027-0.06726-0.06725z" fill="#e579ff" stroke-width=".13452"/>
</svg>
