<svg width="48" height="48" version="1.1" xmlns="http://www.w3.org/2000/svg">
 <defs>
  <radialGradient id="radialGradient2026" cx="22.956" cy="8.9136" r="16.003" gradientTransform="matrix(1.6291 2.4239e-8 -2.6065e-8 1.7518 -14.717 -11.344)" gradientUnits="userSpaceOnUse">
   <stop stop-color="#6a1d7e" offset="0"/>
   <stop stop-color="#451352" offset="1"/>
  </radialGradient>
 </defs>
 <path d="m10 4c-1.108 0-2 0.892-2 2v36c0 1.108 0.892 2 2 2h28c1.108 0 2-0.892 2-2v-26.791c0-1.4861 0.12432-1.8536-0.76409-2.742l-7.892-7.6403c-0.37518-0.37518-1.1798-0.82706-1.7892-0.82706z" fill="url(#radialGradient2026)"/>
 <path d="m10 3.1504c-1.5642 0-2.8496 1.2854-2.8496 2.8496v36c0 1.5642 1.2854 2.8496 2.8496 2.8496h28c1.5642 0 2.8496-1.2854 2.8496-2.8496v-26.791c0-0.71936 0.0492-1.2037-0.06641-1.7656-0.11561-0.56189-0.44565-1.0765-0.94531-1.5762l-0.0059-0.0059-7.8867-7.6348c-0.56348-0.56348-1.361-1.0761-2.3906-1.0761zm0 1.6992h19.555c0.18929 0 1.0007 0.3913 1.1875 0.57812l0.0059 0.00586 7.8867 7.6348c0.38875 0.38875 0.44004 0.50131 0.48438 0.7168s0.03125 0.65707 0.03125 1.4238v26.791c0 0.6518-0.49859 1.1504-1.1504 1.1504h-28c-0.6518 0-1.1504-0.49859-1.1504-1.1504v-36c0-0.6518 0.49859-1.1504 1.1504-1.1504z" color="#000000" color-rendering="auto" dominant-baseline="auto" fill="#e579ff" image-rendering="auto" shape-rendering="auto" solid-color="#000000" style="font-feature-settings:normal;font-variant-alternates:normal;font-variant-caps:normal;font-variant-ligatures:normal;font-variant-numeric:normal;font-variant-position:normal;isolation:auto;mix-blend-mode:normal;shape-padding:0;text-decoration-color:#000000;text-decoration-line:none;text-decoration-style:solid;text-indent:0;text-orientation:mixed;text-transform:none;white-space:normal"/>
 <g fill="#fff" stroke-width=".19169" aria-label="OVE">
  <path d="m21.478 36.689q0 1.097-0.52042 1.7035-0.51668 0.60654-1.4377 0.60654-0.91729 0-1.4415-0.59905-0.52417-0.60279-0.53165-1.6848v-0.93227q0-1.1232 0.52042-1.7522 0.52042-0.63274 1.4452-0.63274 0.9098 0 1.434 0.62151 0.52417 0.61777 0.53165 1.7372zm-1.1045-0.91355q0-0.73758-0.20967-1.097-0.20967-0.35943-0.65146-0.35943-0.43805 0-0.64772 0.3482-0.20967 0.34445-0.21715 1.0521v0.96971q0 0.71511 0.21341 1.0558 0.21341 0.33696 0.65895 0.33696 0.43056 0 0.64023-0.32948 0.20967-0.33322 0.21341-1.0296z"/>
  <path d="m23.967 37.426 0.91729-3.9537h1.228l-1.5725 5.4513h-1.1457l-1.5613-5.4513h1.2206z"/>
  <path d="m29.441 36.565h-1.7148v1.4452h2.0293v0.91355h-3.13v-5.4513h3.1225v0.91729h-2.0218v1.288h1.7148z"/>
 </g>
 <path d="m27.439 8.5769a0.79493 0.79493 0 0 0-0.08 5.656e-4 0.79493 0.79493 0 0 0-0.74852 0.75902c-0.15792 2.7216-0.97875 4.9242-2.4209 6.7262a0.79504 0.79504 0 0 0-0.07237 0.10867 5.3177 6.8044 22.984 0 1 1.262 0.94198 0.79504 0.79504 0 0 0 0.05158-0.05684c1.6565-2.0698 2.5929-4.633 2.7667-7.6278a0.79493 0.79493 0 0 0-0.75856-0.85194zm-5.8783 0.91714c-0.56298 1.438e-4 -1.147 0.059342-1.7316 0.20445-3.0787 0.77699-4.7307 3.0854-4.3672 3.905 0.27575 0.62169 2.0282 1.6009 5.5095 0.69693 3.118-0.77388 5.0744-3.7022 5.0744-3.7022s-2.0456-1.1049-4.4851-1.1041zm6.4214 3.9186s-1.3136 3.5288-0.03273 6.7159c1.2784 3.1451 3.9672 4.5529 4.7813 4.0466 0.6175-0.38399 1.3951-2.3844-0.07737-5.937-1.2809-3.1871-4.6712-4.8255-4.6712-4.8255zm-5.5783 2.8921a4.8648 6.2249 22.984 0 0-5.6225 4.1305 4.8648 6.2249 22.984 0 0 2.0478 7.6304 4.8648 6.2249 22.984 0 0 6.9094-3.8312 4.8648 6.2249 22.984 0 0-2.048-7.6302 4.8648 6.2249 22.984 0 0-1.2866-0.2995zm-1.0702 1.1228a0.39135 0.39135 0 0 1 0.12539 0.76094c-1.114 0.40463-2.4444 1.5958-3.0106 3.0177a0.39158 0.39158 0 1 1-0.7275-0.28971c0.66194-1.6625 2.0975-2.9648 3.4708-3.4636a0.39135 0.39135 0 0 1 0.14187-0.02533z" fill="#e579ff"/>
</svg>
