<svg width="48" height="48" version="1.1" xmlns="http://www.w3.org/2000/svg" xmlns:xlink="http://www.w3.org/1999/xlink">
 <defs>
  <radialGradient id="radialGradient1426" cx="23.212" cy="8.1636" r="16.003" gradientTransform="matrix(1.0985 0 0 1.4454 -2.286 -7.8531)" gradientUnits="userSpaceOnUse">
   <stop stop-color="#1a7484" offset="0"/>
   <stop stop-color="#104852" offset="1"/>
  </radialGradient>
 </defs>
 <g>
  <path d="m10 4c-1.108 0-2 0.892-2 2v36c0 1.108 0.892 2 2 2h28c1.108 0 2-0.892 2-2v-26.791c0-1.4861 0.12432-1.8536-0.76409-2.742l-7.892-7.6403c-0.37518-0.37518-1.1798-0.82706-1.7892-0.82706z" fill="url(#radialGradient1426)"/>
  <path d="m10 3.1504c-1.5642 0-2.8496 1.2854-2.8496 2.8496v36c0 1.5642 1.2854 2.8496 2.8496 2.8496h28c1.5642 0 2.8496-1.2854 2.8496-2.8496v-26.791c0-0.71936 0.0492-1.2037-0.06641-1.7656-0.11561-0.56189-0.44565-1.0765-0.94531-1.5762l-0.0059-0.0059-7.8867-7.6348c-0.56348-0.56348-1.361-1.0761-2.3906-1.0761zm0 1.6992h19.555c0.18929 0 1.0007 0.3913 1.1875 0.57812l0.0059 0.00586 7.8867 7.6348c0.38875 0.38875 0.44004 0.50131 0.48438 0.7168 0.04434 0.21549 0.03125 0.65707 0.03125 1.4238v26.791c0 0.6518-0.49859 1.1504-1.1504 1.1504h-28c-0.6518 0-1.1504-0.49859-1.1504-1.1504v-36c0-0.6518 0.49859-1.1504 1.1504-1.1504z" color="#000000" color-rendering="auto" dominant-baseline="auto" fill="#31f0f0" image-rendering="auto" shape-rendering="auto" solid-color="#000000" style="font-feature-settings:normal;font-variant-alternates:normal;font-variant-caps:normal;font-variant-ligatures:normal;font-variant-numeric:normal;font-variant-position:normal;isolation:auto;mix-blend-mode:normal;shape-padding:0;text-decoration-color:#000000;text-decoration-line:none;text-decoration-style:solid;text-indent:0;text-orientation:mixed;text-transform:none;white-space:normal"/>
  <path d="m12.296 7.6993c-3e-3 -4.58e-5 -0.0061 4.57e-5 -9e-3 3.666e-4 -0.07121 0.00593-0.11408 0.097006-0.07411 0.15687 1.2371 1.8467 3.9756 4.656 6.1411 6.7986 0.25327-0.25922 0.50091-0.45314 0.7488-0.65013-2.1584-2.2397-4.3807-4.4834-6.7372-6.2786-0.02452-0.018585-0.04818-0.026654-0.06961-0.027043zm11.703 4.7585c-1.7984 0-3.46 0.59899-4.8067 1.6124 0.23636 0.24526 0.47309 0.48971 0.70884 0.7362 0.39809 0.41623 0.79555 0.83365 1.1932 1.2503 0.39767 0.41663 0.79554 0.83246 1.1945 1.2456l-0.62384 0.58792s-0.11034-0.10175-0.30788-0.28641c-0.19754-0.18466-0.48227-0.45223-0.83103-0.7839-0.17438-0.16584-0.36478-0.3477-0.56828-0.54324-0.20351-0.19554-0.42014-0.40473-0.64698-0.62526s-0.46388-0.45236-0.70826-0.69318c-0.06716-0.06618-0.13851-0.13781-0.20671-0.20529-1.559 1.52-2.531 3.6675-2.531 6.0479 0 4.6077 3.6416 8.3428 8.1342 8.3428 4.4926 0 8.1345-3.735 8.1345-8.3428 0-4.6077-3.6419-8.343-8.1345-8.343zm-1.6053 5.0444 1.8075 2.0003-0.47539 0.40348-1.9259-1.8312zm1.9274 2.1079s0.91197 0.28201 1.0585 0.33504c0.14658 0.0527 3.2487 1.371 2.5825 3.7752-0.66656 2.4046-1.9968 1.9365-1.9968 1.9365s1.2454-0.76166 0.78572-1.4563c-0.45295-0.68301-0.69042-0.75972-1.1491-1.007-0.61675-0.28736-2.0674-1.1617-1.7762-3.1277z" fill="#31f0f0" stroke-width=".050244"/>
  <g transform="translate(.91525)" fill="#fff" stroke-width=".1945" aria-label="KRA">
   <path d="m18.982 36.737-0.44067 0.55463v1.5803h-1.1169v-5.5312h1.1169v2.4123l0.3533-0.59642 1.0295-1.8159h1.3676l-1.5841 2.4313 1.6107 3.0999h-1.3258z"/>
   <path d="m23.4 36.851h-0.55464v2.021h-1.1169v-5.5312h1.7817q0.83955 0 1.2954 0.43687 0.45966 0.43307 0.45966 1.2346 0 1.1017-0.80156 1.5423l0.96871 2.2641v0.05318h-1.2004zm-0.55464-0.93072h0.63441q0.3343 0 0.50145-0.22033 0.16715-0.22413 0.16715-0.59642 0-0.83195-0.64961-0.83195h-0.65341z"/>
   <path d="m28.681 37.74h-1.5233l-0.29631 1.1321h-1.1814l1.7285-5.5312h1.0219l1.7399 5.5312h-1.1928zm-1.2802-0.93072h1.0333l-0.51665-1.9716z"/>
  </g>
 </g>
</svg>
