<svg width="48" height="48" version="1.1" xmlns="http://www.w3.org/2000/svg">
 <defs>
  <radialGradient id="radialGradient1426" cx="23.212" cy="8.1636" r="16.003" gradientTransform="matrix(1.0985 0 0 1.4454 -2.286 -7.8531)" gradientUnits="userSpaceOnUse">
   <stop stop-color="#316a59" offset="0"/>
   <stop stop-color="#143c3f" offset="1"/>
  </radialGradient>
 </defs>
 <path d="m10 4c-1.108 0-2 0.892-2 2v36c0 1.108 0.892 2 2 2h28c1.108 0 2-0.892 2-2v-26.791c0-1.4861 0.12432-1.8536-0.76409-2.742l-7.892-7.6403c-0.37518-0.37518-1.1798-0.82706-1.7892-0.82706z" fill="url(#radialGradient1426)"/>
 <path d="m10 3.1504c-1.5642 0-2.8496 1.2854-2.8496 2.8496v36c0 1.5642 1.2854 2.8496 2.8496 2.8496h28c1.5642 0 2.8496-1.2854 2.8496-2.8496v-26.791c0-0.71936 0.0492-1.2037-0.06641-1.7656-0.11561-0.56189-0.44565-1.0765-0.94531-1.5762l-0.0059-0.0059-7.8867-7.6348c-0.56348-0.56348-1.361-1.0761-2.3906-1.0761zm0 1.6992h19.555c0.18929 0 1.0007 0.3913 1.1875 0.57812l0.0059 0.00586 7.8867 7.6348c0.38875 0.38875 0.44004 0.50131 0.48438 0.7168s0.03125 0.65707 0.03125 1.4238v26.791c0 0.6518-0.49859 1.1504-1.1504 1.1504h-28c-0.6518 0-1.1504-0.49859-1.1504-1.1504v-36c0-0.6518 0.49859-1.1504 1.1504-1.1504z" color="#000000" color-rendering="auto" dominant-baseline="auto" fill="#68e1bd" image-rendering="auto" shape-rendering="auto" solid-color="#000000" style="font-feature-settings:normal;font-variant-alternates:normal;font-variant-caps:normal;font-variant-ligatures:normal;font-variant-numeric:normal;font-variant-position:normal;isolation:auto;mix-blend-mode:normal;shape-padding:0;text-decoration-color:#000000;text-decoration-line:none;text-decoration-style:solid;text-indent:0;text-orientation:mixed;text-transform:none;white-space:normal"/>
 <g fill="#fff" stroke-width=".20046" aria-label="APD">
  <path d="m21.085 37.769h-1.57l-0.30539 1.1667h-1.2176l1.7814-5.7006h1.0532l1.7932 5.7006h-1.2294zm-1.3194-0.95924h1.065l-0.53248-2.032z"/>
  <path d="m24.008 36.931v2.0046h-1.1511v-5.7006h1.942q0.8457 0 1.3468 0.52464 0.50507 0.52465 0.50507 1.3625t-0.49724 1.3234-1.3782 0.48549zm0-0.95924h0.79088q0.32888 0 0.50898-0.21534 0.1801-0.21534 0.1801-0.62644 0-0.42676-0.18402-0.67734-0.18402-0.25449-0.49332-0.25841h-0.80263z"/>
  <path d="m27.114 38.936v-5.7006h1.5074q0.99839 0 1.5896 0.63427 0.59512 0.63427 0.60687 1.7384v0.924q0 1.1237-0.59512 1.7658-0.5912 0.63819-1.6327 0.63819zm1.1511-4.7414v3.7861h0.34454q0.57554 0 0.81046-0.30148 0.23492-0.30539 0.24666-1.0493v-0.99056q0-0.79871-0.22317-1.1119-0.22317-0.31714-0.75956-0.3328z"/>
 </g>
 <g transform="matrix(.048261 0 0 .048261 8.6095 -.78014)" fill="#68e1bd">
  <path transform="matrix(.23811 0 0 .23811 0 130.69)" d="m827.98 429.71s121.11 56.888 272.76 146.82c50.259 69.602-201.71 24.993-436.36 4.7754 0 0 213.39 64.385 431.32 174.55 21.501 39.544-242.34 5.8863-487.04-4.8106 241.08 126.1 638.1 216.78 775.03 310.1l291.33-453.18c-215.65-105.85-513.98-145.28-847.04-178.27zm1170.7 437.22-372.25 615.02c93.86 246.6 94.959 436.32 65.887 533.41 5.0356-8.4997 9.9648-16.949 14.812-25.357-5.1886 12.238-10.563 23.43-16.062 33.494 277.32-291.03 638.23-623.14 307.62-1156.6zm-89.312 553.73c42.44 3e-4 76.845 33.608 76.846 75.064 7e-4 41.458-34.404 75.066-76.846 75.066-42.441-3e-4 -76.846-33.609-76.846-75.066 5e-4 -41.457 34.405-75.064 76.846-75.064z" fill-rule="evenodd" stroke-width="0"/>
  <path d="m460.16 224.16-108.08 168.16 42.73 29.872 108.08-168.16zm-126.19 185.05-28.033 43.727c31.241 7.4977 46.656 30.62 50.249 35.072l28.033-43.726zm-45.595 59.816c-48.364 2.1675-64.181 47.885-105.51 47.885s-68.154-12.644-68.154-12.644c64.107 119.13 214.69 105.72 231.35 5.5643 2.6779-10.859-39.714-41.689-57.686-40.805z"/>
 </g>
</svg>
