<svg width="48" height="48" version="1.1" xmlns="http://www.w3.org/2000/svg">
 <defs>
  <radialGradient id="radialGradient1426" cx="23.212" cy="8.1636" r="16.003" gradientTransform="matrix(1.0985 0 0 1.4454 -2.286 -7.8531)" gradientUnits="userSpaceOnUse">
   <stop stop-color="#3b3e5c" offset="0"/>
   <stop stop-color="#242638" offset="1"/>
  </radialGradient>
 </defs>
 <path d="m10 4c-1.108 0-2 0.892-2 2v36c0 1.108 0.892 2 2 2h28c1.108 0 2-0.892 2-2v-26.791c0-1.4861 0.12432-1.8536-0.76409-2.742l-7.892-7.6403c-0.37518-0.37518-1.1798-0.82706-1.7892-0.82706z" fill="url(#radialGradient1426)"/>
 <g>
  <path d="m10 3.1504c-1.5642 0-2.8496 1.2854-2.8496 2.8496v36c0 1.5642 1.2854 2.8496 2.8496 2.8496h28c1.5642 0 2.8496-1.2854 2.8496-2.8496v-26.791c0-0.71936 0.0492-1.2037-0.06641-1.7656-0.11561-0.56189-0.44565-1.0765-0.94531-1.5762l-0.0059-0.0059-7.8867-7.6348c-0.56348-0.56348-1.361-1.0761-2.3906-1.0761zm0 1.6992h19.555c0.18929 0 1.0007 0.3913 1.1875 0.57812l0.0059 0.00586 7.8867 7.6348c0.38875 0.38875 0.44004 0.50131 0.48438 0.7168s0.03125 0.65707 0.03125 1.4238v26.791c0 0.6518-0.49859 1.1504-1.1504 1.1504h-28c-0.6518 0-1.1504-0.49859-1.1504-1.1504v-36c0-0.6518 0.49859-1.1504 1.1504-1.1504z" color="#000000" color-rendering="auto" dominant-baseline="auto" fill="#b8bad1" image-rendering="auto" shape-rendering="auto" solid-color="#000000" style="font-feature-settings:normal;font-variant-alternates:normal;font-variant-caps:normal;font-variant-ligatures:normal;font-variant-numeric:normal;font-variant-position:normal;isolation:auto;mix-blend-mode:normal;shape-padding:0;text-decoration-color:#000000;text-decoration-line:none;text-decoration-style:solid;text-indent:0;text-orientation:mixed;text-transform:none;white-space:normal"/>
  <path d="m26.298 11.47c0.90023 0 1.7254 0.30008 2.138 0.81583 1.0128-1.0221 1.9599-1.3035 2.7757-1.3035 1.3128 0 1.7254 0.83459 1.7254 1.3879 0 0.69393-0.44074 1.1816-1.1065 1.1816-0.72206 0-0.36572-1.6504-1.3879-1.6504-0.83459 0-1.5285 2.2037-1.8755 4.1261h1.8005c0.2063 0 0.24381 0.15004 0.24381 0.30945 0 0.43136-0.19693 0.79708-0.55327 0.79708h-1.7723s-0.81473 3.8559-1.416 6.2641c-0.80926 3.2413-3.2915 4.1448-4.8481 4.1448-0.74082 0-1.5285-0.26257-2.0537-0.80646-0.70331 0.72206-1.7723 1.2941-2.9164 1.2941-0.56264 0-1.5004-0.3751-1.5004-1.0878 0-0.40323 0.40323-1.0128 0.83459-1.0128 0.75957 0 0.85334 0.82521 1.7067 0.82521 0.41261 0 0.6986-0.11382 1.0409-1.3503 0.75019-2.7101 1.8849-8.2709 1.8849-8.2709h-1.341c-0.21568 0-0.24381-0.13128-0.24381-0.27194 0-0.3751 0.14066-0.83459 0.61891-0.83459h1.2472c0.68455-2.3537 2.2037-4.5574 4.9982-4.5574zm-0.73144 0.93774c-1.3222 0-1.9224 2.1943-2.2131 3.6197h3.1321c0.22506-0.86272 0.60016-1.7442 1.0034-2.4663-0.45012-0.71268-1.2284-1.1534-1.9224-1.1534zm-2.8132 13.991c0.73144 0 1.3128-0.24381 1.6692-1.5191 0.84397-3.0383 1.7817-7.7457 1.7817-7.7457h-3.0945c-0.44941 2.0749-0.94481 4.3117-1.3802 5.9922-0.29626 1.1436-0.54496 1.7857-0.80475 2.3256 0.53451 0.62829 1.2284 0.94712 1.8286 0.94712z" clip-rule="evenodd" fill="#b8bad1" stroke-linejoin="round" stroke-miterlimit="1.4142" stroke-width=".0093774"/>
  <path d="m19.517 32.691c-0.57834 0-1.0567 0.16016-1.4336 0.48242-0.37405 0.31938-0.56055 0.74402-0.56055 1.2734 0 0.43735 0.13784 0.81641 0.41406 1.1387 0.27622 0.31938 0.72925 0.59907 1.3594 0.83789 0.34528 0.14099 0.58341 0.2778 0.71289 0.41016 0.13236 0.12948 0.19727 0.32205 0.19727 0.57812 0 0.469-0.22096 0.70312-0.66406 0.70312-0.31938 0-0.55042-0.08209-0.69141-0.24609-0.14099-0.16401-0.21094-0.42652-0.21094-0.78906h-1.2734c0 0.42296 0.09423 0.79081 0.28125 1.1016 0.1899 0.31075 0.45139 0.54796 0.78516 0.71484 0.33377 0.16688 0.70368 0.25 1.1094 0.25 0.59848 0 1.0718-0.15307 1.4199-0.46094s0.52148-0.73456 0.52148-1.2812c0-0.49777-0.13887-0.90821-0.41797-1.2305-0.27622-0.32226-0.72112-0.59485-1.334-0.81641-0.35103-0.14962-0.59431-0.29353-0.73242-0.43164-0.13811-0.14099-0.20703-0.29806-0.20703-0.4707 0-0.22155 0.06182-0.39591 0.18555-0.52539 0.12372-0.13236 0.29603-0.19922 0.51758-0.19922 0.23594 0 0.41534 0.079 0.53906 0.23438 0.1266 0.1525 0.18945 0.37448 0.18945 0.66797h1.2656c0-0.37692-0.08209-0.7134-0.24609-1.0098-0.16113-0.29636-0.3932-0.52442-0.69531-0.68555-0.30212-0.16401-0.64569-0.24609-1.0312-0.24609zm2.8184 0.08594v6.2832h1.2676v-2.5625h1.9727v-1.0527h-1.9727v-1.6113h2.2109v-1.0566zm4.2109 0v6.2832h1.6289c0.76536 0 1.3644-0.23413 1.7988-0.70312 0.43735-0.47188 0.65625-1.1195 0.65625-1.9453v-1.0195c-0.0086-0.8114-0.23257-1.4499-0.66992-1.916-0.43447-0.46612-1.0182-0.69922-1.752-0.69922zm1.2695 1.0566h0.46289c0.39419 0.01151 0.67193 0.13413 0.83594 0.36719 0.16401 0.23018 0.24609 0.63959 0.24609 1.2266v1.0918c-0.0086 0.54669-0.09885 0.93182-0.27148 1.1562-0.17264 0.22155-0.46962 0.33203-0.89258 0.33203h-0.38086z" fill="#fff"/>
 </g>
</svg>
