<svg width="48" height="48" version="1.1" xmlns="http://www.w3.org/2000/svg">
 <defs>
  <radialGradient id="radialGradient841" cx="22.709" cy="7.7743" r="16.003" gradientTransform="matrix(1,0,0,1.2498,0,-5.9944)" gradientUnits="userSpaceOnUse">
   <stop stop-color="#633c62" offset="0"/>
   <stop stop-color="#472b47" offset="1"/>
  </radialGradient>
 </defs>
 <path d="m10 4c-1.108 0-2 0.892-2 2v36c0 1.108 0.892 2 2 2h28c1.108 0 2-0.892 2-2v-26.791c0-1.4861 0.12432-1.8536-0.76409-2.742l-7.892-7.6403c-0.37518-0.37518-1.1798-0.82706-1.7892-0.82706z" fill="url(#radialGradient841)"/>
 <g>
  <path d="m10 3.1504c-1.5642 0-2.8496 1.2854-2.8496 2.8496v36c0 1.5642 1.2854 2.8496 2.8496 2.8496h28c1.5642 0 2.8496-1.2854 2.8496-2.8496v-26.791c0-0.71936 0.0492-1.2037-0.06641-1.7656-0.11561-0.56189-0.44565-1.0765-0.94531-1.5762l-0.0059-0.0059-7.8867-7.6348c-0.56348-0.56348-1.361-1.0761-2.3906-1.0761zm0 1.6992h19.555c0.18929 0 1.0007 0.3913 1.1875 0.57812l0.0059 0.00586 7.8867 7.6348c0.38875 0.38875 0.44004 0.50131 0.48438 0.7168s0.03125 0.65707 0.03125 1.4238v26.791c0 0.6518-0.49859 1.1504-1.1504 1.1504h-28c-0.6518 0-1.1504-0.49859-1.1504-1.1504v-36c0-0.6518 0.49859-1.1504 1.1504-1.1504z" color="#000000" color-rendering="auto" dominant-baseline="auto" fill="#bd74da" image-rendering="auto" shape-rendering="auto" solid-color="#000000" style="font-feature-settings:normal;font-variant-alternates:normal;font-variant-caps:normal;font-variant-ligatures:normal;font-variant-numeric:normal;font-variant-position:normal;isolation:auto;mix-blend-mode:normal;shape-padding:0;text-decoration-color:#000000;text-decoration-line:none;text-decoration-style:solid;text-indent:0;text-orientation:mixed;text-transform:none;white-space:normal"/>
  <g transform="translate(-.30508)" fill="#fff" stroke-width=".19096" aria-label="OSP">
   <path d="m21.846 36.569q0 1.0928-0.51842 1.697-0.51469 0.6042-1.4322 0.6042-0.91376 0-1.4359-0.59674-0.52215-0.60047-0.52961-1.6783v-0.92868q0-1.1189 0.51842-1.7455 0.51842-0.63031 1.4396-0.63031 0.9063 0 1.4284 0.61912 0.52215 0.61539 0.52961 1.7305zm-1.1002-0.91003q0-0.73474-0.20886-1.0928-0.20886-0.35804-0.64895-0.35804-0.43637 0-0.64522 0.34686-0.20886 0.34312-0.21632 1.048v0.96597q0 0.71236 0.21259 1.0518 0.21259 0.33566 0.65641 0.33566 0.42891 0 0.63777-0.32821 0.20886-0.33194 0.21259-1.0256z"/>
   <path d="m24.927 37.371q0-0.33194-0.17156-0.49977-0.16783-0.17156-0.61539-0.35431-0.81679-0.30956-1.1748-0.72355-0.35804-0.41772-0.35804-0.98462 0-0.68625 0.48485-1.1002 0.48858-0.41772 1.2382-0.41772 0.49977 0 0.89138 0.21259 0.39161 0.20886 0.60047 0.59301 0.21259 0.38415 0.21259 0.87273h-1.0928q0-0.38042-0.1641-0.57809-0.16037-0.2014-0.4662-0.2014-0.28718 0-0.44755 0.17156-0.16037 0.16783-0.16037 0.45501 0 0.22378 0.17902 0.40653 0.17902 0.17902 0.63404 0.37296 0.79441 0.28718 1.1525 0.7049 0.36177 0.41772 0.36177 1.0629 0 0.70863-0.45128 1.1077-0.45128 0.39907-1.227 0.39907-0.52588 0-0.95851-0.21632-0.43264-0.21632-0.67879-0.61912-0.24242-0.4028-0.24242-0.95105h1.1002q0 0.46993 0.18275 0.68252 0.18275 0.21259 0.59674 0.21259 0.57436 0 0.57436-0.60793z"/>
   <path d="m27.862 36.886v1.9096h-1.0965v-5.4303h1.8499q0.8056 0 1.283 0.49977 0.48112 0.49977 0.48112 1.2979t-0.47366 1.2606-1.3128 0.46247zm0-0.91376h0.75338q0.31329 0 0.48485-0.20513 0.17156-0.20513 0.17156-0.59674 0-0.40653-0.17529-0.64522-0.17529-0.24243-0.46993-0.24616h-0.76457z"/>
  </g>
  <path d="m23.824 9.9729c-0.12894 6.353e-4 -0.25784 0.00395-0.38666 0.00993-2.4451 0.11361-4.7475 1.1842-6.4101 2.9807-1.6626 1.7965-2.552 4.1747-2.4763 6.6213 0.07576 2.4466 1.1106 4.7653 2.8812 6.4554 1.7705 1.6902 4.1347 2.6163 6.5822 2.5784 2.4475-0.03789 4.7819-1.0367 6.4993-2.7809 1.7174-1.7442 2.68-4.0938 2.68-6.5415l-0.01787-0.57681c-0.14592-2.3541-1.1786-4.5654-2.89-6.1883-1.7114-1.623-3.9743-2.537-6.3328-2.558-0.04298-3.812e-4 -0.08598-4.656e-4 -0.12895-2.541e-4zm2.4606 1.5207c3.2282 1.0058 5.5026 3.909 5.7162 7.2965l0.01561 0.50613c-2e-6 2.1478-0.84107 4.2094-2.3416 5.7399-1.5005 1.5304-3.5402 2.4069-5.6786 2.4401-0.68105 0.0071-1.3603-0.07153-2.0219-0.23415 1.4606-0.71189 5.763-1.7601 5.763-4.935 0-3.175-8.1842-2.1891-8.1842-5.5667s6.771-5.2073 6.7315-5.2467zm-6.579 8.2368c0.84548 0 3.6968 1.9985 4.3593 2.4939 0.66241 0.49535 0.68022 0.84549 0 1.4326-0.68022 0.58713-3.9255 2.5666-4.3593 2.5666-0.36223 0-0.65384-0.3777-0.65384-0.84686v-4.7994c0-0.46916 0.29161-0.84686 0.65384-0.84686z" fill="#bd74da" style="paint-order:stroke fill markers"/>
 </g>
</svg>
