<svg width="48" height="48" version="1.1" xmlns="http://www.w3.org/2000/svg" xmlns:xlink="http://www.w3.org/1999/xlink">
 <defs>
  <radialGradient id="radialGradient841" cx="22.709" cy="7.7743" r="16.003" gradientTransform="matrix(1 0 0 1.2498 0 -5.9944)" gradientUnits="userSpaceOnUse">
   <stop stop-color="#721c44" offset="0"/>
   <stop stop-color="#521429" offset="1"/>
  </radialGradient>
 </defs>
 <g>
  <path d="m10 4c-1.108 0-2 0.892-2 2v36c0 1.108 0.892 2 2 2h28c1.108 0 2-0.892 2-2v-26.791c0-1.4861 0.12432-1.8536-0.76409-2.742l-7.892-7.6403c-0.37518-0.37518-1.1798-0.82706-1.7892-0.82706z" fill="url(#radialGradient841)"/>
  <path d="m10 3.1504c-1.5642 0-2.8496 1.2854-2.8496 2.8496v36c0 1.5642 1.2854 2.8496 2.8496 2.8496h28c1.5642 0 2.8496-1.2854 2.8496-2.8496v-26.791c0-0.71936 0.0492-1.2037-0.06641-1.7656-0.11561-0.56189-0.44565-1.0765-0.94531-1.5762l-0.0059-0.0059-7.8867-7.6348c-0.56348-0.56348-1.361-1.0761-2.3906-1.0761zm0 1.6992h19.555c0.18929 0 1.0007 0.3913 1.1875 0.57812l0.0059 0.00586 7.8867 7.6348c0.38875 0.38875 0.44004 0.50131 0.48438 0.7168 0.04434 0.21549 0.03125 0.65707 0.03125 1.4238v26.791c0 0.6518-0.49859 1.1504-1.1504 1.1504h-28c-0.6518 0-1.1504-0.49859-1.1504-1.1504v-36c0-0.6518 0.49859-1.1504 1.1504-1.1504z" color="#000000" color-rendering="auto" dominant-baseline="auto" fill="#ff408c" image-rendering="auto" shape-rendering="auto" solid-color="#000000" style="font-feature-settings:normal;font-variant-alternates:normal;font-variant-caps:normal;font-variant-ligatures:normal;font-variant-numeric:normal;font-variant-position:normal;isolation:auto;mix-blend-mode:normal;shape-padding:0;text-decoration-color:#000000;text-decoration-line:none;text-decoration-style:solid;text-indent:0;text-orientation:mixed;text-transform:none;white-space:normal"/>
  <g transform="matrix(.050747 0 0 .050747 15.672 10.517)" fill="#ff408c">
   <path d="m192.51 64.521c-2.746-2.745-7.162-2.862-10.046-0.268-14.862 13.354-93 81.184-171.94 105.16l-0.855 0.259c-2.051 0.623-3.727 2.114-4.582 4.082-0.854 1.969-0.801 4.209 0.146 6.133l0.395 0.799c4e-3 0.011 8e-3 0.019 0.015 0.027 0.271 0.564 11.653 24.328 13.133 57.811 0.916 20.82-2.101 40.832-8.945 59.519-2.442 0.19-4.834 1.215-6.703 3.084-4.168 4.167-4.166 10.921 0 15.087s10.92 4.167 15.086 0c2.408-2.409 3.416-5.682 3.039-8.82l76.486-76.489c1.908-1.907 2.609-4.71 1.824-7.289-2.703-8.89-0.291-18.509 6.299-25.097 4.756-4.758 11.078-7.377 17.809-7.377s13.058 2.619 17.813 7.377c4.758 4.756 7.375 11.08 7.375 17.808s-2.617 13.051-7.377 17.81c-4.754 4.754-11.074 7.371-17.799 7.372-2.494 0-4.953-0.362-7.31-1.075-2.582-0.783-5.379-0.08-7.283 1.824l-76.479 76.489c-3.142-0.378-6.416 0.628-8.826 3.038-4.166 4.166-4.164 10.921 0 15.087 4.166 4.166 10.922 4.167 15.088 0 1.869-1.869 2.892-4.258 3.084-6.702 16.48-6.036 34.014-9.105 52.15-9.105 2.276 0 4.604 0.049 6.922 0.145 33.588 1.385 58.088 13.064 58.315 13.173l0.775 0.382c1.014 0.498 2.117 0.749 3.221 0.748 0.99 1e-3 1.98-0.2 2.91-0.603 1.963-0.855 3.457-2.529 4.08-4.579l0.258-0.854c23.979-78.943 91.807-157.08 105.16-171.94 2.594-2.888 2.477-7.3-0.271-10.046z"/>
   <path d="m337.86 86.974-84.837-84.835c-1.37-1.37-3.228-2.139-5.165-2.139-1.937-1e-3 -3.796 0.768-5.164 2.137l-36.295 36.299c-2.854 2.853-2.854 7.477 0 10.329l84.84 84.834c1.369 1.371 3.225 2.14 5.164 2.14 1.936 0 3.793-0.771 5.162-2.14l36.297-36.297c2.852-2.851 2.852-7.475-2e-3 -10.328z"/>
  </g>
  <g transform="translate(1.2225)" fill="#fff" stroke-width=".20123" aria-label="SLA">
   <path d="m19.438 37.506q0-0.3498-0.1808-0.52666-0.17686-0.1808-0.6485-0.37338-0.86074-0.32622-1.2381-0.76248-0.37731-0.4402-0.37731-1.0376 0-0.72318 0.51094-1.1594 0.51487-0.4402 1.3049-0.4402 0.52666 0 0.93935 0.22403 0.41268 0.2201 0.63278 0.62492 0.22403 0.40482 0.22403 0.9197h-1.1516q0-0.40089-0.17294-0.6092-0.169-0.21224-0.49129-0.21224-0.30264 0-0.47164 0.1808-0.169 0.17686-0.169 0.4795 0 0.23582 0.18866 0.4284 0.18866 0.18866 0.66816 0.39303 0.83716 0.30264 1.2145 0.74283 0.38124 0.4402 0.38124 1.1201 0 0.74676-0.47557 1.1673-0.47557 0.42054-1.2931 0.42054-0.55418 0-1.0101-0.22796-0.45592-0.22796-0.71532-0.65243-0.25547-0.42448-0.25547-1.0022h1.1594q0 0.49522 0.19259 0.71925 0.19259 0.22403 0.62885 0.22403 0.60527 0 0.60527-0.64064z"/>
   <path d="m22.531 38.048h2.028v0.959h-3.1836v-5.7226h1.1555z"/>
   <path d="m28.038 37.836h-1.5761l-0.30656 1.1712h-1.2223l1.7883-5.7226h1.0573l1.8001 5.7226h-1.2341zm-1.3245-0.96293h1.069l-0.53452-2.0398z"/>
  </g>
 </g>
</svg>
