<svg width="48" height="48" version="1.1" xmlns="http://www.w3.org/2000/svg" xmlns:xlink="http://www.w3.org/1999/xlink">
 <defs>
  <radialGradient id="radialGradient841" cx="22.709" cy="7.7743" r="16.003" gradientTransform="matrix(1 0 0 1.2498 0 -5.9944)" gradientUnits="userSpaceOnUse">
   <stop stop-color="#72390a" offset="0"/>
   <stop stop-color="#522907" offset="1"/>
  </radialGradient>
 </defs>
 <g>
  <path d="m10 4c-1.108 0-2 0.892-2 2v36c0 1.108 0.892 2 2 2h28c1.108 0 2-0.892 2-2v-26.791c0-1.4861 0.12432-1.8536-0.76409-2.742l-7.892-7.6403c-0.37518-0.37518-1.1798-0.82706-1.7892-0.82706z" fill="url(#radialGradient841)"/>
  <path d="m10 3.1504c-1.5642 0-2.8496 1.2854-2.8496 2.8496v36c0 1.5642 1.2854 2.8496 2.8496 2.8496h28c1.5642 0 2.8496-1.2854 2.8496-2.8496v-26.791c0-0.71936 0.0492-1.2037-0.06641-1.7656-0.11561-0.56189-0.44565-1.0765-0.94531-1.5762l-0.0059-0.0059-7.8867-7.6348c-0.56348-0.56348-1.361-1.0761-2.3906-1.0761zm0 1.6992h19.555c0.18929 0 1.0007 0.3913 1.1875 0.57812l0.0059 0.00586 7.8867 7.6348c0.38875 0.38875 0.44004 0.50131 0.48438 0.7168 0.04434 0.21549 0.03125 0.65707 0.03125 1.4238v26.791c0 0.6518-0.49859 1.1504-1.1504 1.1504h-28c-0.6518 0-1.1504-0.49859-1.1504-1.1504v-36c0-0.6518 0.49859-1.1504 1.1504-1.1504z" color="#000000" color-rendering="auto" dominant-baseline="auto" fill="#ff7f18" image-rendering="auto" shape-rendering="auto" solid-color="#000000" style="font-feature-settings:normal;font-variant-alternates:normal;font-variant-caps:normal;font-variant-ligatures:normal;font-variant-numeric:normal;font-variant-position:normal;isolation:auto;mix-blend-mode:normal;shape-padding:0;text-decoration-color:#000000;text-decoration-line:none;text-decoration-style:solid;text-indent:0;text-orientation:mixed;text-transform:none;white-space:normal"/>
  <path d="m23.8 8.275c-0.6371 3.068e-4 -1.265 0.2369-1.7171 0.71021l-7.6063 7.9878c-2.8799 2.9528 1.8655 2.7074 3.5828 3.8235 0.79407 0.5298-2.5475 1.2115-1.8655 1.9127 0.66488 0.7012 4.0064 1.344 4.6713 2.0257 0.66488 0.7012-1.3488 1.4394-0.68388 2.1387 0.64589 0.7012 2.1979 0.03701 2.4734 1.6283 0.20326 1.1745 2.8438 0.58628 4.0254-0.41683 0.73898-0.64277-1.2747-0.64276-0.6098-1.344 1.6622-1.7218 3.1383-0.77717 3.7481-2.3666 0.33245-0.85118-2.5114-1.4569-1.7534-2.0062 1.8104-1.307 8.4574-1.9692 5.3913-5.111l-7.8837-8.2742c-0.48916-0.47234-1.1355-0.70849-1.7726-0.70825zm0.06506 0.75841c0.45663 0.0024 0.91352 0.17774 1.246 0.5186l3.0091 3.1418c0.27736 0.28438 0.27736 0.87065 0.11018 1.0421l-1.4951-1.2485-0.29634 1.8367-1.2367-0.68172-2.0118 1.307-0.66488-2.7444-1.0695 2.3841-2.6766-0.01948c-0.51671 0-0.44263-0.54929 0.09308-1.0986 1.0524-1.192 3.1022-3.2177 3.7481-3.9189 0.33149-0.3506 0.78788-0.52103 1.2445-0.5186zm8.4973 14.385c-0.66718-0.0048-1.3726 0.32356-1.5466 0.95772 0 0.39735 3.0091 0.62524 2.8438-0.09543-0.11406-0.57737-0.68977-0.85791-1.2972-0.86228zm-13.197 1.7181c-0.89928-0.0033-1.951 0.67351-1.1823 1.3413 0.6839 0.60576 1.7173-0.13245 2.0498-0.98363-0.187-0.2509-0.51555-0.35636-0.86745-0.35766zm11.282 0.07134c-0.84917 0.79469 0.14816 1.6283 0.97833 1.0791 0.22226-0.14998-0.019-0.89013-0.97833-1.0791z" fill="#ff7f18" stroke-width=".019236"/>
  <g fill="#fff" stroke-width=".19079" aria-label="SVG">
   <path d="m20.219 37.333q0-0.33165-0.17141-0.49934-0.16769-0.17141-0.61486-0.35401-0.81608-0.30929-1.1738-0.72292-0.35773-0.41736-0.35773-0.98377 0-0.68566 0.48443-1.0993 0.48816-0.41736 1.2372-0.41736 0.49934 0 0.89061 0.2124 0.39127 0.20868 0.59995 0.5925 0.2124 0.38382 0.2124 0.87198h-1.0918q0-0.38009-0.16396-0.57759-0.16023-0.20122-0.4658-0.20122-0.28693 0-0.44717 0.17141-0.16023 0.16769-0.16023 0.45462 0 0.22358 0.17887 0.40618 0.17887 0.17887 0.63349 0.37264 0.79372 0.28693 1.1515 0.70429 0.36146 0.41736 0.36146 1.062 0 0.70802-0.45089 1.1067-0.45089 0.39872-1.226 0.39872-0.52542 0-0.95768-0.21613-0.43226-0.21613-0.6782-0.61858-0.24222-0.40245-0.24222-0.95023h1.0993q0 0.46952 0.18259 0.68193 0.18259 0.2124 0.59622 0.2124 0.57386 0 0.57386-0.6074z"/>
   <path d="m23.823 37.266 0.91297-3.9351h1.2223l-1.5651 5.4256h-1.1403l-1.5539-5.4256h1.2148z"/>
   <path d="m30.158 38.142q-0.31674 0.34283-0.77882 0.51797-0.45835 0.17141-1.0061 0.17141-0.93532 0-1.4533-0.57759-0.51797-0.58132-0.53287-1.6881v-0.97632q0-1.1216 0.48816-1.7253 0.49188-0.6074 1.4309-0.6074 0.88316 0 1.3303 0.43599 0.45089 0.43599 0.5217 1.3676h-1.0657q-0.04472-0.51797-0.21613-0.70429-0.17141-0.19005-0.5366-0.19005-0.44344 0-0.64467 0.3242t-0.20868 1.0322v0.98377q0 0.74155 0.21986 1.0807 0.22358 0.33538 0.73037 0.33538 0.3242 0 0.52542-0.13042l0.09689-0.06708v-0.99494h-0.76764v-0.82726h1.8669z"/>
  </g>
 </g>
</svg>
