<svg width="48" height="48" version="1.1" xmlns="http://www.w3.org/2000/svg">
 <defs>
  <radialGradient id="radialGradient841" cx="22.709" cy="7.7743" r="16.003" gradientTransform="matrix(1 0 0 1.2498 0 -5.9944)" gradientUnits="userSpaceOnUse">
   <stop stop-color="#fff" offset="0"/>
   <stop stop-color="#e3e3e3" offset="1"/>
  </radialGradient>
 </defs>
 <path d="m10 4c-1.108 0-2 0.892-2 2v36c0 1.108 0.892 2 2 2h28c1.108 0 2-0.892 2-2v-26.791c0-1.4861 0.12432-1.8536-0.76409-2.742l-7.892-7.6403c-0.37518-0.37518-1.1798-0.82706-1.7892-0.82706z" fill="url(#radialGradient841)"/>
 <path d="m10 3.1504c-1.5642 0-2.8496 1.2854-2.8496 2.8496v36c0 1.5642 1.2854 2.8496 2.8496 2.8496h28c1.5642 0 2.8496-1.2854 2.8496-2.8496v-26.791c0-0.71936 0.0492-1.2037-0.06641-1.7656-0.11561-0.56189-0.44565-1.0765-0.94531-1.5762l-0.0059-0.0059-7.8867-7.6348c-0.56348-0.56348-1.361-1.0761-2.3906-1.0761zm0 1.6992h19.555c0.18929 0 1.0007 0.3913 1.1875 0.57812l0.0059 0.00586 7.8867 7.6348c0.38875 0.38875 0.44004 0.50131 0.48438 0.7168s0.03125 0.65707 0.03125 1.4238v26.791c0 0.6518-0.49859 1.1504-1.1504 1.1504h-28c-0.6518 0-1.1504-0.49859-1.1504-1.1504v-36c0-0.6518 0.49859-1.1504 1.1504-1.1504z" color="#000000" color-rendering="auto" dominant-baseline="auto" fill="#a7a7a7" image-rendering="auto" shape-rendering="auto" solid-color="#000000" style="font-feature-settings:normal;font-variant-alternates:normal;font-variant-caps:normal;font-variant-ligatures:normal;font-variant-numeric:normal;font-variant-position:normal;isolation:auto;mix-blend-mode:normal;shape-padding:0;text-decoration-color:#000000;text-decoration-line:none;text-decoration-style:solid;text-indent:0;text-orientation:mixed;text-transform:none;white-space:normal"/>
 <g fill="#505050" stroke-width=".19079" aria-label="SVG">
  <path d="m20.219 37.333q0-0.33165-0.17141-0.49934-0.16769-0.17141-0.61486-0.35401-0.81608-0.30929-1.1738-0.72292-0.35773-0.41736-0.35773-0.98377 0-0.68566 0.48443-1.0993 0.48816-0.41736 1.2372-0.41736 0.49934 0 0.89061 0.2124 0.39127 0.20868 0.59995 0.5925 0.2124 0.38382 0.2124 0.87198h-1.0918q0-0.38009-0.16396-0.57759-0.16023-0.20122-0.4658-0.20122-0.28693 0-0.44717 0.17141-0.16023 0.16769-0.16023 0.45462 0 0.22358 0.17887 0.40618 0.17887 0.17887 0.63349 0.37264 0.79372 0.28693 1.1515 0.70429 0.36146 0.41736 0.36146 1.062 0 0.70802-0.45089 1.1067-0.45089 0.39872-1.226 0.39872-0.52542 0-0.95768-0.21613t-0.6782-0.61858q-0.24222-0.40245-0.24222-0.95023h1.0993q0 0.46952 0.18259 0.68193 0.18259 0.2124 0.59622 0.2124 0.57386 0 0.57386-0.6074z"/>
  <path d="m23.823 37.266 0.91297-3.9351h1.2223l-1.5651 5.4256h-1.1403l-1.5539-5.4256h1.2148z"/>
  <path d="m30.158 38.142q-0.31674 0.34283-0.77882 0.51797-0.45835 0.17141-1.0061 0.17141-0.93532 0-1.4533-0.57759-0.51797-0.58132-0.53287-1.6881v-0.97632q0-1.1216 0.48816-1.7253 0.49188-0.6074 1.4309-0.6074 0.88316 0 1.3303 0.43599 0.45089 0.43599 0.5217 1.3676h-1.0657q-0.04472-0.51797-0.21613-0.70429-0.17141-0.19005-0.5366-0.19005-0.44344 0-0.64467 0.3242t-0.20868 1.0322v0.98377q0 0.74155 0.21986 1.0807 0.22358 0.33538 0.73037 0.33538 0.3242 0 0.52542-0.13042l0.09689-0.06708v-0.99494h-0.76764v-0.82726h1.8669z"/>
 </g>
 <path d="m15.925 13.422a2.8653 2.8653 0 0 0-2.8653 2.8653 2.8653 2.8653 0 0 0 2.8653 2.8653 2.8653 2.8653 0 0 0 2.8653-2.8653 2.8653 2.8653 0 0 0-2.8653-2.8653zm2.4889 4.7764c-0.2942 0.38204-0.67047 0.69294-1.1067 0.908l2.5757 3.1493c0.2942-0.38204 0.67047-0.69294 1.1067-0.908zm14.703 0.95417a2.8653 2.8653 0 0 0-2.8653 2.8653 2.8653 2.8653 0 0 0 2.8653 2.8653 2.8653 2.8653 0 0 0 2.8653-2.8653 2.8653 2.8653 0 0 0-2.8653-2.8653zm-10.745 2.149a2.8653 2.8653 0 0 0-2.8653 2.8653 2.8653 2.8653 0 0 0 2.8653 2.8653 2.8653 2.8653 0 0 0 2.8653-2.8653 2.8653 2.8653 0 0 0-2.8653-2.8653zm7.6026 0.61419-4.7401 0.94717c0.18249 0.3985 0.28961 0.83795 0.28961 1.3039 0 0.03498-0.0087 0.06743-0.0098 0.10213l4.7401-0.94857c-0.18217-0.39821-0.28961-0.83699-0.28961-1.3025 0-0.03498 0.0087-0.06743 0.0098-0.10213z" color="#000000" color-rendering="auto" dominant-baseline="auto" fill="#505050" image-rendering="auto" shape-rendering="auto" solid-color="#000000" style="font-feature-settings:normal;font-variant-alternates:normal;font-variant-caps:normal;font-variant-ligatures:normal;font-variant-numeric:normal;font-variant-position:normal;isolation:auto;mix-blend-mode:normal;shape-padding:0;text-decoration-color:#000000;text-decoration-line:none;text-decoration-style:solid;text-indent:0;text-orientation:mixed;text-transform:none;white-space:normal"/>
</svg>
