<svg width="48" height="48" version="1.1" xmlns="http://www.w3.org/2000/svg" xmlns:xlink="http://www.w3.org/1999/xlink">
 <defs>
  <radialGradient id="radialGradient841" cx="22.709" cy="7.7743" r="16.003" gradientTransform="matrix(1 0 0 1.2498 0 -5.9944)" gradientUnits="userSpaceOnUse">
   <stop stop-color="#004762" offset="0"/>
   <stop stop-color="#003352" offset="1"/>
  </radialGradient>
 </defs>
 <g>
  <path d="m10 4c-1.108 0-2 0.892-2 2v36c0 1.108 0.892 2 2 2h28c1.108 0 2-0.892 2-2v-26.791c0-1.4861 0.12432-1.8536-0.76409-2.742l-7.892-7.6403c-0.37518-0.37518-1.1798-0.82706-1.7892-0.82706z" fill="url(#radialGradient841)"/>
  <path d="m10 3.1504c-1.5642 0-2.8496 1.2854-2.8496 2.8496v36c0 1.5642 1.2854 2.8496 2.8496 2.8496h28c1.5642 0 2.8496-1.2854 2.8496-2.8496v-26.791c0-0.71936 0.0492-1.2037-0.06641-1.7656-0.11561-0.56189-0.44565-1.0765-0.94531-1.5762l-0.0059-0.0059-7.8867-7.6348c-0.56348-0.56348-1.361-1.0761-2.3906-1.0761zm0 1.6992h19.555c0.18929 0 1.0007 0.3913 1.1875 0.57812l0.0059 0.00586 7.8867 7.6348c0.38875 0.38875 0.44004 0.50131 0.48438 0.7168 0.04434 0.21549 0.03125 0.65707 0.03125 1.4238v26.791c0 0.6518-0.49859 1.1504-1.1504 1.1504h-28c-0.6518 0-1.1504-0.49859-1.1504-1.1504v-36c0-0.6518 0.49859-1.1504 1.1504-1.1504z" color="#000000" color-rendering="auto" dominant-baseline="auto" fill="#00cafe" image-rendering="auto" shape-rendering="auto" solid-color="#000000" style="font-feature-settings:normal;font-variant-alternates:normal;font-variant-caps:normal;font-variant-ligatures:normal;font-variant-numeric:normal;font-variant-position:normal;isolation:auto;mix-blend-mode:normal;shape-padding:0;text-decoration-color:#000000;text-decoration-line:none;text-decoration-style:solid;text-indent:0;text-orientation:mixed;text-transform:none;white-space:normal"/>
  <path d="m31.603 11.204c-0.10086 9.66e-4 -0.2131 0.12831-0.30298 0.4049-0.1626 0.5003-1.1514 3.5164-6.1079 4.5422-0.47939-0.372-1.0759-0.59306-1.7216-0.59306-0.80803 0-1.5388 0.34625-2.0595 0.90123-0.47898-0.04782-0.91619-0.15532-1.3136-0.30276-0.2377-0.16886-0.50543-0.29612-0.79307-0.37162-1.6483-0.94366-2.3866-2.5042-2.3866-2.5042l-0.07429 3.2772c-0.39079 0.44948-0.62874 1.0415-0.62843 1.6891 0 0.40013 0.09089 0.77893 0.25247 1.1162-0.1541-0.19115-0.33136-0.37204-0.53008-0.53814-0.58396-0.48866-1.2525-0.76548-1.8875-0.80902-0.635-0.04353-1.2578 0.15833-1.6511 0.65306-0.3933 0.49473-0.46059 1.1609-0.29116 1.7901 0.16943 0.62918 0.56817 1.2452 1.1524 1.7335 0.58392 0.48856 1.2524 0.76528 1.8874 0.80881 0.05781 4e-3 0.11554 0.0058 0.17299 0.0057 2.8548 2.5266 9.1691 5.0849 13.178 2.2158 0.7 0.37254 1.4406 0.71075 2.1233 0.9121 0.05116-0.44438 0.28225-0.73057 0.50247-1.0263-0.43904-0.32944-0.96068-0.63529-1.5015-0.91107 1.8826-2.1598 2.9276-6.0557 2.2307-12.544-0.03604-0.2897-0.13573-0.45074-0.25004-0.44957zm-8.1325 4.9104c1.2837 0 2.3183 1.0617 2.3177 2.3783v1.43e-4 1.45e-4c6.9e-4 1.3166-1.034 2.3783-2.3177 2.3783-1.2735 0-2.3017-1.0449-2.3173-2.347 0.0097-0.09116 0.01479-0.18369 0.01475-0.27743 5e-6 -0.0083-4.66e-4 -0.01659-4.66e-4 -0.02488 0.12982-1.1884 1.1085-2.1076 2.3029-2.1076zm-4.779 0.14784c1.0551 0 1.9077 0.85819 1.9334 1.9337-0.0096 0.09761-0.01451 0.19658-0.01447 0.29674v1.43e-4 1.45e-4c0 0.0014 3.7e-5 0.0029 3.7e-5 0.0044-0.11889 0.98025-0.92993 1.7343-1.919 1.7343-1.0718 0-1.9347-0.88541-1.9342-1.9846v-1.45e-4c-4.66e-4 -1.0992 0.86244-1.9846 1.9342-1.9846zm0.54623 1.2308a1.0618 1.089 0 0 0-1.0924 1.089 1.0618 1.089 0 1 0 2.1236 0 1.0618 1.089 0 0 0-1.0312-1.089zm4.7975 0.11525a1.2465 1.2784 0 0 0-1.2829 1.2779 1.2465 1.2784 0 1 0 2.493 0 1.2465 1.2784 0 0 0-1.2101-1.2779zm-10.202 1.1341c0.0548-0.0013 0.11125 0 0.16924 0.0041h3.7e-5c0.464 0.03182 1.0063 0.24602 1.4841 0.64585 0.47807 0.39953 0.79166 0.90125 0.91547 1.361 0.12381 0.45976 0.06508 0.85377-0.15656 1.1326-0.22166 0.27882-0.58625 0.4172-1.0503 0.38539-0.46401-0.03181-1.0062-0.24596-1.4841-0.64581v-1.45e-4c-0.47807-0.39957-0.7917-0.90109-0.91551-1.3608-0.1238-0.45976-0.06505-0.85398 0.15661-1.1328 0.19395-0.24397 0.49732-0.38029 0.88098-0.38924zm11.821 2.721s1.2765 0.36378 1.7259 0.95882c0.25026 0.33132 0.27284 0.59167 0.22362 0.88914-0.97444-0.3724-1.7103-0.58745-1.7103-0.58745-0.03258-0.01557-0.06371-0.02818-0.09383-0.03893 0.23733-0.13164 0.44683-0.27464 0.63362-0.42256-0.28765-0.38107-0.77908-0.79902-0.77908-0.79902zm-0.35426 1.4621c-9.66e-4 0.13242 0.06942 0.28971 0.22134 0.42112 0 0 0.13588 0.1004 0.36196 0.25878-1.2304 0.67579-3.3422 0.4479-6.0559-0.53482 2.6209 0.53765 4.3195 0.33225 5.4726-0.14509zm6.1761 2.2102c-0.30315 0.19472-0.74368 0.91804-0.62687 1.3247l0.22542-0.08742 0.12208 0.12103 1.4856 0.45293c0.05185-0.32586 0.18222-0.49064 0.30634-0.66823l-1.2742-0.89222-0.1664-0.01455zm2.7108 0.85885c-0.07343-9.42e-4 -0.14988 0.0022-0.22958 0.0097-1.3702 0.12897-1.4661 2.1425-0.05023 2.6982 1.3639 0.53525 2.6318 1.2054 2.6318 1.2054-0.62011-2.1589-0.85883-3.8939-2.352-3.9133z" color="#000000" fill="#00cafe" fill-rule="evenodd"/>
  <g fill="#fff" stroke-width=".20015" aria-label="XCF">
   <path d="m19.654 35.371 0.76622-1.9546h1.3174l-1.337 2.8225 1.3682 2.8694h-1.3331l-0.78186-1.9898-0.77794 1.9898h-1.3331l1.3682-2.8694-1.3409-2.8225h1.3174z"/>
   <path d="m26.218 37.212q-0.043 0.97341-0.5473 1.4738-0.5043 0.50039-1.423 0.50039-0.96559 0-1.4816-0.6333-0.51212-0.63721-0.51212-1.8139v-0.95777q0-1.1728 0.53166-1.8061 0.53166-0.63721 1.4777-0.63721 0.93041 0 1.4112 0.51993 0.48475 0.51993 0.55121 1.4933h-1.1532q-0.01564-0.60203-0.18764-0.82877-0.1681-0.23065-0.62158-0.23065-0.46129 0-0.65285 0.32447-0.19155 0.32056-0.20328 1.0594v1.075q0 0.84831 0.18764 1.165 0.19155 0.31665 0.65285 0.31665 0.45348 0 0.62548-0.21892 0.17201-0.22283 0.19546-0.8014z"/>
   <path d="m29.861 36.786h-1.7865v2.3221h-1.1493v-5.6919h3.1509v0.95777h-2.0015v1.4582h1.7865z"/>
  </g>
 </g>
</svg>
