<svg width="48" height="48" version="1.1" xmlns="http://www.w3.org/2000/svg">
 <defs>
  <radialGradient id="radialGradient841" cx="22.709" cy="7.7743" r="16.003" gradientTransform="matrix(1,0,0,1.2498,0,-5.9944)" gradientUnits="userSpaceOnUse">
   <stop stop-color="#fff" offset="0"/>
   <stop stop-color="#e3e3e3" offset="1"/>
  </radialGradient>
 </defs>
 <path d="m10 4c-1.108 0-2 0.892-2 2v36c0 1.108 0.892 2 2 2h28c1.108 0 2-0.892 2-2v-26.791c0-1.4861 0.12432-1.8536-0.76409-2.742l-7.892-7.6403c-0.37518-0.37518-1.1798-0.82706-1.7892-0.82706z" fill="url(#radialGradient841)"/>
 <path d="m10 3.1504c-1.5642 0-2.8496 1.2854-2.8496 2.8496v36c0 1.5642 1.2854 2.8496 2.8496 2.8496h28c1.5642 0 2.8496-1.2854 2.8496-2.8496v-26.791c0-0.71936 0.0492-1.2037-0.06641-1.7656-0.11561-0.56189-0.44565-1.0765-0.94531-1.5762l-0.0059-0.0059-7.8867-7.6348c-0.56348-0.56348-1.361-1.0761-2.3906-1.0761zm0 1.6992h19.555c0.18929 0 1.0007 0.3913 1.1875 0.57812l0.0059 0.00586 7.8867 7.6348c0.38875 0.38875 0.44004 0.50131 0.48438 0.7168s0.03125 0.65707 0.03125 1.4238v26.791c0 0.6518-0.49859 1.1504-1.1504 1.1504h-28c-0.6518 0-1.1504-0.49859-1.1504-1.1504v-36c0-0.6518 0.49859-1.1504 1.1504-1.1504z" color="#000000" color-rendering="auto" dominant-baseline="auto" fill="#a7a7a7" image-rendering="auto" shape-rendering="auto" solid-color="#000000" style="font-feature-settings:normal;font-variant-alternates:normal;font-variant-caps:normal;font-variant-ligatures:normal;font-variant-numeric:normal;font-variant-position:normal;isolation:auto;mix-blend-mode:normal;shape-padding:0;text-decoration-color:#000000;text-decoration-line:none;text-decoration-style:solid;text-indent:0;text-orientation:mixed;text-transform:none;white-space:normal"/>
 <g transform="matrix(.10776 0 0 .10776 6.3983 -.73082)" fill="#505050" stroke-opacity=".8">
  <path d="m129.53 225.56c-0.133-0.919-0.625-1.747-1.368-2.303l-37.7-28.193 37.7-28.193c0.743-0.556 1.235-1.384 1.368-2.303 0.132-0.919-0.105-1.852-0.662-2.597l-5.989-8.008c-1.159-1.548-3.351-1.865-4.899-0.706l-52.157 39.004c-0.883 0.66-1.404 1.699-1.404 2.803s0.521 2.143 1.404 2.803l52.157 39.004c0.628 0.471 1.364 0.697 2.093 0.697 1.066 0 2.119-0.484 2.806-1.403l5.989-8.008c0.556-0.745 0.794-1.678 0.662-2.597z"/>
  <path d="m259.77 192.26-52.155-39.004c-1.548-1.158-3.74-0.841-4.898 0.706l-5.989 8.008c-0.556 0.744-0.794 1.678-0.662 2.597 0.133 0.918 0.624 1.747 1.368 2.303l37.699 28.193-37.699 28.193c-0.744 0.556-1.235 1.385-1.368 2.303-0.132 0.919 0.105 1.853 0.662 2.597l5.989 8.008c0.688 0.919 1.74 1.403 2.806 1.403 0.729 0 1.464-0.227 2.093-0.697l52.155-39.004c0.883-0.66 1.404-1.699 1.404-2.803s-0.522-2.143-1.405-2.803z"/>
  <path d="m196.26 132.44-9.211-3.895c-0.854-0.362-1.818-0.368-2.679-0.02-0.86 0.349-1.547 1.025-1.908 1.88l-55 130.08c-0.753 1.78 0.08 3.834 1.861 4.587l9.211 3.895c0.435 0.185 0.899 0.276 1.363 0.276 0.447 0 0.894-0.086 1.316-0.257 0.86-0.349 1.546-1.025 1.908-1.88l55-130.08c0.752-1.78-0.081-3.833-1.861-4.586z"/>
 </g>
 <g fill="#505050" stroke-width=".1883" aria-label="HTML">
  <path d="m19.163 38.76h-1.0776v-2.2912h-1.5961v2.2912h-1.0812v-5.3547h1.0812v2.1661h1.5961v-2.1661h1.0776z"/>
  <path d="m23.393 34.306h-1.324v4.4536h-1.0849v-4.4536h-1.3019v-0.90102h3.7107z"/>
  <path d="m25.426 33.405 1.0114 3.8726 1.0077-3.8726h1.4122v5.3547h-1.0849v-1.449l0.0993-2.2323-1.0702 3.6813h-0.73553l-1.0702-3.6813 0.0993 2.2323v1.449h-1.0812v-5.3547z"/>
  <path d="m30.803 37.862h1.8977v0.89735h-2.9789v-5.3547h1.0812z"/>
 </g>
</svg>
