<svg width="48" height="48" version="1.1" xmlns="http://www.w3.org/2000/svg">
 <defs>
  <radialGradient id="radialGradient1426" cx="23.212" cy="8.1636" r="16.003" gradientTransform="matrix(1.0985 0 0 1.4454 -2.286 -7.8531)" gradientUnits="userSpaceOnUse">
   <stop stop-color="#5c3b4d" offset="0"/>
   <stop stop-color="#372438" offset="1"/>
  </radialGradient>
 </defs>
 <path d="m10 4c-1.108 0-2 0.892-2 2v36c0 1.108 0.892 2 2 2h28c1.108 0 2-0.892 2-2v-26.791c0-1.4861 0.12432-1.8536-0.76409-2.742l-7.892-7.6403c-0.37518-0.37518-1.1798-0.82706-1.7892-0.82706z" fill="url(#radialGradient1426)"/>
 <g>
  <path d="m23.979 11.321c-0.9246 0-1.9108 0.76531-2.1771 2.044l-2.0681 10.091 1.5286 0.01111 0.24363-1.1702c0.01975-0.09486 0.10022-0.17123 0.1804-0.17123h4.3029c0.08017 0 0.12884 0.07637 0.10908 0.17123l-0.81804 3.9288c-0.01975 0.09486-0.1002 0.17121-0.18038 0.17121h-0.76649c0.31304 0.46226 0.78938 0.64764 1.1341 0.64764 0.48656 0 1.1572-0.06476 1.2555-0.53663 0 0 2.5834-12.407 2.6277-12.62 0.04433-0.21291 0.25946-1.3727 1.2173-1.3727 0.95788 0 0.4352 1.5649 0.46366 2.2931h0.8679l0.16578-1.7416c0.09997-1.0502-0.20255-1.7454-0.98689-1.7454zm-0.32015 1.3317h4.3029c0.08017 0 0.12884 0.07637 0.10908 0.17123l-0.69542 3.3399c-0.01975 0.09486-0.1002 0.17121-0.18038 0.17121h-4.3029c-0.08017 0-0.12884-0.07635-0.10908-0.17121l0.69544-3.3399c0.01975-0.09486 0.1002-0.17123 0.18038-0.17123zm-0.98131 4.7129h4.3029c0.08017 0 0.12881 0.07635 0.10906 0.17121l-0.70514 3.3866c-0.01975 0.09486-0.1002 0.17125-0.18038 0.17125h-4.3029c-0.08017 0-0.12881-0.07639-0.10906-0.17125l0.70514-3.3866c0.01975-0.09486 0.1002-0.17121 0.18038-0.17121zm-6.6502 6.9764v1.3438c0 2.0157 1.4128 2.3436 2.1794 2.3657h6.891c-1.6576-0.44414-2.6978-1.6938-2.6978-3.7095z" fill="#ea9fcc" style="paint-order:stroke fill markers"/>
  <path d="m10 3.1504c-1.5642 0-2.8496 1.2854-2.8496 2.8496v36c0 1.5642 1.2854 2.8496 2.8496 2.8496h28c1.5642 0 2.8496-1.2854 2.8496-2.8496v-26.791c0-0.71936 0.0492-1.2037-0.06641-1.7656-0.11561-0.56189-0.44565-1.0765-0.94531-1.5762l-0.0059-0.0059-7.8867-7.6348c-0.56348-0.56348-1.361-1.0761-2.3906-1.0761zm0 1.6992h19.555c0.18929 0 1.0007 0.3913 1.1875 0.57812l0.0059 0.00586 7.8867 7.6348c0.38875 0.38875 0.44004 0.50131 0.48438 0.7168s0.03125 0.65707 0.03125 1.4238v26.791c0 0.6518-0.49859 1.1504-1.1504 1.1504h-28c-0.6518 0-1.1504-0.49859-1.1504-1.1504v-36c0-0.6518 0.49859-1.1504 1.1504-1.1504z" color="#000000" color-rendering="auto" dominant-baseline="auto" fill="#ea9fcc" image-rendering="auto" shape-rendering="auto" solid-color="#000000" style="font-feature-settings:normal;font-variant-alternates:normal;font-variant-caps:normal;font-variant-ligatures:normal;font-variant-numeric:normal;font-variant-position:normal;isolation:auto;mix-blend-mode:normal;shape-padding:0;text-decoration-color:#000000;text-decoration-line:none;text-decoration-style:solid;text-indent:0;text-orientation:mixed;text-transform:none;white-space:normal"/>
  <path d="m15.727 32.615 1.873 6.5391h1.375l1.8867-6.5391h-1.4746l-1.0996 4.7441-1.0957-4.7441h-1.4648zm5.75 0v6.5391h1.3203v-2.2988h0.88086c0.67376 0 1.1998-0.18532 1.5801-0.55664 0.3803-0.37132 0.57031-0.87871 0.57031-1.5195s-0.19184-1.1612-0.57812-1.5625c-0.3833-0.40126-0.89811-0.60156-1.5449-0.60156h-2.2285zm4.7734 0 1.7578 4.168v2.3711h1.3379v-2.3711l1.752-4.168h-1.4375l-0.98438 2.9375-0.98828-2.9375h-1.4375zm-3.4531 1.0996h0.91992c0.23656 0.002994 0.42566 0.10223 0.56641 0.29688 0.14074 0.19165 0.21094 0.45094 0.21094 0.77734 0 0.31442-0.069285 0.55405-0.20703 0.71875-0.13775 0.1647-0.33049 0.24805-0.58203 0.24805h-0.9082v-2.041z" fill="#fff"/>
 </g>
</svg>
