<svg id="ae_x5F_cc_x5F_app_x5F_RGB.svg" width="665" height="649" version="1.1" viewBox="0 0 665 649" xml:space="preserve" xmlns="http://www.w3.org/2000/svg"><defs><radialGradient id="radialGradient1129" cx="70.345" cy="44.114" r="110" gradientTransform="matrix(3.7618,0,2.1466e-4,2.6863,-63.926,11.588)" gradientUnits="userSpaceOnUse"><stop stop-color="#0a3b33" offset="0"/><stop stop-color="#062520" stop-opacity=".98824" offset="1"/></radialGradient><clipPath><rect width="384" height="384"/></clipPath><clipPath><rect width="384" height="384"/></clipPath></defs>

<rect x="27.709" y="30.392" width="609.6" height="590.99" fill="url(#radialGradient1129)" stroke-width="2.7663"/>

<path d="m0 0.013903v648.99h665.02v-648.99zm35.699 35.514h593.62v577.96h-593.62z" fill="#25dadf" stroke-width="1.1177"/><g transform="matrix(1.3333 0 0 1.3333 72.845 66.75)"><path d="m178.9 62.154c-33.434 67.388-86.646 185.45-107.58 231.33-8.0488 17.641-22.425 50.252-25.179 58.375s-0.67549 18.786 11.515 2.2254c152.22-206.78 122.96 6.3653 293.11 6.3653 21.378 0 17.456-16.314 7.4027-33.728s-133.37-264.56-133.37-264.56c-10.856-21.535-28.672-34.737-45.901-0.01156z" fill="#25dadf"/></g></svg>
