<svg id="ae_x5F_cc_x5F_app_x5F_RGB.svg" width="665" height="649" version="1.1" viewBox="0 0 665 649" xml:space="preserve" xmlns="http://www.w3.org/2000/svg" xmlns:xlink="http://www.w3.org/1999/xlink"><defs><clipPath id="clipPath3126"><path d="m30 94 2 2 3 10 1-12 3 15v-19l2 5 3 14v-19l2 2 3 17 3-23 6.6157 25.92 0.38432-15.92 2-6 2 25 6-25 2 21 5-22 5 24 1-18 3-6 1 23 5-22 3 10 1-9 3 6v-19l-3 8-1-17-2 13-2-4-1-14-5 19-1-4-3-30-3 26-2 8-4-27-4 23-2 6-1-41.305-6 46.305-6-42-3 36-2-4-2-24-1 24-3 7-2-24-2 19-3-5v14l-4-15z" fill="none" stroke="#000" stroke-width="1px"/></clipPath><radialGradient id="radialGradient1129" cx="70.345" cy="44.114" r="110" gradientTransform="matrix(3.7618 0 .00021466 2.6863 -63.926 11.588)" gradientUnits="userSpaceOnUse"><stop stop-color="#003c33" offset="0"/><stop stop-color="#002620" stop-opacity=".98636" offset="1"/></radialGradient></defs>

<rect x="27.709" y="30.392" width="609.6" height="590.99" fill="url(#radialGradient1129)" stroke-width="2.7663"/>

<g transform="matrix(3.5606 0 0 3.5487 -796.42 -202.56)"><g fill="#00e4bb"><g transform="translate(255.97 85.05)" clip-path="url(#clipPath3126)" fill-rule="evenodd"><path d="m28 116v-73h72v73z"/><path d="m29 80 8 5 3-9 5 6 6-10 2 12 2-8 3 6 1-6s3 8 3 7 4-15 4-15l4 13 6-12 3 13 5-9 3 9 5-5 6 6v8l-4 3-6-2-4-2-1 10-2-10-4 9-6-9-2 9-4-6-5 13-3-15-6 3-4-6-2 10-4-5-4 5-2-3-6 1z"/></g><path d="m319.97 91.925c-13.263 0-25.359 4.1408-34.281 11.094-8.9226 6.953-14.719 16.901-14.719 27.969v4c-8.8588 4.4885-15 16.262-15 30.062 0 17.664 10.049 32 23 32v-66.062c0-8.2881 4.2898-15.916 11.656-21.656s17.768-9.4062 29.344-9.4062c11.575 0 21.977 3.666 29.344 9.4062 7.3664 5.7403 11.656 13.368 11.656 21.656v66.062c12.951 0 23-14.336 23-32 0-13.8-6.1412-25.574-15-30.062v-4c0-11.067-5.7962-21.016-14.719-27.969-8.9226-6.953-21.018-11.094-34.281-11.094zm-38 42.125v63c2 0 4-1 5-3v-58c-1-1-3-2-5-2zm76 0c-2 0-4 1-5 2v58c1 2 3 3 5 3z"/></g></g><path d="m0 0.013903v648.99h665.02v-648.99zm35.699 35.514h593.62v577.96h-593.62z" fill="#00e4bb" stroke-width="1.1177"/></svg>
