<svg id="ae_x5F_cc_x5F_app_x5F_RGB.svg" width="665" height="649" version="1.1" viewBox="0 0 665 649" xml:space="preserve" xmlns="http://www.w3.org/2000/svg"><defs><radialGradient id="radialGradient1129" cx="70.345" cy="44.114" r="110" gradientTransform="matrix(3.7618 0 .00021466 2.6863 -63.926 11.588)" gradientUnits="userSpaceOnUse"><stop stop-color="#003c33" offset="0"/><stop stop-color="#002620" stop-opacity=".98636" offset="1"/></radialGradient></defs>

<rect x="27.709" y="30.392" width="609.6" height="590.99" fill="url(#radialGradient1129)" stroke-width="2.7663"/>

<g transform="matrix(3.5606 0 0 3.5487 -796.42 -202.56)" fill="#00e4bb"><path d="m319.97 91.925c-13.263 0-25.359 4.1408-34.281 11.094-8.9226 6.953-14.719 16.901-14.719 27.969v4.0002c-8.8588 4.4885-15 16.262-15 30.062 0 17.664 10.049 32 23 32 2 0 6.9999-1.0001 7.9999-3.0001v-58c-0.95708-0.95708-5.8294-2.0888-7.9999-2.1844v-2.8774c0-8.2881 4.2897-15.916 11.656-21.656 7.3662-5.74 17.768-9.406 29.344-9.406 11.575 0 21.977 3.6657 29.344 9.406 7.3664 5.7403 11.656 13.368 11.656 21.656v3.2087c-2.2463 0.0985-7.0624 0.91563-7.9999 1.8531v58c1 2 5.9999 3.0001 7.9999 3.0001 12.951 0 23-14.336 23-32 0-13.8-6.1415-25.574-15-30.062v-4.0002c0-11.067-5.7961-21.016-14.719-27.969-8.9226-6.953-21.018-11.094-34.281-11.094z"/><path transform="matrix(.28085 0 0 .28179 223.68 57.08)" d="m341.98 280.5-34.686 71.635-5.4844-6.4688-8.6856 10.244-21.908-46.682-38.303 81.615 38.303 81.615 21.908-46.682 8.6856 10.244 5.4844-6.4688 34.686 71.635 36.096-74.547 7.9531 9.3809 9.3496-11.027 22.275 47.465 38.303-81.615-38.303-81.615-22.275 47.465-9.3496-11.027-7.9531 9.3809-36.096-74.547z" style="paint-order:stroke fill markers"/></g><path d="m0 0.013903v648.99h665.02v-648.99zm35.699 35.514h593.62v577.96h-593.62z" fill="#00e4bb" stroke-width="1.1177"/></svg>
