<svg width="2500" height="2438" version="1.1" viewBox="0 130.75 595.28 580.4" xmlns="http://www.w3.org/2000/svg">
 <radialGradient id="a" cx="-183.73" cy="329.01" r=".76" gradientTransform="matrix(474.46 1.1109e-8 0 437.92 87358 -143789)" gradientUnits="userSpaceOnUse">
  <stop stop-color="#0e4136" offset="0"/>
  <stop stop-color="#072525" offset="1"/>
 </radialGradient>
 <path d="m24.803 155.55h545.67v530.79h-545.67v-530.79z" fill="url(#a)"/>
 <path transform="matrix(.23811 0 0 .23811 0 130.69)" d="m0 0.24805v2437.5h2500v-2437.5h-2500zm134.2 133.38h2231.6v2170.7h-2231.6v-2170.7z" fill="#68e1bd" stroke-width="4.1997"/>
 <g transform="matrix(.98859 0 0 .98859 -9.4967 16.012)" fill="#68e1bd">
  <path transform="matrix(.23811 0 0 .23811 0 130.69)" d="m827.98 429.71s121.11 56.888 272.76 146.82c50.259 69.602-201.71 24.993-436.36 4.7754 0 0 213.39 64.385 431.32 174.55 21.501 39.544-242.34 5.8863-487.04-4.8106 241.08 126.1 638.1 216.78 775.03 310.1l291.33-453.18c-215.65-105.85-513.98-145.28-847.04-178.27zm1170.7 437.22-372.25 615.02c93.86 246.6 94.959 436.32 65.887 533.41 5.0356-8.4997 9.9648-16.949 14.812-25.357-5.1886 12.238-10.563 23.43-16.062 33.494 277.32-291.03 638.23-623.14 307.62-1156.6zm-89.312 553.73c42.44 3e-4 76.845 33.608 76.846 75.064 7e-4 41.458-34.404 75.066-76.846 75.066-42.441-3e-4 -76.846-33.609-76.846-75.066 5e-4 -41.457 34.405-75.064 76.846-75.064z" fill-rule="evenodd" stroke-width="0"/>
  <path d="m460.16 224.16-108.08 168.16 42.73 29.872 108.08-168.16zm-126.19 185.05-28.033 43.727c31.241 7.4977 46.656 30.62 50.249 35.072l28.033-43.726zm-45.595 59.816c-48.364 2.1675-64.181 47.885-105.51 47.885s-68.154-12.644-68.154-12.644c64.107 119.13 214.69 105.72 231.35 5.5643 2.6779-10.859-39.714-41.689-57.686-40.805z"/>
 </g>
</svg>
