<svg width="665.82" height="649.17" version="1.1" viewBox="0 0 665.82 649.17" xml:space="preserve" xmlns="http://www.w3.org/2000/svg" xmlns:xlink="http://www.w3.org/1999/xlink"><defs><radialGradient id="radialGradient54" cx="0" cy="0" r="1" gradientTransform="matrix(347.89 0 0 336.82 171.71 366.21)" gradientUnits="userSpaceOnUse"><stop stop-color="#442f55" offset="0"/><stop stop-color="#12002c" offset="1"/></radialGradient></defs><g transform="matrix(1.3333 0 0 -1.3333 -4e-4 649.17)"><path d="m20.806 466.07h457.75v-445.26h-457.75z" fill="url(#radialGradient54)"/><path d="m256.2 384.64c-4.63-7e-3 -9.3423-1.3172-13.068-3.9264-7.5446-5.2689-8.403-13.993-1.6986-19.501l-0.0249-0.0249 43.097-35.049-131.37-0.14537h-0.1755c-10.859-4e-3 -21.297-7.1313-23.357-16.14-2.1298-9.1725 5.2454-16.781 16.536-16.816l-7e-3 -0.0432 66.582 0.12834-118.82-91.205c-0.14564-0.11701-0.31442-0.22743-0.45446-0.34444-11.209-8.5773-14.827-22.856-7.7663-31.883 7.1594-9.19 22.4-9.2074 33.725-0.0498l64.85 53.069s-0.95073-7.1593-0.87486-11.46l-7e-3 3e-3c0.0753-4.3237 1.4535-12.709 3.5191-19.261 4.3412-13.87 11.705-26.701 21.957-38.014 10.515-11.617 23.462-20.959 38.417-27.582 15.713-6.9669 32.745-10.508 50.437-10.479 17.668 0.0249 34.695 3.6406 50.414 10.654 14.955 6.6868 27.89 16.069 38.393 27.698 10.234 11.349 17.593 24.204 21.94 38.073 2.1939 7.0135 3.5712 14.119 4.1254 21.261 0.54833 7.0311 0.31524 14.068-0.68233 21.105-1.9489 13.718-6.6931 26.578-13.993 38.307-6.6868 10.777-15.3 20.218-25.54 28.159l0.0315 0.0118-103.35 79.356c-0.0877 0.0697-0.16429 0.1458-0.26325 0.2043-3.393 2.6053-7.9402 3.9018-12.57 3.895zm41.469-91.454c17.312 0.025 33.835-5.6543 46.83-16.198 6.6168-5.3915 11.986-11.77 15.884-18.847 3.9852-7.2003 6.4536-15.13 7.1888-23.509 0.72938-8.5307-0.3974-16.985-3.2912-24.968-2.9641-8.1397-7.7435-15.753-14.273-22.411-13.368-13.613-32.069-21.333-52.316-21.374-20.27-0.0374-38.971 7.6206-52.338 21.21-6.5293 6.6226-11.326 14.236-14.285 22.359-2.8941 7.9704-4.0263 16.437-3.2794 24.979 0.7119 8.3556 3.1929 16.315 7.1665 23.527 3.8977 7.0777 9.2598 13.484 15.894 18.899 12.983 10.584 29.519 16.31 46.819 16.333zm1.493-21.094c-11.746 0-22.499-4.1371-30.498-10.906-8.1455-6.891-13.555-16.613-14.173-27.641-0.61847-11.331 3.9268-21.857 11.921-29.664 8.1514-7.9413 19.762-12.93 32.751-12.93 12.983 0 24.571 4.9891 32.722 12.93 7.9996 7.8071 12.551 18.333 11.932 29.676-0.62432 11.016-6.0219 20.738-14.173 27.629-7.9938 6.7685-18.753 10.906-30.481 10.906z" fill="#d8a1ff"/><path d="m3e-4 486.88v-486.88h499.36v486.88zm26.806-26.643h445.75v-433.59h-445.75z" fill="#d8a1ff" stroke-width=".83887"/></g></svg>
