<svg width="2500" height="2438" version="1.1" viewBox="0 130.75 595.28 580.4" xmlns="http://www.w3.org/2000/svg" xmlns:xlink="http://www.w3.org/1999/xlink">
 <radialGradient id="a" cx="-183.73" cy="329.01" r=".76" gradientTransform="matrix(474.46 1.1109e-8 0 437.92 87358 -143789)" gradientUnits="userSpaceOnUse">
  <stop stop-color="#0c3e3e" offset="0"/>
  <stop stop-color="#072525" offset="1"/>
 </radialGradient>
 <path d="m24.803 155.55h545.67v530.79h-545.67v-530.79z" fill="url(#a)"/>
 <path transform="matrix(.23811 0 0 .23811 0 130.69)" d="m0 0.24805v2437.5h2500v-2437.5h-2500zm134.2 133.38h2231.6v2170.7h-2231.6v-2170.7z" fill="#30f0f0" stroke-width="4.1997"/>
 <path d="m98.708 202.65c-0.0617-9.5e-4 -0.1221 9.5e-4 -0.18184 7e-3 -1.4354 0.11695-2.2994 1.9064-1.4938 3.0829 24.935 36.293 80.133 91.502 123.78 133.61 5.105-5.0943 10.097-8.9053 15.093-12.777-43.505-44.015-88.3-88.111-135.8-123.39-0.49436-0.36524-0.97111-0.52382-1.4031-0.53157zm235.88 93.516c-36.249 0-69.742 11.772-96.885 31.688 4.7642 4.8199 9.5359 9.624 14.288 14.468 8.024 8.1799 16.035 16.383 24.051 24.571 8.0154 8.1878 16.035 16.36 24.076 24.479l-12.574 11.554s-2.2241-1.9997-6.2058-5.6286c-3.9817-3.629-9.7207-8.8874-16.751-15.406-3.5149-3.2591-7.3525-6.8332-11.454-10.676-4.1019-3.8427-8.4685-7.954-13.041-12.288-4.5723-4.3339-9.3501-8.89-14.276-13.623-1.3536-1.3005-2.7918-2.7083-4.1665-4.0344-31.424 29.872-51.016 72.075-51.016 118.86 0 90.554 73.402 163.96 163.96 163.96s163.96-73.403 163.96-163.96c0-90.554-73.408-163.96-163.96-163.96zm-32.356 99.135 36.432 39.311-9.5821 7.9293-38.819-35.988zm38.849 41.426s18.382 5.5421 21.336 6.5843c2.9546 1.0357 65.483 26.943 52.054 74.193-13.435 47.256-40.248 38.057-40.248 38.057s25.102-14.969 15.837-28.62c-9.1298-13.423-13.916-14.93-23.162-19.789-12.431-5.6473-41.671-22.831-35.802-61.467z" fill="#31f0f0"/>
</svg>
