<?xml version="1.0" encoding="UTF-8" standalone="no"?>
<svg
   xmlns:dc="http://purl.org/dc/elements/1.1/"
   xmlns:cc="http://creativecommons.org/ns#"
   xmlns:rdf="http://www.w3.org/1999/02/22-rdf-syntax-ns#"
   xmlns:svg="http://www.w3.org/2000/svg"
   xmlns="http://www.w3.org/2000/svg"
   xmlns:sodipodi="http://sodipodi.sourceforge.net/DTD/sodipodi-0.dtd"
   xmlns:inkscape="http://www.inkscape.org/namespaces/inkscape"
   width="2500"
   height="2438"
   version="1.1"
   viewBox="0 130.75 595.28 580.4"
   id="svg43"
   sodipodi:docname="cinelerra.svg"
   inkscape:version="0.92.2 2405546, 2018-03-11">
  <metadata
     id="metadata49">
    <rdf:RDF>
      <cc:Work
         rdf:about="">
        <dc:format>image/svg+xml</dc:format>
        <dc:type
           rdf:resource="http://purl.org/dc/dcmitype/StillImage" />
        <dc:title></dc:title>
      </cc:Work>
    </rdf:RDF>
  </metadata>
  <defs
     id="defs47" />
  <sodipodi:namedview
     pagecolor="#ffffff"
     bordercolor="#666666"
     borderopacity="1"
     objecttolerance="10"
     gridtolerance="10"
     guidetolerance="10"
     inkscape:pageopacity="0"
     inkscape:pageshadow="2"
     inkscape:window-width="1920"
     inkscape:window-height="1009"
     id="namedview45"
     showgrid="false"
     inkscape:snap-global="false"
     inkscape:zoom="0.19360131"
     inkscape:cx="1041.4337"
     inkscape:cy="1153.3589"
     inkscape:window-x="0"
     inkscape:window-y="24"
     inkscape:window-maximized="1"
     inkscape:current-layer="svg43" />
  <radialGradient
     id="a"
     cx="-183.69"
     cy="328.97"
     r=".76"
     gradientTransform="matrix(545.67 0 0 528.31 100439 -173525)"
     gradientUnits="userSpaceOnUse">
    <stop
       stop-color="#4b2d4f"
       stop-opacity=".98"
       offset="0"
       id="stop2" />
    <stop
       stop-color="#180024"
       offset="1"
       id="stop4" />
  </radialGradient>
  <path
     d="m24.803 155.55h545.67v530.79h-545.67v-530.79z"
     fill="url(#a)"
     id="path7" />
  <path
     d="m0 130.75v580.4h595.28v-580.4zm31.955 31.76h531.37v516.88h-531.37z"
     fill="#e579ff"
     id="path41"
     style="fill:#d396c4;fill-opacity:1" />
  <path
     style="color:#000000;font-style:normal;font-variant:normal;font-weight:normal;font-stretch:normal;font-size:medium;line-height:normal;font-family:sans-serif;font-variant-ligatures:normal;font-variant-position:normal;font-variant-caps:normal;font-variant-numeric:normal;font-variant-alternates:normal;font-feature-settings:normal;text-indent:0;text-align:start;text-decoration:none;text-decoration-line:none;text-decoration-style:solid;text-decoration-color:#000000;letter-spacing:normal;word-spacing:normal;text-transform:none;writing-mode:lr-tb;direction:ltr;text-orientation:mixed;dominant-baseline:auto;baseline-shift:baseline;text-anchor:start;white-space:normal;shape-padding:0;clip-rule:nonzero;display:inline;overflow:visible;visibility:visible;opacity:1;isolation:auto;mix-blend-mode:normal;color-interpolation:sRGB;color-interpolation-filters:linearRGB;solid-color:#000000;solid-opacity:1;vector-effect:none;fill:#d396c4;fill-opacity:1;fill-rule:nonzero;stroke:none;stroke-width:13.60437584;stroke-linecap:butt;stroke-linejoin:round;stroke-miterlimit:4;stroke-dasharray:none;stroke-dashoffset:0;stroke-opacity:1;color-rendering:auto;image-rendering:auto;shape-rendering:auto;text-rendering:auto;enable-background:accumulate"
     d="m 138.72489,213.05425 c -10.206,-0.0187 -19.8636,3.76523 -29.43427,6.84944 -6.47714,2.58431 -11.161431,9.12867 -11.287535,16.13907 -0.357185,7.88849 2.437125,15.46122 4.826885,22.85131 1.72805,5.40926 4.10697,10.65782 5.1408,16.26184 0.19663,9.87252 -1.22161,19.68751 -2.19928,29.49938 -4.30073,37.94925 -10.04758,75.74013 -13.958851,113.7408 -0.580471,7.26027 -1.583206,14.54817 -1.144518,21.84213 1.052683,13.14786 8.5916,24.94488 18.276489,33.5417 13.78025,12.26077 31.38813,19.25166 49.09153,23.64004 25.65012,6.1847 52.28739,7.02583 78.53278,5.51053 -2.19859,16.70356 -4.63275,33.47648 -4.72596,50.33976 0.11174,5.1631 3.16765,10.07057 7.70283,12.52553 9.03018,5.64196 19.06415,9.38489 28.82272,13.54216 20.28169,8.40943 40.86109,16.454 59.85633,27.53216 3.39984,1.94354 6.61487,4.26415 9.84351,6.41602 1.03671,-0.31067 0.18749,-1.84387 0.16136,-2.68295 -1.9592,-8.2412 -8.31322,-14.50459 -14.7513,-19.57636 -15.94633,-12.17304 -35.01568,-19.05915 -53.34639,-26.7169 -7.54427,-3.25713 -15.27351,-6.18436 -22.28486,-10.51646 -1.53084,-0.73736 -1.12201,-2.67456 -1.33381,-4.06511 0.13151,-11.54989 1.72589,-23.0502 3.10429,-34.5346 3.08532,-23.73796 6.84915,-47.38927 10.84293,-70.99552 2.63088,-1.01284 5.22592,-2.12522 7.7405,-3.40146 1.69524,13.85088 3.51813,27.73698 6.85503,41.30312 1.18289,5.07081 3.68145,9.66485 6.42205,14.04304 5.4501,9.05847 12.3017,18.08461 22.30021,22.36112 5.3759,2.35383 11.41514,3.15746 17.21755,2.26952 1.03728,-0.8578 -0.8783,-2.05476 -1.1873,-2.99455 -3.05426,-4.62132 -6.751,-8.82921 -11.23917,-12.10837 -5.29545,-4.20856 -9.85748,-9.28987 -13.37892,-15.08709 -2.11084,-3.47877 -4.55949,-6.84412 -5.46496,-10.88479 -3.69919,-12.83283 -5.20803,-26.13062 -6.91779,-39.34103 -0.66177,-6.32018 -0.95752,-12.67927 -1.79423,-18.98572 -1.17606,-10.17905 -2.06171,-20.39146 -1.99557,-30.64296 0.60086,-10.50034 -3.83007,-20.35779 -7.77723,-29.82725 -5.19051,-11.81645 -10.43312,-23.6168 -15.46659,-35.49263 -3.00398,-6.45198 -6.99526,-12.66107 -12.70737,-17.03803 5.34073,-0.36199 10.73866,1.82575 14.38251,5.78537 6.68571,7.05365 9.51927,16.64653 11.79352,25.84957 4.01076,15.66064 9.58577,30.88609 16.28372,45.59101 3.85089,8.53701 7.42247,17.36813 8.37623,26.74155 1.13172,10.25077 0.61881,20.66405 0.6255,30.99968 0.0154,10.44914 -0.72696,21.00881 1.05059,31.36195 1.16523,6.96023 4.74505,13.56045 10.39971,17.87654 7.32623,5.7296 16.22636,8.85091 24.73808,12.34556 4.10083,1.48877 8.16886,3.1657 12.40416,4.22368 4.27694,0.73017 8.53269,-3.07922 8.27391,-7.41262 -0.0173,-3.49551 -2.8476,-6.46174 -6.20905,-7.1015 -11.0969,-3.72407 -22.24869,-8.01042 -31.70702,-15.05594 -2.84096,-2.49503 -3.47215,-6.50705 -3.97535,-10.05325 -1.03372,-10.42569 -0.30693,-20.94722 -0.35672,-31.4201 -0.095,-2.58001 0.24209,0.005 0.4767,1.14499 2.19723,11.52488 5.46596,23.28838 12.80874,32.68506 4.37781,5.99495 8.56731,12.154 13.4152,17.78537 1.05727,0.37403 1.34038,-1.28918 1.86861,-1.94209 2.99938,-5.75228 1.30774,-12.52145 -1.11567,-18.14861 -3.20089,-7.2567 -7.07171,-14.24662 -9.43286,-21.83746 -5.22908,-15.77159 -6.33109,-32.45881 -7.68842,-48.91249 -0.77027,-8.82962 -0.88792,-17.72806 -2.03419,-26.52623 -2.73636,-18.1754 -9.82188,-35.44008 -18.65319,-51.45963 -2.92392,-5.20598 -6.11398,-10.27221 -9.7184,-15.0364 9.87207,4.14942 18.81013,11.12803 23.97535,20.6297 3.58909,6.36364 5.42069,13.48018 6.25137,20.70318 5.88277,38.60424 13.98222,76.97599 16.15349,116.01312 0.99465,1.10834 2.35286,-1.22137 3.44239,-1.61983 2.1858,-1.70617 4.61954,-3.20813 6.65459,-5.03847 -0.0475,-5.36295 -0.60326,-10.81265 -0.90269,-16.20512 -0.34859,-5.03981 -0.72226,-10.07802 -1.12312,-15.11406 11.7047,-3.59797 23.85677,-6.14791 36.1279,-6.00676 11.15819,2.93911 21.34443,8.58001 31.64332,13.6417 26.59973,13.65836 52.68416,28.28232 78.98389,42.50299 1.42868,-0.054 0.0539,-1.83753 -0.11486,-2.62576 -5.089,-12.05784 -15.37415,-20.93271 -26.02955,-28.04326 -14.45571,-9.55853 -30.44819,-16.38439 -45.6924,-24.53065 -9.99735,-5.04017 -20.02563,-10.11662 -30.53646,-14.01001 -1.0762,-0.35846 -2.16773,-0.67326 -3.27545,-0.91897 -2.05836,-41.69253 -4.11672,-83.38507 -6.1751,-125.07762 35.57017,0.7476 71.14032,1.4954 106.71046,2.24299 l 41.84957,1.81328 4.94642,-51.1099 c 0.2133,5.6e-4 0.42662,0.001 0.63993,0.002 1.061,-0.80449 0.69143,-2.66496 1.18915,-3.87816 0.64155,-3.44451 1.5599,-6.8892 2.03931,-10.33089 -0.97938,-0.79213 -2.71902,-0.12451 -3.98418,-0.3502 l -375.27708,-0.9836 c -5.39414,0 -12.02344,-4.49153 -17.84445,-4.50646 z m 0.67201,14.57971 c 2.98832,-0.0296 6.26337,0.93014 7.9642,3.60284 3.1999,4.89785 3.54814,11.01118 3.66237,16.66831 -0.11044,18.49312 -2.04812,36.91355 -3.79073,55.31174 -3.38827,34.54338 -7.74295,68.99392 -10.68481,103.58245 -0.50188,7.79069 -1.39654,15.63691 -0.63202,23.43727 0.27023,2.56749 1.28004,5.11567 3.39961,6.71085 8.05675,7.17184 18.752,10.22331 29.04455,12.57948 24.73037,5.27925 50.11675,6.64378 75.34663,6.61273 -1.74895,10.67842 -3.43171,21.36765 -5.02314,32.07071 -26.39945,1.70248 -53.24671,1.04617 -79.03551,-5.4296 -14.93131,-3.8842 -29.88536,-9.8104 -41.55845,-20.23023 -7.25491,-6.49955 -13.03758,-15.61491 -13.00594,-25.69238 0.53748,-13.65703 2.36376,-27.22859 3.90932,-40.8083 4.02116,-33.76636 8.9752,-67.42675 12.46135,-101.25759 0.54927,-6.93062 1.49919,-13.8924 1.0436,-20.85294 -1.4378,-11.56118 -7.7297,-21.83553 -9.63749,-33.26545 -0.24229,-2.16233 -0.66563,-4.64143 0.36042,-6.66156 3.24008,-1.36863 6.74011,-2.12623 10.08674,-3.23079 5.25148,-1.47926 10.64375,-3.12658 16.0893,-3.14754 z m 189.12651,47.97631 35.20941,1.52587 c 2.10417,42.61863 4.20813,85.23732 6.3123,127.85591 -9.41988,0.77596 -18.7276,2.67331 -27.78888,5.33707 -2.31676,-24.55373 -4.96738,-49.13537 -9.88584,-73.32455 -1.12668,-5.00091 -2.81077,-9.88173 -5.08498,-14.47833 0.39474,-15.63849 0.87761,-31.27773 1.23799,-46.91597 z m -14.63179,3.33636 c -0.2248,8.38414 -0.44958,16.76829 -0.67436,25.15244 -8.81767,-7.99061 -19.92461,-12.85114 -31.11454,-16.51344 -4.15115,-1.15881 -8.53189,-2.54425 -12.87293,-1.73608 -2.73727,1.16254 -5.64426,2.04644 -8.65852,1.8849 -6.10279,-0.12721 -12.12404,2.21562 -16.82504,6.04814 -5.91415,0.0137 -11.80249,1.50538 -17.14081,3.95443 -2.14675,-2.2566 -5.60657,-2.6053 -8.42367,-1.53378 -15.12633,4.22649 -29.78576,10.97305 -41.87935,21.11477 -9.31964,7.83704 -16.73437,18.41563 -19.14429,30.49647 2.40617,-22.25481 4.86965,-44.50645 6.74619,-66.81367 49.99577,-0.68473 99.99154,-1.36946 149.98732,-2.05418 z m -43.73496,27.58518 0.0953,0.0837 c 6.71593,6.37581 11.66932,14.31863 16.29022,22.29789 7.57939,13.67716 13.47269,28.43824 16.21766,43.84563 1.16866,6.95811 1.21688,14.36428 1.76072,21.1929 -3.94575,-11.62691 -9.81052,-22.48744 -13.88352,-34.06954 -3.7196,-9.93753 -6.44886,-20.20338 -9.14498,-30.46393 -2.41414,-8.19331 -5.8606,-16.24844 -11.33544,-22.88666 z m -79.58474,21.28684 -0.0809,0.1851 c -4.00647,9.18897 -5.26554,19.21709 -6.78806,29.03385 -0.091,0.48697 -0.26762,1.47356 -0.50971,0.51623 -1.69065,-5.20765 -2.79845,-10.60045 -3.90513,-15.95491 -0.54511,-4.14701 2.72583,-7.39992 5.6068,-9.87421 1.77355,-1.46514 3.69669,-2.73944 5.67702,-3.90606 z m -34.45695,29.59427 -0.003,0.23811 -0.002,0.19811 c -0.19631,10.2982 3.34968,20.1122 6.47833,29.76912 3.95988,11.35111 8.38421,22.83606 15.84607,32.4009 3.04227,3.86091 6.9613,7.34704 11.62191,8.93944 0.31324,2.67916 0.10755,6.05749 -2.376,7.67213 -1.21006,0.25397 -2.01266,1.67679 -3.32148,1.05941 -10.6716,-1.79541 -21.46299,-4.17275 -31.24057,-8.98547 -0.94231,-0.58942 -2.21741,-1.02557 -2.86758,-1.86956 -0.23671,-9.31637 0.8425,-18.63829 1.58958,-27.93399 1.27846,-13.84019 2.78132,-27.66533 4.27486,-41.4882 z m 42.35929,47.0085 c 0.18323,0.35376 0.36647,0.70752 0.5497,1.06129 6.89479,13.00112 15.72878,25.47453 27.94747,33.9677 1.0005,0.69852 2.18825,1.40871 3.13824,2.00302 -9.09146,-0.21871 -18.16981,-0.68617 -27.22895,-1.50728 2.74716,-6.46324 2.02779,-13.75558 0.12464,-20.34183 -1.38177,-5.09812 -2.93505,-10.14822 -4.5311,-15.1829 z"
     id="path884"
     inkscape:connector-curvature="0" />
</svg>
