<svg width="2500" height="2438" version="1.1" viewBox="0 130.75 595.28 580.4" xmlns="http://www.w3.org/2000/svg">
 <radialGradient id="a" cx="-183.69" cy="328.97" r=".76" gradientTransform="matrix(545.67 0 0 528.31 100439 -173525)" gradientUnits="userSpaceOnUse">
  <stop stop-color="#4b2d4f" stop-opacity=".98" offset="0"/>
  <stop stop-color="#180024" offset="1"/>
 </radialGradient>
 <path d="m24.803 155.55h545.67v530.79h-545.67v-530.79z" fill="url(#a)"/>
 <path d="m0 130.75v580.4h595.28v-580.4zm31.955 31.76h531.37v516.88h-531.37z" fill="#d396c4"/>
 <path d="m138.72 213.05c-10.206-0.0187-19.864 3.7652-29.434 6.8494-6.4771 2.5843-11.161 9.1287-11.288 16.139-0.35718 7.8885 2.4371 15.461 4.8269 22.851 1.728 5.4093 4.107 10.658 5.1408 16.262 0.19663 9.8725-1.2216 19.688-2.1993 29.499-4.3007 37.949-10.048 75.74-13.959 113.74-0.58047 7.2603-1.5832 14.548-1.1445 21.842 1.0527 13.148 8.5916 24.945 18.276 33.542 13.78 12.261 31.388 19.252 49.092 23.64 25.65 6.1847 52.287 7.0258 78.533 5.5105-2.1986 16.704-4.6328 33.476-4.726 50.34 0.11174 5.1631 3.1676 10.071 7.7028 12.526 9.0302 5.642 19.064 9.3849 28.823 13.542 20.282 8.4094 40.861 16.454 59.856 27.532 3.3998 1.9435 6.6149 4.2642 9.8435 6.416 1.0367-0.31067 0.18749-1.8439 0.16136-2.683-1.9592-8.2412-8.3132-14.505-14.751-19.576-15.946-12.173-35.016-19.059-53.346-26.717-7.5443-3.2571-15.274-6.1844-22.285-10.516-1.5308-0.73736-1.122-2.6746-1.3338-4.0651 0.13151-11.55 1.7259-23.05 3.1043-34.535 3.0853-23.738 6.8492-47.389 10.843-70.996 2.6309-1.0128 5.2259-2.1252 7.7405-3.4015 1.6952 13.851 3.5181 27.737 6.855 41.303 1.1829 5.0708 3.6814 9.6648 6.422 14.043 5.4501 9.0585 12.302 18.085 22.3 22.361 5.3759 2.3538 11.415 3.1575 17.218 2.2695 1.0373-0.8578-0.8783-2.0548-1.1873-2.9946-3.0543-4.6213-6.751-8.8292-11.239-12.108-5.2954-4.2086-9.8575-9.2899-13.379-15.087-2.1108-3.4788-4.5595-6.8441-5.465-10.885-3.6992-12.833-5.208-26.131-6.9178-39.341-0.66177-6.3202-0.95752-12.679-1.7942-18.986-1.1761-10.179-2.0617-20.391-1.9956-30.643 0.60086-10.5-3.8301-20.358-7.7772-29.827-5.1905-11.816-10.433-23.617-15.467-35.493-3.004-6.452-6.9953-12.661-12.707-17.038 5.3407-0.36199 10.739 1.8258 14.383 5.7854 6.6857 7.0536 9.5193 16.647 11.794 25.85 4.0108 15.661 9.5858 30.886 16.284 45.591 3.8509 8.537 7.4225 17.368 8.3762 26.742 1.1317 10.251 0.61881 20.664 0.6255 31 0.0154 10.449-0.72696 21.009 1.0506 31.362 1.1652 6.9602 4.745 13.56 10.4 17.877 7.3262 5.7296 16.226 8.8509 24.738 12.346 4.1008 1.4888 8.1689 3.1657 12.404 4.2237 4.2769 0.73017 8.5327-3.0792 8.2739-7.4126-0.0173-3.4955-2.8476-6.4617-6.209-7.1015-11.097-3.7241-22.249-8.0104-31.707-15.056-2.841-2.495-3.4722-6.507-3.9754-10.053-1.0337-10.426-0.30693-20.947-0.35672-31.42-0.095-2.58 0.24209 5e-3 0.4767 1.145 2.1972 11.525 5.466 23.288 12.809 32.685 4.3778 5.995 8.5673 12.154 13.415 17.785 1.0573 0.37403 1.3404-1.2892 1.8686-1.9421 2.9994-5.7523 1.3077-12.521-1.1157-18.149-3.2009-7.2567-7.0717-14.247-9.4329-21.837-5.2291-15.772-6.3311-32.459-7.6884-48.912-0.77027-8.8296-0.88792-17.728-2.0342-26.526-2.7364-18.175-9.8219-35.44-18.653-51.46-2.9239-5.206-6.114-10.272-9.7184-15.036 9.8721 4.1494 18.81 11.128 23.975 20.63 3.5891 6.3636 5.4207 13.48 6.2514 20.703 5.8828 38.604 13.982 76.976 16.153 116.01 0.99465 1.1083 2.3529-1.2214 3.4424-1.6198 2.1858-1.7062 4.6195-3.2081 6.6546-5.0385-0.0475-5.363-0.60326-10.813-0.90269-16.205-0.34859-5.0398-0.72226-10.078-1.1231-15.114 11.705-3.598 23.857-6.1479 36.128-6.0068 11.158 2.9391 21.344 8.58 31.643 13.642 26.6 13.658 52.684 28.282 78.984 42.503 1.4287-0.054 0.0539-1.8375-0.11486-2.6258-5.089-12.058-15.374-20.933-26.03-28.043-14.456-9.5585-30.448-16.384-45.692-24.531-9.9974-5.0402-20.026-10.117-30.536-14.01-1.0762-0.35846-2.1677-0.67326-3.2754-0.91897-2.0584-41.693-4.1167-83.385-6.1751-125.08 35.57 0.7476 71.14 1.4954 106.71 2.243l41.85 1.8133 4.9464-51.11c0.2133 5.6e-4 0.42662 1e-3 0.63993 2e-3 1.061-0.80449 0.69143-2.665 1.1892-3.8782 0.64155-3.4445 1.5599-6.8892 2.0393-10.331-0.97938-0.79213-2.719-0.12451-3.9842-0.3502l-375.28-0.9836c-5.3941 0-12.023-4.4915-17.844-4.5065zm0.67201 14.58c2.9883-0.0296 6.2634 0.93014 7.9642 3.6028 3.1999 4.8978 3.5481 11.011 3.6624 16.668-0.11044 18.493-2.0481 36.914-3.7907 55.312-3.3883 34.543-7.743 68.994-10.685 103.58-0.50188 7.7907-1.3965 15.637-0.63202 23.437 0.27023 2.5675 1.28 5.1157 3.3996 6.7108 8.0568 7.1718 18.752 10.223 29.045 12.579 24.73 5.2792 50.117 6.6438 75.347 6.6127-1.749 10.678-3.4317 21.368-5.0231 32.071-26.399 1.7025-53.247 1.0462-79.036-5.4296-14.931-3.8842-29.885-9.8104-41.558-20.23-7.2549-6.4996-13.038-15.615-13.006-25.692 0.53748-13.657 2.3638-27.229 3.9093-40.808 4.0212-33.766 8.9752-67.427 12.461-101.26 0.54927-6.9306 1.4992-13.892 1.0436-20.853-1.4378-11.561-7.7297-21.836-9.6375-33.265-0.24229-2.1623-0.66563-4.6414 0.36042-6.6616 3.2401-1.3686 6.7401-2.1262 10.087-3.2308 5.2515-1.4793 10.644-3.1266 16.089-3.1475zm189.13 47.976 35.209 1.5259c2.1042 42.619 4.2081 85.237 6.3123 127.86-9.4199 0.77596-18.728 2.6733-27.789 5.3371-2.3168-24.554-4.9674-49.135-9.8858-73.325-1.1267-5.0009-2.8108-9.8817-5.085-14.478 0.39474-15.638 0.87761-31.278 1.238-46.916zm-14.632 3.3364c-0.2248 8.3841-0.44958 16.768-0.67436 25.152-8.8177-7.9906-19.925-12.851-31.115-16.513-4.1512-1.1588-8.5319-2.5442-12.873-1.7361-2.7373 1.1625-5.6443 2.0464-8.6585 1.8849-6.1028-0.12721-12.124 2.2156-16.825 6.0481-5.9142 0.0137-11.802 1.5054-17.141 3.9544-2.1468-2.2566-5.6066-2.6053-8.4237-1.5338-15.126 4.2265-29.786 10.973-41.879 21.115-9.3196 7.837-16.734 18.416-19.144 30.496 2.4062-22.255 4.8696-44.506 6.7462-66.814 49.996-0.68473 99.992-1.3695 149.99-2.0542zm-43.735 27.585 0.0953 0.0837c6.7159 6.3758 11.669 14.319 16.29 22.298 7.5794 13.677 13.473 28.438 16.218 43.846 1.1687 6.9581 1.2169 14.364 1.7607 21.193-3.9458-11.627-9.8105-22.487-13.884-34.07-3.7196-9.9375-6.4489-20.203-9.145-30.464-2.4141-8.1933-5.8606-16.248-11.335-22.887zm-79.585 21.287-0.0809 0.1851c-4.0065 9.189-5.2655 19.217-6.7881 29.034-0.091 0.48697-0.26762 1.4736-0.50971 0.51623-1.6906-5.2076-2.7984-10.6-3.9051-15.955-0.54511-4.147 2.7258-7.3999 5.6068-9.8742 1.7736-1.4651 3.6967-2.7394 5.677-3.9061zm-34.457 29.594-3e-3 0.23811-2e-3 0.19811c-0.19631 10.298 3.3497 20.112 6.4783 29.769 3.9599 11.351 8.3842 22.836 15.846 32.401 3.0423 3.8609 6.9613 7.347 11.622 8.9394 0.31324 2.6792 0.10755 6.0575-2.376 7.6721-1.2101 0.25397-2.0127 1.6768-3.3215 1.0594-10.672-1.7954-21.463-4.1728-31.241-8.9855-0.94231-0.58942-2.2174-1.0256-2.8676-1.8696-0.23671-9.3164 0.8425-18.638 1.5896-27.934 1.2785-13.84 2.7813-27.665 4.2749-41.488zm42.359 47.008c0.18323 0.35376 0.36647 0.70752 0.5497 1.0613 6.8948 13.001 15.729 25.475 27.947 33.968 1.0005 0.69852 2.1882 1.4087 3.1382 2.003-9.0915-0.21871-18.17-0.68617-27.229-1.5073 2.7472-6.4632 2.0278-13.756 0.12464-20.342-1.3818-5.0981-2.935-10.148-4.5311-15.183z" color="#000000" color-rendering="auto" dominant-baseline="auto" fill="#d396c4" image-rendering="auto" shape-rendering="auto" solid-color="#000000" style="font-feature-settings:normal;font-variant-alternates:normal;font-variant-caps:normal;font-variant-ligatures:normal;font-variant-numeric:normal;font-variant-position:normal;isolation:auto;mix-blend-mode:normal;shape-padding:0;text-decoration-color:#000000;text-decoration-line:none;text-decoration-style:solid;text-indent:0;text-orientation:mixed;text-transform:none;white-space:normal"/>
</svg>
