<svg width="2500" height="2438" version="1.1" viewBox="0 130.75 595.28 580.4" xmlns="http://www.w3.org/2000/svg">
 <radialGradient id="a" cx="-183.69" cy="328.97" r=".76" gradientTransform="matrix(545.67 0 0 528.31 100439 -173525)" gradientUnits="userSpaceOnUse">
  <stop stop-color="#39464d" stop-opacity=".98" offset="0"/>
  <stop stop-color="#05151f" offset="1"/>
 </radialGradient>
 <path d="m24.803 155.55h545.67v530.79h-545.67v-530.79z" fill="url(#a)"/>
 <path transform="matrix(.23811 0 0 .23811 0 130.69)" d="m0 0.24805v2437.5h2500v-2437.5h-2500zm134.2 133.38h2231.6v2170.7h-2231.6v-2170.7zm1156.7 321.63c-218.87-0.23728-432.79 93.757-580.24 265.44l358.24 417.3 254.32-682.02c-10.781-0.46945-21.556-0.70903-32.32-0.72071zm132.89 32.83-182.28 518.89 717.81-120.76c-106.32-204.18-302.19-354.22-535.53-398.13zm-791.21 303.65c-123.67 194.17-155.67 438.81-77.027 662.85l540.51-101.59-463.49-561.26zm1349.2 197.63-540.52 101.59 463.49 561.26c123.67-194.17 155.67-438.81 77.027-662.85zm-713.12 127.46a105.16 105.16 0 0 0-105.15 105.16 105.16 105.16 0 0 0 105.15 105.15 105.16 105.16 0 0 0 105.16-105.15 105.16 105.16 0 0 0-105.16-105.16zm199.77 189.13-254.32 682.02c229.99 10.015 457.86-84.593 612.56-264.72l-358.24-417.3zm-172.61 131.02-717.81 120.76c106.32 204.18 302.19 354.22 535.53 398.13l182.28-518.89z" fill="#aad1eb" stroke-width="4.1997"/>
</svg>
