<svg width="2500" height="2438" version="1.1" viewBox="0 130.75 595.28 580.4" xmlns="http://www.w3.org/2000/svg">
 <radialGradient id="a" cx="-183.73" cy="329.01" r=".76" gradientTransform="matrix(474.46 1.1109e-8 0 437.92 87358 -143789)" gradientUnits="userSpaceOnUse">
  <stop stop-color="#00303e" offset="0"/>
  <stop stop-color="#001d25" offset="1"/>
 </radialGradient>
 <path d="m24.803 155.55h545.67v530.79h-545.67v-530.79z" fill="url(#a)"/>
 <path transform="matrix(.23811 0 0 .23811 0 130.69)" d="m0 0.24805v2437.5h2500v-2437.5h-2500zm134.2 133.38h2231.6v2170.7h-2231.6v-2170.7z" fill="#00cafe" stroke-width="4.1997"/>
 <path d="m467.79 258.87c-1.8872-0.1832-4.222 1.9767-6.4167 6.9789-3.9699 9.0484-28.064 63.579-122.63 72.855-8.2693-7.9324-19.009-13.271-31.08-14.567-15.105-1.6214-29.41 3.4002-40.175 12.754-8.8645-1.857-16.837-4.7487-23.992-8.3092-4.1292-3.641-8.8973-6.5628-14.133-8.5545-29.056-20.989-39.957-51.712-39.957-51.712l-7.4836 61.259c-8.141 7.6383-13.689 18.255-14.888 30.389-0.74708 7.4972 0.25047 14.778 2.6438 21.421-2.5252-3.8909-5.5022-7.6362-8.9084-11.147-10.007-10.328-21.99-16.856-33.779-18.947-11.789-2.0899-23.806 0.44282-32.078 8.9243-8.272 8.481-10.769 20.829-8.7721 32.959 1.997 12.13 8.3047 24.473 18.319 34.795 10.007 10.326 21.988 16.853 33.776 18.942 1.0733 0.19035 2.1489 0.34133 3.2231 0.45379 48.666 53.071 161.94 113.68 242.21 67.966 12.392 8.3851 25.608 16.208 37.995 21.352 1.7827-8.224 6.6347-13.123 11.302-18.224-7.5945-7.054-16.777-13.832-26.373-20.084 39.209-36.693 65.988-107.6 65.027-230.57-0.1349-5.5007-1.6988-8.7182-3.8378-8.9257zm-161.16 75.69c23.996 2.5758 41.362 24.546 38.901 49.215l-5.7e-4 6e-3c-2.4358 24.672-23.751 42.489-47.748 39.913-23.805-2.5553-41.083-24.198-38.953-48.628 0.35046-1.6888 0.61813-3.4123 0.79159-5.1689 0.0155-0.15572 0.026-0.31127 0.0394-0.46693 4.637-22.008 24.641-37.268 46.967-34.871zm-89.609-6.8194c19.723 2.1173 34.065 19.909 32.545 40.113-0.3606 1.8098-0.63668 3.6544-0.8223 5.5312l-5.8e-4 6e-3c-2e-3 0.0273-5e-3 0.0546-8e-3 0.0822-4.0455 18.129-20.609 30.63-39.097 28.646-20.034-2.1505-34.518-20.473-32.465-41.068l2.9e-4 -3e-3c2.0355-20.598 19.813-35.457 39.847-33.306zm7.9218 24.158a20.518 19.951 87.606 0 0-22.445 18.214 20.518 19.951 87.606 1 0 39.697 4.2613 20.518 19.951 87.606 0 0-17.251-22.475zm89.465 11.786a24.086 23.42 87.602 0 0-26.358 21.371 24.088 23.421 87.595 1 0 46.602 5.0028 24.086 23.42 87.602 0 0-20.243-26.373zm-192.81 0.77854c1.0267 0.0861 2.0794 0.22402 3.156 0.41494l7.9e-4 8e-5c8.6144 1.5273 18.353 6.629 26.54 15.079l3e-3 3e-4c8.1936 8.4456 13.122 18.476 14.582 27.339 1.4593 8.8633-0.37121 16.128-5.033 20.908-4.6619 4.7797-11.734 6.6411-20.349 5.1138-8.6146-1.5271-18.352-6.6281-26.54-15.078l-3e-3 -4e-3c-8.1936-8.4456-13.123-18.472-14.583-27.335-1.4593-8.8634 0.37224-16.132 5.0342-20.912 4.0791-4.1824 10.004-6.1278 17.192-5.5258zm215.9 74.701s23.184 9.3775 30.479 21.429c4.062 6.7105 3.9999 11.634 2.5265 17.109-17.522-8.9336-30.878-14.439-30.878-14.439-0.58018-0.35708-1.1385-0.65577-1.6815-0.91788 4.6812-1.9904 8.8635-4.2495 12.63-6.6465-4.6684-7.7177-13.078-16.535-13.078-16.535zm-9.3408 26.687c-0.2646 2.4792 0.7588 5.5679 3.3543 8.3352 0 0 2.3534 2.1538 6.2849 5.5753-24.256 10.194-63.309 1.6861-112.21-22.174 47.993 15.334 80.127 14.893 102.57 8.2631zm111.34 53.806c-6.029 3.0402-15.609 15.709-14.182 23.564l4.3763-1.1858 2.0569 2.5128 26.927 11.468c1.5752-6.0018 4.3186-8.8278 6.9692-11.907l-22.159-19.275-3.0834-0.6065zm49.075 21.532c-1.371-0.16513-2.8059-0.2585-4.3096-0.27792-25.852-0.33271-31.39 37.204-5.9566 50.457 24.501 12.766 46.955 27.868 46.955 27.868-7.5765-41.698-8.8124-74.688-36.689-78.046z" color="#000000" fill="#00cafe" fill-rule="evenodd" stroke-width=".99481"/>
</svg>
