<svg width="2500" height="2438" version="1.1" viewBox="0 130.75 595.28 580.4" xmlns="http://www.w3.org/2000/svg" xmlns:xlink="http://www.w3.org/1999/xlink">
 <radialGradient id="a" cx="-183.73" cy="329.01" r=".76" gradientTransform="matrix(474.46 1.1109e-8 0 437.92 87358 -143789)" gradientUnits="userSpaceOnUse">
  <stop stop-color="#00303e" offset="0"/>
  <stop stop-color="#001d25" offset="1"/>
 </radialGradient>
 <path d="m24.803 155.55h545.67v530.79h-545.67v-530.79z" fill="url(#a)"/>
 <path transform="matrix(.23811 0 0 .23811 0 130.69)" d="m0 0.24805v2437.5h2500v-2437.5h-2500zm134.2 133.38h2231.6v2170.7h-2231.6v-2170.7z" fill="#00cafe" stroke-width="4.1997"/>
 <path d="m438.16 246.7c-1.9319 0.0191-4.0818 2.3964-5.8036 7.5618-3.1146 9.3437-22.056 65.672-117 84.83-9.1826-6.9475-20.609-11.076-32.978-11.076-15.478 0-29.476 6.4665-39.45 16.831-9.1747-0.89297-17.549-2.9007-25.162-5.6544-4.553-3.1536-9.6814-5.5303-15.191-6.9403-31.573-17.624-45.716-46.768-45.716-46.768l-1.423 61.205c-7.4856 8.3946-12.043 19.452-12.037 31.546-3e-3 7.4728 1.741 14.547 4.8361 20.845-2.9518-3.5699-6.3471-6.9483-10.154-10.05-11.186-9.1262-23.992-14.296-36.155-15.109-12.163-0.81301-24.093 2.957-31.626 12.197-7.5336 9.2396-8.8225 21.682-5.5771 33.433 3.2454 11.751 10.883 23.256 22.075 32.375 11.185 9.1244 23.99 14.292 36.152 15.105 1.1074 0.0741 2.2132 0.10913 3.3136 0.10633 54.683 47.186 175.63 94.965 252.42 41.382 13.408 6.9576 27.595 13.274 40.672 17.034 0.97988-8.2992 5.4065-13.644 9.6248-19.168-8.4099-6.1527-18.402-11.865-28.761-17.015 36.061-40.337 56.078-113.1 42.728-234.27-0.69033-5.4105-2.5998-8.418-4.7894-8.3962zm-155.78 91.706c24.589 0 44.407 19.828 44.395 44.417v3e-3 3e-3c0.0131 24.589-19.806 44.417-44.395 44.417-24.393 0-44.089-19.515-44.388-43.833 0.18539-1.7025 0.28332-3.4306 0.28246-5.1813 8e-5 -0.15521-5e-3 -0.30972-7e-3 -0.46465 2.4867-22.195 21.233-39.362 44.111-39.362zm-91.541 2.761c20.211 0 36.542 16.028 37.034 36.114-0.18349 1.823-0.27783 3.6714-0.27708 5.5419v3e-3 3e-3c-3e-5 0.0273 7.1e-4 0.0544 7.6e-4 0.0819-2.2774 18.307-17.813 32.389-36.758 32.389-20.529 0-37.059-16.536-37.049-37.065v-3e-3c-9e-3 -20.529 16.52-37.065 37.049-37.065zm10.463 22.986a20.339 20.339 0 0 0-20.924 20.339 20.339 20.339 0 1 0 40.678 0 20.339 20.339 0 0 0-19.753-20.339zm91.895 2.1524a23.876 23.876 0 0 0-24.573 23.866 23.876 23.876 0 1 0 47.753 0 23.876 23.876 0 0 0-23.179-23.866zm-195.42 21.18c1.0496-0.0238 2.1309 7.9e-4 3.2416 0.0751h8e-4c8.8879 0.59426 19.275 4.5946 28.427 12.062h3e-3c9.1574 7.4617 15.164 16.832 17.536 25.418 2.3715 8.5864 1.2467 15.945-2.999 21.152-4.2458 5.2073-11.229 7.7916-20.118 7.1975-8.8881-0.59409-19.275-4.5937-28.427-12.061l-0.0031-3e-3c-9.1574-7.4616-15.165-16.828-17.536-25.414-2.3715-8.5865-1.246-15.949 2.9998-21.156 3.715-4.5564 9.526-7.1022 16.875-7.2695zm226.42 50.818s24.45 6.794 33.06 17.907c4.7937 6.1878 5.2262 11.05 4.2835 16.606-18.665-6.9549-32.76-10.971-32.76-10.971-0.62417-0.29073-1.2203-0.5262-1.7973-0.72717 4.546-2.4585 8.5591-5.1291 12.137-7.8918-5.5099-7.1169-14.923-14.922-14.923-14.922zm-6.7857 27.307c-0.0188 2.473 1.3297 5.4107 4.2398 7.865 0 0 2.6028 1.875 6.9334 4.833-23.567 12.621-64.02 8.365-116-9.9883 50.204 10.041 82.74 6.2051 104.83-2.7097zm118.3 41.278c-5.8068 3.6365-14.245 17.145-12.008 24.74l4.3179-1.6327 2.3384 2.2604 28.456 8.459c0.99318-6.0857 3.4903-9.1631 5.8679-12.48l-24.407-16.663-3.1873-0.27171zm51.924 16.04c-1.4067-0.0177-2.8709 0.0421-4.3975 0.18214-26.245 2.4086-28.083 40.014-0.96217 50.391 26.126 9.9964 50.412 22.512 50.412 22.512-11.878-40.32-16.451-72.724-45.053-73.085z" color="#000000" fill="#00cafe" fill-rule="evenodd"/>
</svg>
