<svg width="2500" height="2438" version="1.1" viewBox="0 130.75 595.28 580.4" xmlns="http://www.w3.org/2000/svg">
 <radialGradient id="a" cx="-183.73" cy="329.01" r=".76" gradientTransform="matrix(474.46 1.1109e-8 0 437.92 87358 -143789)" gradientUnits="userSpaceOnUse">
  <stop stop-color="#00303e" offset="0"/>
  <stop stop-color="#001d25" offset="1"/>
 </radialGradient>
 <path d="m24.803 155.55h545.67v530.79h-545.67v-530.79z" fill="url(#a)"/>
 <path transform="matrix(.23811 0 0 .23811 0 130.69)" d="m0 0.24805v2437.5h2500v-2437.5h-2500zm134.2 133.38h2231.6v2170.7h-2231.6v-2170.7z" fill="#00cafe" stroke-width="4.1997"/>
 <path d="m490.83 272.51c-1.8826-0.43791-4.5296 1.3856-7.4137 6.0451-5.217 8.4285-36.828 59.2-133.62 55.549-7.2993-8.9849-17.44-15.735-29.465-18.659-15.047-3.6586-30.171-0.62481-42.295 7.1835-8.7101-3.0445-16.381-6.9933-23.137-11.494-3.6874-4.1694-8.1163-7.7128-13.142-10.398-26.565-24.749-33.487-56.678-33.487-56.678l-15.723 59.696c-9.244 6.4644-16.265 16.233-19.093 28.096-1.7537 7.3289-1.7156 14.68-0.18219 21.589-2.0333-4.1992-4.5426-8.3155-7.5168-12.258-8.7365-11.595-19.975-19.693-31.609-23.366-11.634-3.6725-24.115-2.7947-33.603 4.4877-9.4886 7.2818-13.657 19.181-13.255 31.474 0.40198 12.293 5.1315 25.383 13.876 36.973 8.736 11.593 19.974 19.689 31.607 23.361 1.0592 0.33444 2.126 0.63018 3.1965 0.88754 42.106 59.208 148.49 134.66 235.7 100.26 11.405 9.9936 23.717 19.542 35.549 26.322 2.897-7.9086 8.4526-12.105 13.848-16.526-6.7344-8.0227-15.11-15.987-23.974-23.487 44.508-31.04 81.015-97.678 96.425-219.68 0.59649-5.47-0.55522-8.8712-2.689-9.3674zm-172.93 53.126c23.905 5.8122 38.526 29.945 32.753 54.06l-0.0014 6e-3c-5.7481 24.121-29.661 38.884-53.566 33.072-23.714-5.7659-38.29-29.563-32.883-53.485 0.57911-1.6261 1.0792-3.2979 1.4885-5.0153 0.0364-0.15222 0.0677-0.30497 0.10205-0.45741 7.6175-21.182 29.864-33.589 52.105-28.181zm-89.64-18.93c19.648 4.7774 31.77 24.359 27.542 44.176-0.60549 1.7447-1.1302 3.5354-1.5678 5.3702l-0.0014 6e-3c-6e-3 0.0267-0.0121 0.0535-0.0185 0.0805-6.5031 17.418-24.906 27.558-43.323 23.08-19.958-4.8526-32.153-24.979-27.334-45.112l7e-4 -3e-3c4.8009-20.138 24.744-32.45 44.702-27.597zm4.7865 25.019a20.339 20.52 0 0 0-25.107 15.003 20.339 20.52 0 1 0 39.546 9.6153 20.339 20.52 0 0 0-14.438-24.618zm88.833 23.833a23.876 24.089 0 0 0-29.481 17.6 23.876 24.09 0 1 0 46.424 11.288 23.876 24.089 0 0 0-16.942-28.888zm-194.94-25.418c1.026 0.22476 2.0714 0.50447 3.1338 0.83991l7.8e-4 1.8e-4c8.5013 2.6838 17.662 9.0627 24.81 18.55l3e-3 7e-4c7.1544 9.4833 10.798 20.094 11.093 29.076 0.29382 8.9825-2.5237 15.934-7.8712 20.038-5.3476 4.1039-12.742 4.9881-21.244 2.3042-8.5015-2.6836-17.662-9.0618-24.81-18.549l-2e-3 -4e-3c-7.1544-9.4832-10.8-20.09-11.094-29.072-0.2938-8.9826 2.5253-15.938 7.8729-20.042 4.6791-3.591 10.925-4.7144 18.108-3.1414zm208.21 103.36s22.178 12.443 27.944 25.378c3.2106 7.2024 2.4919 12.074 0.27373 17.3-16.516-11.234-29.278-18.504-29.278-18.504-0.53869-0.4327-1.0631-0.80457-1.5769-1.1381 4.9955-1.3368 9.5226-3.0077 13.648-4.8717-3.6892-8.283-11.012-18.164-11.012-18.164zm-12.994 25.18c-0.59766 2.4212 0.025 5.6213 2.2791 8.7165 0 0 2.0911 2.4543 5.6081 6.3793-25.868 6.8085-64.198-6.9281-110.43-37.217 46.454 21.716 78.983 25.644 102.55 22.122zm105.34 68.45c-6.4972 2.1942-17.865 13.449-17.47 21.428l4.5802-0.58077 1.7437 2.7698 25.682 15.023c2.3913-5.7343 5.5399-8.1625 8.6285-10.854l-19.824-22.113-3.0349-1.0199zm46.721 28.006c-1.3634-0.34988-2.8009-0.63732-4.3178-0.86081-26.079-3.8412-36.676 32.609-12.741 49.198 23.057 15.98 43.735 33.997 43.735 33.997-2.101-42.355 1.0451-75.219-26.676-82.334z" color="#000000" fill="#00cafe" fill-rule="evenodd" stroke-width="1.0045"/>
</svg>
