<svg width="2500" height="2438" version="1.1" viewBox="0 130.75 595.28 580.4" xmlns="http://www.w3.org/2000/svg">
 <defs>
  <linearGradient id="SVGID_1_" x1="753.62" x2="731.5" y1="1643" y2="1623" gradientTransform="matrix(5.0624 0 0 -5.0592 -3856.1 8752)" gradientUnits="userSpaceOnUse">
   <stop stop-color="#c0cdf9" offset="0"/>
   <stop stop-color="#07092d" stop-opacity=".288" offset="1"/>
  </linearGradient>
  <linearGradient id="SVGID_2_" x1="689.46" x2="714.69" y1="1649.6" y2="1624.4" gradientTransform="matrix(5.1107 0 0 -5.1075 -3933.8 8584.3)" gradientUnits="userSpaceOnUse">
   <stop stop-color="#fff" offset="0"/>
   <stop stop-color="#fff" stop-opacity="0" offset="1"/>
  </linearGradient>
  <linearGradient id="SVGID_3_" x1="706.25" x2="736.25" y1="1654.2" y2="1624.2" gradientTransform="matrix(5.1107 0 0 -5.1075 -4007.7 8523.4)" gradientUnits="userSpaceOnUse">
   <stop stop-color="#fff" offset="0"/>
   <stop stop-color="#fff" stop-opacity="0" offset="1"/>
  </linearGradient>
  <radialGradient id="SVGID_4_" cx="751.03" cy="1499.4" r="30.6" gradientTransform="matrix(4.2499 0 0 -2.843 -3626.2 4778.6)" gradientUnits="userSpaceOnUse">
   <stop stop-color="#fff" offset="0"/>
   <stop stop-color="#fff" stop-opacity="0" offset="1"/>
  </radialGradient>
  <radialGradient id="SVGID_6_" cx="778.59" cy="1812.5" r="34.25" gradientTransform="matrix(2.7069 0 0 -1.1453 -2261.8 2393.2)" gradientUnits="userSpaceOnUse">
   <stop stop-color="#fff" offset="0"/>
   <stop stop-color="#fff" stop-opacity="0" offset="1"/>
  </radialGradient>
  <linearGradient id="SVGID_8_" x1="798.27" x2="798.39" y1="1563.2" y2="1556.9" gradientTransform="matrix(2.7069 0 0 -2.7052 -2265.2 4614)" gradientUnits="userSpaceOnUse">
   <stop stop-color="#fff" offset="0"/>
   <stop stop-color="#fff" stop-opacity="0" offset="1"/>
  </linearGradient>
  <linearGradient id="SVGID_11_" x1="773.8" x2="773.93" y1="1628.6" y2="1622.3" gradientTransform="matrix(1.0439 -.52909 -1.2238 -2.4128 1030.1 4776)" gradientUnits="userSpaceOnUse">
   <stop stop-color="#fff" offset="0"/>
   <stop stop-color="#fff" stop-opacity="0" offset="1"/>
  </linearGradient>
  <radialGradient id="SVGID_14_" cx="657.8" cy="1808.5" r="22.75" gradientTransform="matrix(2.7069 0 0 -1.1012 -2261.8 2373.4)" gradientUnits="userSpaceOnUse">
   <stop stop-color="#fff" stop-opacity=".33" offset="0"/>
   <stop stop-color="#fff" stop-opacity="0" offset="1"/>
  </radialGradient>
  <linearGradient id="SVGID_15_" x1="845.47" x2="845.6" y1="1672.4" y2="1666.1" gradientTransform="matrix(2.3794 -.52223 -.63277 -1.8826 -1435.7 4024.5)" gradientUnits="userSpaceOnUse">
   <stop stop-color="#fff" offset="0"/>
   <stop stop-color="#fff" stop-opacity="0" offset="1"/>
  </linearGradient>
  <radialGradient id="SVGID_18_" cx="763.46" cy="1625.5" r="54.783" gradientTransform="matrix(8.8014 0 0 -8.6572 -7034 14116)" gradientUnits="userSpaceOnUse">
   <stop stop-color="#fff" offset="0"/>
   <stop stop-color="#fff" stop-opacity="0" offset="1"/>
  </radialGradient>
  <linearGradient id="SVGID_22_" x1="684.33" x2="688.79" y1="1602.6" y2="1599.1" gradientTransform="matrix(5.1107 0 0 -5.1075 -4007.7 8523.4)" gradientUnits="userSpaceOnUse">
   <stop stop-color="#fff" offset="0"/>
   <stop stop-color="#fff" stop-opacity="0" offset="1"/>
  </linearGradient>
 </defs>
 <radialGradient id="a" cx="-183.69" cy="328.97" r=".76" gradientTransform="matrix(545.67 0 0 528.31 100439 -173525)" gradientUnits="userSpaceOnUse">
  <stop stop-color="#423325" stop-opacity=".98" offset="0"/>
  <stop stop-color="#1c0a00" offset="1"/>
 </radialGradient>
 <path d="m24.803 155.55h545.67v530.79h-545.67v-530.79z" fill="url(#a)"/>
 <style>.st0{enable-background:new}.st1{opacity:.783}.st2{opacity:.576;enable-background:new}.st3{fill:none}.st4,.st5{opacity:.67;fill:url(#SVGID_1_);enable-background:new}.st5{opacity:.505;fill:url(#SVGID_2_)}.st6{fill:url(#SVGID_3_)}.st7,.st8{enable-background:new}.st7{fill:url(#SVGID_4_);opacity:.217}.st8{opacity:.276;filter:url(#l)}.st9{fill:url(#SVGID_5_)}.st10,.st11{enable-background:new}.st10{fill:url(#SVGID_6_);opacity:.453}.st11{opacity:.512;filter:url(#o)}.st12{fill:url(#SVGID_7_)}.st13,.st14{enable-background:new}.st13{fill:url(#SVGID_8_);opacity:.286}.st14{opacity:.621;filter:url(#r)}.st15{fill:url(#SVGID_9_)}.st16{filter:url(#t)}.st17{fill:url(#SVGID_10_)}.st18{opacity:.286;fill:url(#SVGID_11_);enable-background:new}.st19{fill:url(#SVGID_12_)}.st20{fill:url(#SVGID_13_)}.st21{fill:url(#SVGID_14_)}.st22{opacity:.286;fill:url(#SVGID_15_);enable-background:new}.st23{fill:url(#SVGID_16_)}.st24{opacity:.616;filter:url(#w);enable-background:new}.st25{fill:url(#SVGID_17_)}.st26{fill:none;stroke:url(#SVGID_18_);stroke-width:1.004}.st27{opacity:.325;filter:url(#A);enable-background:new}.st28{fill:url(#SVGID_19_)}.st29{fill:url(#SVGID_20_)}.st30{opacity:.478;filter:url(#D);enable-background:new}.st31{fill:url(#SVGID_21_)}.st32{opacity:.586;fill:#fff}.st32,.st33,.st34{enable-background:new}.st33{fill:url(#SVGID_22_);opacity:.251}.st34{opacity:.363;filter:url(#F)}.st35{fill:url(#SVGID_23_)}</style>
 <path d="m300.95 234.03c-11.72 5e-3 -23.269 4.2489-31.587 12.738l-139.92 143.27c-52.977 52.961 34.316 48.56 65.907 68.577 14.607 9.5022-46.862 21.729-34.316 34.306 12.231 12.577 73.7 24.105 85.932 36.332 12.231 12.577-24.811 25.817-12.581 38.358 11.881 12.577 40.432 0.6637 45.5 29.205 3.7392 21.066 52.314 10.515 74.05-7.4761 13.593-11.529-23.449-11.529-11.218-24.105 30.577-30.882 57.73-13.939 68.948-42.446 6.1155-15.266-46.198-26.132-32.255-35.983 33.304-23.442 155.58-35.319 99.176-91.669l-145.03-148.41c-8.9985-8.4716-20.888-12.708-32.608-12.703zm26.341 35.296s41.403 44.688 42.962 47.453c1.5591 2.7647 7.2407 6.6699 3.9333 15.83s-143.81 15.466-144.62 12.728c-0.8103-2.738-10.018-0.24864-3.6894-15.255s37.366-45.637 49.247-58.214c6.098-6.2883 10.771-12.78 26.072-14.703 15.3-1.9232 20.461 6.708 26.096 12.161z" fill="#ff7f18" stroke-width=".3494"/>
 <path d="m0 130.8v580.4h595.28v-580.4zm31.955 31.76h531.37v516.88h-531.37z" fill="#ff7f18"/>
</svg>
