<svg width="2500" height="2438" version="1.1" viewBox="0 130.75 595.28 580.4" xmlns="http://www.w3.org/2000/svg">
 <radialGradient id="a" cx="-183.69" cy="328.97" r=".76" gradientTransform="matrix(545.67 0 0 528.31 100439 -173525)" gradientUnits="userSpaceOnUse">
  <stop stop-color="#4b2d4f" stop-opacity=".98" offset="0"/>
  <stop stop-color="#180024" offset="1"/>
 </radialGradient>
 <path d="m24.803 155.55h545.67v530.79h-545.67v-530.79z" fill="url(#a)"/>
 <path d="m0 130.75v580.4h595.28v-580.4zm31.955 31.76h531.37v516.88h-531.37z" fill="#e579ff"/>
 <g transform="matrix(5.6372 0 0 5.6821 -13808 -1789.5)" fill="#e579ff">
  <g fill-rule="evenodd" shape-rendering="auto">
   <path d="m2474.6 371.3v10.027h21.726v-7.2454h-0.017v-0.34962c0-1.1654-1.0931-2.2251-2.1993-2.4323h-19.508z" color="#000000" color-rendering="auto" image-rendering="auto" solid-color="#000000" style="isolation:auto;mix-blend-mode:normal;text-decoration-color:#000000;text-decoration-line:none;text-decoration-style:solid;text-indent:0;text-transform:none;white-space:normal"/>
   <path d="m2466.3 388.02v10.027h30.082v-10.027z" color="#000000" color-rendering="auto" image-rendering="auto" solid-color="#000000" style="isolation:auto;mix-blend-mode:normal;text-decoration-color:#000000;text-decoration-line:none;text-decoration-style:solid;text-indent:0;text-transform:none;white-space:normal"/>
   <path d="m2479.6 404.73v10.027h16.712v-10.027z" color="#000000" color-rendering="auto" image-rendering="auto" solid-color="#000000" style="isolation:auto;mix-blend-mode:normal;text-decoration-color:#000000;text-decoration-line:none;text-decoration-style:solid;text-indent:0;text-transform:none;white-space:normal"/>
  </g>
  <path d="m2513.1 356.26h-20.055l10.027 15.812z"/>
  <path d="m2504.7 366.66v53.106h-3.3423v-53.106z" color="#000000" color-rendering="auto" fill-rule="evenodd" image-rendering="auto" shape-rendering="auto" solid-color="#000000" style="isolation:auto;mix-blend-mode:normal;text-decoration-color:#000000;text-decoration-line:none;text-decoration-style:solid;text-indent:0;text-transform:none;white-space:normal"/>
  <path d="m2512.3 371.31c-1.2309 0.0719-2.5563 1.2444-2.5532 2.5436l-0.046 38.358c0 1.7324 2.3536 3.2398 3.7 2.2107l25.367-19.245c1.3552-1.0164 1.3521-3.4008 0-4.4217l-25.32-19.113c-0.338-0.25502-0.7365-0.35663-1.147-0.3329z"/>
 </g>
</svg>
