<svg width="665.82" height="649.17" version="1.1" viewBox="0 0 665.82 649.17" xml:space="preserve" xmlns="http://www.w3.org/2000/svg"><defs><radialGradient id="radialGradient54" cx="0" cy="0" r="1" gradientTransform="matrix(347.89 0 0 336.82 171.71 366.21)" gradientUnits="userSpaceOnUse"><stop stop-color="#093600" offset="0"/><stop stop-color="#031a00" offset="1"/></radialGradient><clipPath id="clipPath3957-1"><path transform="matrix(.5954 0 0 .94331 2355 736)" d="m414.29-116.21c0 165.69-134.31 300-300 300s-300-134.31-300-300 134.31-300 300-300 300 134.31 300 300z" fill="url(#radialGradient3961)"/></clipPath><filter id="filter3943-5" x="-.74334" y="-.74334" width="2.4867" height="2.4867" color-interpolation-filters="sRGB"><feGaussianBlur stdDeviation="33.62542"/></filter><radialGradient id="radialGradient3395" cx="2417" cy="886.04" r="178.62" gradientTransform="matrix(.63283 4.018e-8 0 .6207 887.45 302.33)" gradientUnits="userSpaceOnUse"><stop stop-color="#f3ffc9" stop-opacity=".9187" offset="0"/><stop stop-color="#fff" stop-opacity="0" offset="1"/></radialGradient></defs><g transform="matrix(1.3333 0 0 -1.3333 -4e-4 649.17)"><path d="m20.806 466.07h457.75v-445.26h-457.75z" fill="url(#radialGradient54)"/><g fill="#31fa00"><path d="m3e-4 486.88v-486.88h499.36v486.88zm26.806-26.643h445.75v-433.59h-445.75z" stroke-width=".83887"/><path d="m367 407c9.392-23.471-5.2316-54.503-10.635-70.094-5.4036-15.591-11.713-15.026-10.278-0.59801 1.4344 14.428 6.9967 17.815 3.893 40.85-28.487-28.901-56.03-63.156-61.799-104.19-0.15947-7.3857-1.2827-19.465-3.5961-4.3936-2.3134 15.071 9.3517 42.377 5.1445 51.252-24.054-28.629-40.327-38.907-52.117-52.285-11.79-13.378-16.379-25.649-13.335-43.442 2.7564-7.1862 11.054-23.778 3.4399-11.104-9.447 10.192-12.542 26.592-16.262 37.311-8.2185-14.228-15.429-22.368-14.115-39.144s7.2549-25.087 0.0486-30.49c3.0087 11.017-14.2 21.532-20.518 16.714 3.1172-20.778 8.6642-43.675-2.0603-63.25 18.867 5.118 28.795 10.145 43.106 15.029 66.172 30.206 123.3 82.542 154.04 148.99-23.608-71.804-81.541-128.86-149.8-159.37-14.661-7.1076-29.659-13.494-44.785-19.543 24.872-10.042 31.618-20.383 41.743-41.245 18.37 21.617-0.46481 30.597-2.4399 38.254 15.735-16.58 40.64-30.901 63.61-20.743 14.487 1.0891 9.0376 8.1297-1.8275 7.9083-18.084 4.2674-37.917 11.176-47.741 28.203 20.52-22.177 55.117-30.855 82.766-17.281 7.6705 1.3061 17.416 11.949 2.7391 9.6695-10.463 0.88765-31.785 9.9794-32.251 14.231 20.103-15.044 50.028-13.562 68.876 2.7442-2.2265 4.217-29.343 1.1178-25.485 5.735 21.536-4.4908 41.341 10.487 51.964 28.041 6.1026 8.6663 17.492 31.35 15.871 34.204-4.3075-11.417-30.13-17.584-30.979-12.336 30.496 8.1512 45.455 41.18 47.374 70.357 0.96019 9.9328 5.3054 31.644-1.0496 35.155-2.7738-7.1533-12.157-23.048-14.697-22.362 21.447 37.038 14.044 88.134-17.789 117.01-3.5088 3.5973-7.2128 7.0023-11.063 10.23zm-193.89-274.91c-27.76-8.9111-56.392-14.926-85.259-18.878-2.0167-14.818 30.12-14.62 45.198-7.9539 15.078 6.6659 35.303 11.8 41.212 14.407-0.15208 2.9467-0.44495 7.844-1.1502 12.423z" stroke-width=".85006"/><path d="m397.73 164.16 0.63233 0.97695z" stroke-width=".75"/></g><path transform="matrix(1.3421 0 0 -.84765 -4003.6 578.48)" d="m2471.3 853.12c0 33.435-24.303 60.539-54.283 60.539s-54.283-27.104-54.283-60.539 24.303-60.539 54.283-60.539 54.283 27.104 54.283 60.539z" clip-path="url(#clipPath3957-1)" display="none" fill="url(#radialGradient3395)" filter="url(#filter3943-5)" opacity=".7"/><path d="m481.17 119.48 0.9887 1.5275z" fill="#31fa00" stroke-width="1.1727"/></g></svg>
