<svg width="665.82" height="649.17" version="1.1" viewBox="0 0 665.82 649.17" xml:space="preserve" xmlns="http://www.w3.org/2000/svg" xmlns:xlink="http://www.w3.org/1999/xlink"><defs><radialGradient id="radialGradient54" cx="0" cy="0" r="1" gradientTransform="matrix(347.89 0 0 336.82 171.71 366.21)" gradientUnits="userSpaceOnUse"><stop stop-color="#093600" offset="0"/><stop stop-color="#031a00" offset="1"/></radialGradient><clipPath id="clipPath3957-1"><path transform="matrix(.5954 0 0 .94331 2355 736)" d="m414.29-116.21c0 165.69-134.31 300-300 300-165.69 0-300-134.31-300-300 0-165.69 134.31-300 300-300 165.69 0 300 134.31 300 300z" fill="url(#radialGradient3961)"/></clipPath><filter id="filter3943-5" x="-.74334" y="-.74334" width="2.4867" height="2.4867" color-interpolation-filters="sRGB"><feGaussianBlur stdDeviation="33.62542"/></filter><radialGradient id="radialGradient3395" cx="2417" cy="886.04" r="178.62" gradientTransform="matrix(.63283 4.018e-8 0 .6207 887.45 302.33)" gradientUnits="userSpaceOnUse"><stop stop-color="#f3ffc9" stop-opacity=".9187" offset="0"/><stop stop-color="#fff" stop-opacity="0" offset="1"/></radialGradient></defs><g transform="matrix(1.3333 0 0 -1.3333 -4e-4 649.17)"><path d="m20.806 466.07h457.75v-445.26h-457.75z" fill="url(#radialGradient54)"/><path d="m3e-4 486.88v-486.88h499.36v486.88zm26.806-26.643h445.75v-433.59h-445.75z" fill="#31fa00" stroke-width=".83887"/><g transform="matrix(.75 0 0 -.75 -997.78 287.49)"><path id="Océans" d="m1662.4-157.07c-85.43-1.2139-167.67 54.388-199.02 133.75-33.796 80.327-12.275 180 52.51 238.6 31.108 29.132 71.067 48.686 113.21 55.149 12.943-7.67 12.148-8.4377 1.3776-14.589-10.56-15.269-38.4-11.327-56.184-15.369-24.438-3.7692-42.287-21.185-60.616-36.089-2.0891-12.527-15.073-25.189-10.983-37.625-1.5168-12.893 20.355-25.924 7.5197-28.5 1.6797-11.933 22.887-7.2361 9.6667-21.252-14.846-8.9294-8.2998-24.468-7.0247-37.895 7.5353 3.3074 30.746 14.547 22.068-6.2895-3.2797-8.7257-11.212-15.315 1.4286-17.88 8.5065-2.7739 10.455-11.894-3.3379-7.0997-17.982 8.2739 9.3673-34.865-6.7469-17.083-3.5617 16.982-19.183 7.5115-7.0093-5.5572 12.458-5.5373 2.7566-20.999 18.067-21.113-5.1612 11.033 2.2956 23.342 8.0617 35.494 0.8519 12.979 12.206-13.335 19.052-13.844-4.6739-18.471 7.2557-18.056 7.7569-6.746 7.3062-9.2022-3.2439-26.841-12.564-12.816-15.325-19.492 22.035-35.256 16.178-53.786 10.65-12.556 25.045-26.325 44.983-16.85 22.019 3.4453-9.4211 13.736-5.0503 13.083 16.675 17.407 14.35-14.558 19.106-19.365 10.658-3.819 12.456-22.982 22.614-25.486-12.462-6.8559-11.686-12.143-3.4523-15.841-7.3402-20.314-20.621-13.953-36.912-14.05 9.1156-5.4755 37.712-7.9514 35.525-16.289 12.598-12.618-11.899-1.6617-19.876 0.85207-9.7501-11.231 15.587-8.9516 23.944-10.76 31.098-0.85798 62.378 5.2474 90.808 17.898-0.6633-12.556-26.517-12.252-37.595-17.372-15.573-3.5239-31.541-5.2838-47.507-5.2808zm94.199 0.0341c17.628 14.203 19.987 40.069 23.272 61.204 1.4547 13.178 2.0933 55.086-8.8499 24.594-7.9019-12.702-11.007-41.348-17.27-45.484-11.812 37.728-21.972 77.537-13.759 117.15 1.0518 12.502 9.969 40.034 7.0618 40.542-17.946-18.607-20.246-44.797-25.487-68.764-10.079 5.4704-21.357 40.312-25.376 58.848-11.171 50.842 7.0699 106.78 46.25 141.07-33.953-18.047-56.334-52.567-71.022-87.208-1.3557 35.229 7.9072 71.047 29.972 98.994 6.5469 7.8474 11.187 29.895 1.4381 10.37-12.414-14.802-26.654-29.96-44.567-37.607 11.147 18.142 28.607 37.24 32.725 60.211 1.1135 11.009-1.8912 21.876 8.7813 7.8918 69.137-67.034 115.52-159.68 117.28-256.86 0.084-12.321 0.1731-18.917 1.2737-2.7265 6.73 74.077-15.431 149.33-58.913 209.45-17.215 24.823-36.894 47.823-57.3 70.057 31.498-2.0075 63.821-0.96299 93.944 9.3692-12.999-12.984-48.93-20.823-53.186-27.149 25.416 9.4772 58.51 14.389 78.839-7.9917 8.4635-7.9296 20.561-15.717 2.3369-10.416-26.602 5.3162-56.294 8.7251-80.612-6.1719 34.683 11.628 77.711 9.3119 103.25-19.843 8.6757-9.7168 21.495-23.412 0.2359-13.577-21.071 3.0271-44.06 7.6159-64.409-0.42963 35.83 6.8792 77.823-4.6585 96.175-38.389-3.6078-0.98015-44.292 18.599-50.132 13.685 28.961-6.8663 54.691-29.252 58.858-59.802 3.3515-17.171 2.5979-34.868 0.2973-52.122 1.3671 20.54-26.61 44.049-38.353 43.816 31.363-25.531 38.76-70.688 25.776-107.6-3.6591-11.541-15.373-41.382-19.46-40.45 2.2557 11.206-2.0076 40.047-4.0739 40.049 5.0756-46.965-21.381-95.591-65.328-114.2-9.5022-4.4837-19.483-7.9079-29.657-10.507zm104.08 321.47 0.8431-1.3026zm-158.58 80.257c-11.81 2.871-16.278 0.4524-11.063-11.452-24.898 23.591-52.195 44.552-80.794 63.448 16.732-8.3083 39.464-2.704 51.949-9.6335 13.36-14.067 26.791-28.068 39.909-42.363zm-152.64-364.19c9.51 2.764 8.4558 7.0007 7.5633 12.417 16.475-1.9751-3.6748 23.125-11.346 29.939-12.697 20.911-31.569 32.2-52.588 42.876-7.3959 11.343-15.847 11.224-7.8268-3.4242 10.564-23.22 32.308-40.599 45.212-61.035-17.801 9.6685-28.244 28.69-43.542 42.029 1.8808-6.5889 18.992-26.824 28.96-36.238 10.252-9.9594 21.516-18.878 33.567-26.565zm61.013 4.0129c16.436 4.5772-19.58 20.037-4.8634 1.4113 1.3196-1.2244 3.1576-1.4132 4.8634-1.4113zm17.985 4.076c8.1883 2.861 3.8659 23.244 12.564 24.057-11.695 8.5321-21.464-19.85-12.564-24.057zm-39.541 4.8323c6.1583 4.6444-9.0069 3.9396 0 0zm-3.8029 8.278c14.168 10.205-18.2 24.815-9.465 4.8918 3.0017-1.7095 5.9059-4.3884 9.465-4.8918zm-70.657 59.164c4.9859 6.1347 17.978 1.2103 9.0982 13.057-12.391 13.976-16.845-4.432-9.0982-13.057zm159.61 84.293c-9.2739 7.7386-13.356 7.4013-23.132 2.038-11.865 5.7721-10.06 42.946 9.5992 27.894 5.9896-16.962 26.465-2.6362 22.134-23.92 4.4356-7.5039-5.8522-4.2835-8.6008-6.0123zm-89.839 26.368c-9.861 16.695 36.224 19.748 21.153 27.873 5.4324 18.077-15.117-8.1304-23.78-8.0611-8.2868-11.319-10.998-15.636-22.086-2.9435-8.5682-3.5125-13.718 12.797-17.119 19.73 6.6144 16.313-30.476 11.001-6.4282 20.02 13.35-7.7221 39.168-12.764 49.373-6.7826 5.0156 10.354 0.371 20.743 19.762 18.221 11.05 6.4534 28.086 12.438 28.966-4.3399 8.9274-10.048 36.384 8.1197 29.002-13.741-0.5864-13.594-1.0685-19.513-13.996-20.115-2.9179-7.9443-8.064-24.524-18.73-9.313-5.0118 3.1648 25.828 20.481 8.8663 12.774-6.9795-0.72761-3.7608 13.154-14.791 1.5127-7.5341-12.205-14.748-22.856-29.686-26.428-1.5285-6.1553-6.3811-5.4366-10.507-8.4063zm-11.43 14.833c4.527 6.8444 7.437 34.045-5.0992 18.331 3.6281-5.5914 0.6553-13.366 5.0992-18.331zm21.031 24.12c23.696 1.5764-10.921 14.122-3.0464 1.5337l1.3866-0.63031zm53.912 2.08c13.691 8-21.936 6.4133 0 0zm-142.95 31.452c3.9403 7.8793-11.209 8.6648-1.0505 1.3236zm231.61 110.87c-10.552 6.4694-44.397 8.1124-40.398 15.51 15.176-2.32 43.63-9.5251 48.894-15.127-2.8296-0.17457-5.6625-0.29856-8.4962-0.38243z" fill="#31fa00"/><path transform="matrix(1.7895 0 0 1.1302 -4007.7 -387.99)" d="m2471.3 853.12c0 33.435-24.303 60.539-54.283 60.539-29.98 0-54.283-27.104-54.283-60.539s24.303-60.539 54.283-60.539c29.98 0 54.283 27.104 54.283 60.539z" clip-path="url(#clipPath3957-1)" display="none" fill="url(#radialGradient3395)" filter="url(#filter3943-5)" opacity=".7"/></g></g></svg>
