<?xml version="1.0" encoding="UTF-8" standalone="no"?>
<svg
   xmlns:dc="http://purl.org/dc/elements/1.1/"
   xmlns:cc="http://creativecommons.org/ns#"
   xmlns:rdf="http://www.w3.org/1999/02/22-rdf-syntax-ns#"
   xmlns:svg="http://www.w3.org/2000/svg"
   xmlns="http://www.w3.org/2000/svg"
   xmlns:sodipodi="http://sodipodi.sourceforge.net/DTD/sodipodi-0.dtd"
   xmlns:inkscape="http://www.inkscape.org/namespaces/inkscape"
   width="2500"
   height="2438"
   version="1.1"
   viewBox="0 130.75 595.28 580.4"
   id="svg13"
   sodipodi:docname="krita.svg"
   inkscape:version="0.92.4 5da689c313, 2019-01-14">
  <metadata
     id="metadata19">
    <rdf:RDF>
      <cc:Work
         rdf:about="">
        <dc:format>image/svg+xml</dc:format>
        <dc:type
           rdf:resource="http://purl.org/dc/dcmitype/StillImage" />
      </cc:Work>
    </rdf:RDF>
  </metadata>
  <defs
     id="defs17" />
  <sodipodi:namedview
     pagecolor="#ffffff"
     bordercolor="#666666"
     borderopacity="1"
     objecttolerance="10"
     gridtolerance="10"
     guidetolerance="10"
     inkscape:pageopacity="0"
     inkscape:pageshadow="2"
     inkscape:window-width="1920"
     inkscape:window-height="1008"
     id="namedview15"
     showgrid="false"
     inkscape:zoom="0.1368968"
     inkscape:cx="-278.93148"
     inkscape:cy="2034.8051"
     inkscape:window-x="0"
     inkscape:window-y="24"
     inkscape:window-maximized="1"
     inkscape:current-layer="svg13" />
  <radialGradient
     id="a"
     cx="-183.73"
     cy="329.01"
     r=".76"
     gradientTransform="matrix(474.46 1.1109e-8 0 437.92 87358 -143789)"
     gradientUnits="userSpaceOnUse">
    <stop
       stop-color="#0c3e3e"
       offset="0"
       id="stop2" />
    <stop
       stop-color="#072525"
       offset="1"
       id="stop4" />
  </radialGradient>
  <path
     d="m24.803 155.55h545.67v530.79h-545.67v-530.79z"
     fill="url(#a)"
     id="path7" />
  <path
     transform="matrix(.23811 0 0 .23811 0 130.69)"
     d="m0 0.24805v2437.5h2500v-2437.5h-2500zm134.2 133.38h2231.6v2170.7h-2231.6v-2170.7z"
     fill="#30f0f0"
     stroke-width="4.1997"
     id="path9" />
  <path
     d="m 122.18733,234.64368 c -0.0582,-9.1e-4 -0.11532,8.9e-4 -0.17176,0.006 -1.3558,0.11047 -2.1719,1.8007 -1.411,2.912 23.552,34.281 56.47267,68.59432 97.70267,108.36632 4.8219,-4.8118 9.5371,-8.4115 14.256,-12.069 -41.093,-41.574 -64.18667,-65.39132 -109.05267,-98.71632 -0.46695,-0.345 -0.91726,-0.49478 -1.3253,-0.5021 z M 325.77,305.141 c -34.239,0 -65.875,11.119 -91.513,29.931 4.5,4.5526 9.0072,9.0904 13.496,13.666 7.5791,7.7263 15.146,15.475 22.717,23.209 7.571,7.7338 49.341,52.899 56.937,60.568 l -11.877,10.913 c 0,0 -2.1008,-1.8888 -5.8617,-5.3165 -3.7609,-3.4278 -43.377,-45.84 -50.018,-51.998 -3.32,-3.0784 -6.9448,-6.4543 -10.819,-10.084 -3.8745,-3.6296 -7.9989,-7.513 -12.318,-11.607 -4.3188,-4.0936 -8.8316,-8.3971 -13.484,-12.868 -1.2786,-1.2284 -2.637,-2.5581 -3.9355,-3.8107 -29.682,28.216 -48.187,68.079 -48.187,112.27 0,85.533 69.332,154.87 154.87,154.87 85.538,0 154.87,-69.333 154.87,-154.87 0,-85.533 -69.338,-154.87 -154.87,-154.87 z m 6.133,132.77 c 0,0 17.363,5.2348 20.153,6.2192 2.7908,0.97827 61.852,25.449 49.168,70.079 -12.69,44.636 -38.016,35.947 -38.016,35.947 0,0 23.71,-14.139 14.959,-27.033 -8.6236,-12.679 -13.144,-14.102 -21.878,-18.692 -11.742,-5.3342 -39.36,-21.565 -33.817,-58.059 z"
     id="path11"
     inkscape:connector-curvature="0"
     style="fill:#31f0f0;stroke-width:0.94454998"
     sodipodi:nodetypes="ccccccccccccccccccccssscccccccccc" />
</svg>
