<svg width="2500" height="2438" version="1.1" viewBox="0 130.75 595.28 580.4" xmlns="http://www.w3.org/2000/svg">
 <radialGradient id="a" cx="-183.69" cy="328.97" r=".76" gradientTransform="matrix(545.67 0 0 528.31 100439 -173525)" gradientUnits="userSpaceOnUse">
  <stop stop-color="#4b2d4f" stop-opacity=".98" offset="0"/>
  <stop stop-color="#180024" offset="1"/>
 </radialGradient>
 <path d="m24.803 155.55h545.67v530.79h-545.67v-530.79z" fill="url(#a)"/>
 <path d="m0 130.75v580.4h595.28v-580.4zm31.955 31.76h531.37v516.88h-531.37z" fill="#e579ff"/>
 <path d="m360.65 228.75a14.917 14.917 0 0 0-1.5013 0.0103 14.917 14.917 0 0 0-14.046 14.243c-2.9634 51.07-18.366 92.403-45.428 126.22a14.919 14.919 0 0 0-1.358 2.0393 99.787 127.68 22.984 0 1 23.682 17.676 14.919 14.919 0 0 0 0.96762-1.0664c31.084-38.84 48.657-86.938 51.917-143.14a14.917 14.917 0 0 0-14.234-15.987zm-110.31 17.21c-10.564 2e-3 -21.523 1.1141-32.493 3.8365-57.772 14.58-88.772 57.897-81.95 73.278 5.1745 11.666 38.058 30.042 103.39 13.078 58.51-14.522 95.221-69.473 95.221-69.473s-38.386-20.734-84.164-20.719zm120.5 73.533s-24.65 66.218-0.61441 126.02c23.989 59.017 74.445 85.435 89.721 75.935 11.587-7.2056 26.179-44.744-1.452-111.41-24.036-59.807-87.655-90.55-87.655-90.55zm-104.68 54.27a91.288 116.81 22.984 0 0-105.51 77.508 91.288 116.81 22.984 0 0 38.427 143.18 91.288 116.81 22.984 0 0 129.65-71.892 91.288 116.81 22.984 0 0-38.432-143.18 91.288 116.81 22.984 0 0-24.144-5.6201zm-20.083 21.069a7.3437 7.3437 0 0 1 2.353 14.279c-20.904 7.5928-45.869 29.945-56.493 56.628a7.3479 7.3479 0 1 1-13.652-5.4364c12.421-31.196 39.36-55.635 65.13-64.995a7.3437 7.3437 0 0 1 2.6622-0.47473z" fill="#e579ff"/>
</svg>
