<svg width="2500" height="2438" version="1.1" viewBox="0 130.75 595.28 580.4" xmlns="http://www.w3.org/2000/svg">
 <radialGradient id="a" cx="-183.69" cy="328.97" r=".76" gradientTransform="matrix(545.67 0 0 528.31 100439 -173525)" gradientUnits="userSpaceOnUse">
  <stop stop-color="#4b2d4f" stop-opacity=".98" offset="0"/>
  <stop stop-color="#180024" offset="1"/>
 </radialGradient>
 <path d="m24.803 155.55h545.67v530.79h-545.67v-530.79z" fill="url(#a)"/>
 <path d="m0 130.75v580.4h595.28v-580.4zm31.955 31.76h531.37v516.88h-531.37z" fill="#e579ff"/>
 <path d="m456.31 612.69c-33.768-11.015-42.17-19.254-40.888-40.095 1.9022-9.415-0.60453-12.169-6.3318-19.133-4.1127-5.0006-6.319-6.4982-5.3644-3.6413l1.6216 4.853-5.1004-4.6158c-7.6203-6.8962-6.1582-2.3689 2.8585 8.8511l7.9589 9.9038c1.2554 13.044 2.2594 27.606-2.6743 37.319-8.7726 17.012-18.72 2.5179-22.393-32.629l-1.5284-14.623 4.0909-6.2436c2.25-3.434 4.0909-7.3908 4.0909-8.7929 0-3.3436-50.28-55.527-51.921-53.886-0.69328 0.69327 4.032 6.9186 10.501 13.834 15.443 16.51 19.349 26.576 20.82 53.66l1.2204 22.468-2.4161-2.4965c-35.749-36.939-54.164-72.171-44.44-85.027 6.74-8.9111 4.3331-14.451-14.334-32.994-9.987-9.9203-18.946-18.037-19.91-18.037-3.4903 0 2.8614 11.842 10.389 19.37 7.3676 5.6834 7.7069 8.699 7.7069 17.386 0 22.926-24.196 17.642-28.991-6.332-2.1101-6.7062-1.5982-8.1131 2.7913-12.963l4.4095-4.8725-6.2068-22.168-10.342-8.1749c-5.6883-4.4962-15.016-11.942-20.728-16.547l-10.386-8.3716 8.7282 20.713c4.8005 11.392 12.844 29.03 17.875 39.195 12.147 17.754 9.5239 36.718 9.952 57.419 0.4429 21.415-0.20394 41.628-1.4374 44.916l-2.2427 5.9795-5.6523-5.9795c-21.33-22.565-35.94-80.078-26.4-103.92l3.7686-9.4186-8.4948-29.477c-4.6721-16.212-8.8957-29.726-9.3856-30.03-1.0189-0.63351-28.502-23.05-35.481-28.94-8.7104-7.3511 13.144 25.918 23.671 36.034 22.37 21.498 22.628 46.185 0.48253 46.185-21.757 0-42.067-33.553-29.03-47.959l4.2208-4.6639-24.669-50.706-15.927-17.613c-45.114-49.891-63.061-83.064-51.3-94.825 5.157-5.157 9.2346-4.9499 16.375 0.83177l5.872 4.7548-4.3472 4.8035c-12.792 14.135 10.043 52.613 54.134 91.22l18.89 16.541 15.613-7.2832c8.6378-4.0295 25.093-8.8044 36.833-10.688 11.671-1.8728 25.152-5.5597 29.958-8.1932l8.7377-4.7882 24.965 0.0746c41.094 0.12284 78.639 13.406 78.639 27.822v3.3096l-10.61-0.14882c-5.8355-0.0818-15.946-1.0272-22.468-2.1007l-11.858-1.9519v4.5972c0 5.5576-1.732 5.6147-26.51 0.87381l-19.46-3.7234-25.072 1.5603c-34.013 2.1167-35.402 3.9187-8.2901 10.753 53.067 13.377 102.1 32.981 113.22 45.265l4.3358 4.791h-7.3209c-4.0265 0-9.909 1.8128-13.072 4.0285l-5.7515 4.0285-7.9105-3.8983c-4.3508-2.144-14.286-4.4287-22.078-5.077-19.237-1.6006-35.817-9.4181-50.741-23.925l-12.482-12.133-27.575-7.7246c-15.166-4.2485-28.51-7.7246-29.653-7.7246s9.0188 8.8113 22.582 19.581l24.66 19.581 21.22 6.9295c11.671 3.8112 25.222 8.9581 30.114 11.438l8.8942 4.508 3.5882-2.2704c15.465-9.7855 54.766 10.012 54.766 27.588 0 26.057-48.632 13.713-59.514-15.105l-2.4128-6.39-21.941-9.1501c-26.286-10.962-27.082-10.775-10.218 2.3961 7.1861 5.6124 24.526 20.491 38.533 33.063l25.467 22.858 76.271 1.4918 22.412 6.8031c27.048 8.2104 59.247 21.796 60.489 25.523 1.1842 3.5527-33.123 9.6826-54.191 9.6826h-16.227l-15.919-11.234c-8.7552-6.1788-17.862-12.668-20.237-14.421-4.2642-3.1468-42.793-10.982-44.733-9.0972-0.55094 0.53517 3.9712 6.3265 10.049 12.87s16.272 18.72 22.653 27.059l11.602 15.162 27.607 6.1781 5.4555-2.9197c11.683-6.2528 28.576 1.3874 55.335 25.027 6.5278 5.7669 11.144 11.659 10.257 13.093-2.1636 3.5007-31.374 0.87493-45.842-4.121l-11.234-3.879 6.8912 5.1983c10.184 7.6827 39.294 41.772 39.294 46.016 0 4.6196-0.19746 4.5986-21.22-2.2587zm-43.688-66.073c0-2.5257-2.8614-5.896-6.3586-7.4894-8.1778-3.7261-8.2966-3.7029-7.5372 1.4716 0.35267 2.4029 1.8822 4.3688 3.399 4.3688s4.1621 1.4043 5.8784 3.1206c4.1202 4.1202 4.6185 3.9614 4.6185-1.4716zm-12.482-4.1454c0-0.68655 0.5617-1.2482 1.2482-1.2482 0.68653 0 1.2482 0.5617 1.2482 1.2482 0 0.68656-0.5617 1.2483-1.2482 1.2483-0.68654 0-1.2482-0.5617-1.2482-1.2483z" fill="#e579ff" stroke-width="2.4965"/>
</svg>
