<svg width="2500" height="2438" version="1.1" viewBox="0 130.75 595.28 580.4" xmlns="http://www.w3.org/2000/svg">
 <radialGradient id="a" cx="-183.69" cy="328.97" r=".76" gradientTransform="matrix(545.67 0 0 528.31 100439 -173525)" gradientUnits="userSpaceOnUse">
  <stop stop-color="#4b2d4f" stop-opacity=".98" offset="0"/>
  <stop stop-color="#180024" offset="1"/>
 </radialGradient>
 <path d="m24.803 155.55h545.67v530.79h-545.67v-530.79z" fill="url(#a)"/>
 <path d="m0 130.75v580.4h595.28v-580.4zm31.955 31.76h531.37v516.88h-531.37z" fill="#bd74da"/>
 <path transform="matrix(.23811 0 0 .23811 0 130.69)" d="m1237.9 487.64c-10.809 0.05319-21.616 0.33052-32.414 0.83203-204.98 9.5241-397.99 99.276-537.37 249.88-139.38 150.6-213.94 349.98-207.59 555.08 6.3505 205.1 93.105 399.48 241.53 541.17 148.43 141.69 346.62 219.33 551.8 216.15 205.18-3.1759 400.87-86.911 544.85-233.13 143.97-146.22 224.67-343.19 224.67-548.39l-1.4981-48.355c-12.233-197.35-98.806-382.72-242.28-518.78-143.47-136.06-333.17-212.68-530.89-214.44-3.6032-0.0321-7.2075-0.03921-10.81-0.02148zm206.28 127.49c270.62 84.317 461.29 327.7 479.2 611.68l1.3086 42.43c-1e-4 180.05-70.509 352.89-196.3 481.19-125.79 128.3-296.78 201.77-476.05 204.56-57.094 0.5983-114.04-5.9961-169.5-19.629 122.45-59.679 483.13-147.55 483.13-413.71s-686.1-183.52-686.1-466.67c0-283.15 567.63-436.53 564.32-439.84zm-551.53 690.51c70.879 0 309.91 167.54 365.45 209.07 55.531 41.526 57.024 70.879 0 120.1-57.024 49.22-329.08 215.16-365.45 215.16-30.366 0-54.812-31.663-54.812-70.994v-402.34c0-39.331 24.446-70.994 54.812-70.994z" fill="#bd74da" style="paint-order:stroke fill markers"/>
</svg>
