<svg width="2500" height="2438" version="1.1" viewBox="0 130.75 595.28 580.4" xmlns="http://www.w3.org/2000/svg">
 <defs>
  <linearGradient id="SVGID_1_" x1="753.62" x2="731.5" y1="1643" y2="1623" gradientTransform="matrix(5.0624 0 0 -5.0592 -3856.1 8752)" gradientUnits="userSpaceOnUse">
   <stop stop-color="#c0cdf9" offset="0"/>
   <stop stop-color="#07092d" stop-opacity=".288" offset="1"/>
  </linearGradient>
  <linearGradient id="SVGID_2_" x1="689.46" x2="714.69" y1="1649.6" y2="1624.4" gradientTransform="matrix(5.1107 0 0 -5.1075 -3933.8 8584.3)" gradientUnits="userSpaceOnUse">
   <stop stop-color="#fff" offset="0"/>
   <stop stop-color="#fff" stop-opacity="0" offset="1"/>
  </linearGradient>
  <linearGradient id="SVGID_3_" x1="706.25" x2="736.25" y1="1654.2" y2="1624.2" gradientTransform="matrix(5.1107 0 0 -5.1075 -4007.7 8523.4)" gradientUnits="userSpaceOnUse">
   <stop stop-color="#fff" offset="0"/>
   <stop stop-color="#fff" stop-opacity="0" offset="1"/>
  </linearGradient>
  <radialGradient id="SVGID_4_" cx="751.03" cy="1499.4" r="30.6" gradientTransform="matrix(4.2499 0 0 -2.843 -3626.2 4778.6)" gradientUnits="userSpaceOnUse">
   <stop stop-color="#fff" offset="0"/>
   <stop stop-color="#fff" stop-opacity="0" offset="1"/>
  </radialGradient>
  <radialGradient id="SVGID_6_" cx="778.59" cy="1812.5" r="34.25" gradientTransform="matrix(2.7069 0 0 -1.1453 -2261.8 2393.2)" gradientUnits="userSpaceOnUse">
   <stop stop-color="#fff" offset="0"/>
   <stop stop-color="#fff" stop-opacity="0" offset="1"/>
  </radialGradient>
  <linearGradient id="SVGID_8_" x1="798.27" x2="798.39" y1="1563.2" y2="1556.9" gradientTransform="matrix(2.7069 0 0 -2.7052 -2265.2 4614)" gradientUnits="userSpaceOnUse">
   <stop stop-color="#fff" offset="0"/>
   <stop stop-color="#fff" stop-opacity="0" offset="1"/>
  </linearGradient>
  <linearGradient id="SVGID_11_" x1="773.8" x2="773.93" y1="1628.6" y2="1622.3" gradientTransform="matrix(1.0439 -.52909 -1.2238 -2.4128 1030.1 4776)" gradientUnits="userSpaceOnUse">
   <stop stop-color="#fff" offset="0"/>
   <stop stop-color="#fff" stop-opacity="0" offset="1"/>
  </linearGradient>
  <radialGradient id="SVGID_14_" cx="657.8" cy="1808.5" r="22.75" gradientTransform="matrix(2.7069 0 0 -1.1012 -2261.8 2373.4)" gradientUnits="userSpaceOnUse">
   <stop stop-color="#fff" stop-opacity=".33" offset="0"/>
   <stop stop-color="#fff" stop-opacity="0" offset="1"/>
  </radialGradient>
  <linearGradient id="SVGID_15_" x1="845.47" x2="845.6" y1="1672.4" y2="1666.1" gradientTransform="matrix(2.3794 -.52223 -.63277 -1.8826 -1435.7 4024.5)" gradientUnits="userSpaceOnUse">
   <stop stop-color="#fff" offset="0"/>
   <stop stop-color="#fff" stop-opacity="0" offset="1"/>
  </linearGradient>
  <radialGradient id="SVGID_18_" cx="763.46" cy="1625.5" r="54.783" gradientTransform="matrix(8.8014 0 0 -8.6572 -7034 14116)" gradientUnits="userSpaceOnUse">
   <stop stop-color="#fff" offset="0"/>
   <stop stop-color="#fff" stop-opacity="0" offset="1"/>
  </radialGradient>
  <linearGradient id="SVGID_22_" x1="684.33" x2="688.79" y1="1602.6" y2="1599.1" gradientTransform="matrix(5.1107 0 0 -5.1075 -4007.7 8523.4)" gradientUnits="userSpaceOnUse">
   <stop stop-color="#fff" offset="0"/>
   <stop stop-color="#fff" stop-opacity="0" offset="1"/>
  </linearGradient>
 </defs>
 <radialGradient id="a" cx="-183.69" cy="328.97" r=".76" gradientTransform="matrix(545.67 0 0 528.31 100439 -173525)" gradientUnits="userSpaceOnUse">
  <stop stop-color="#423325" stop-opacity=".98" offset="0"/>
  <stop stop-color="#1c0a00" offset="1"/>
 </radialGradient>
 <path d="m24.803 155.55h545.67v530.79h-545.67v-530.79z" fill="url(#a)"/>
 <style>.st0{enable-background:new}.st1{opacity:.783}.st2{opacity:.576;enable-background:new}.st3{fill:none}.st4,.st5{opacity:.67;fill:url(#SVGID_1_);enable-background:new}.st5{opacity:.505;fill:url(#SVGID_2_)}.st6{fill:url(#SVGID_3_)}.st7,.st8{enable-background:new}.st7{fill:url(#SVGID_4_);opacity:.217}.st8{opacity:.276;filter:url(#l)}.st9{fill:url(#SVGID_5_)}.st10,.st11{enable-background:new}.st10{fill:url(#SVGID_6_);opacity:.453}.st11{opacity:.512;filter:url(#o)}.st12{fill:url(#SVGID_7_)}.st13,.st14{enable-background:new}.st13{fill:url(#SVGID_8_);opacity:.286}.st14{opacity:.621;filter:url(#r)}.st15{fill:url(#SVGID_9_)}.st16{filter:url(#t)}.st17{fill:url(#SVGID_10_)}.st18{opacity:.286;fill:url(#SVGID_11_);enable-background:new}.st19{fill:url(#SVGID_12_)}.st20{fill:url(#SVGID_13_)}.st21{fill:url(#SVGID_14_)}.st22{opacity:.286;fill:url(#SVGID_15_);enable-background:new}.st23{fill:url(#SVGID_16_)}.st24{opacity:.616;filter:url(#w);enable-background:new}.st25{fill:url(#SVGID_17_)}.st26{fill:none;stroke:url(#SVGID_18_);stroke-width:1.004}.st27{opacity:.325;filter:url(#A);enable-background:new}.st28{fill:url(#SVGID_19_)}.st29{fill:url(#SVGID_20_)}.st30{opacity:.478;filter:url(#D);enable-background:new}.st31{fill:url(#SVGID_21_)}.st32{opacity:.586;fill:#fff}.st32,.st33,.st34{enable-background:new}.st33{fill:url(#SVGID_22_);opacity:.251}.st34{opacity:.363;filter:url(#F)}.st35{fill:url(#SVGID_23_)}</style>
 <path d="m301.02 240.08c-11.341 5e-3 -22.517 4.1116-30.566 12.326l-135.4 138.64c-51.265 51.249 33.207 46.99 63.777 66.36 14.135 9.1951-45.347 21.027-33.207 33.197 11.836 12.17 71.318 23.326 83.154 35.158 11.836 12.17-24.009 24.982-12.174 37.118 11.497 12.17 39.125 0.64225 44.029 28.261 3.6183 20.385 50.623 10.175 71.656-7.2344 13.154-11.156-22.691-11.156-10.855-23.326 29.589-29.884 55.864-13.488 66.719-41.074 5.9178-14.773-44.705-25.287-31.212-34.82 32.227-22.684 150.55-34.177 95.97-88.706l-140.34-143.61c-8.7076-8.1978-20.213-12.297-31.554-12.292zm1.158 13.163c8.1285 0.0422 16.261 3.0848 22.179 9.0008l53.565 54.528c4.9372 4.9356 4.9371 15.111 1.9613 18.086l-26.613-21.669-5.2752 31.878-22.014-11.832-35.811 22.684-11.836-47.632-19.038 41.378-47.647-0.33802c-9.198 0-7.8792-9.5334 1.657-19.067 18.734-20.689 55.222-55.846 66.719-68.016 5.9009-6.085 14.025-9.043 22.154-9.0008zm151.26 249.67c-11.876-0.0833-24.434 5.6157-27.531 16.622 0 6.8963 53.565 10.852 50.623-1.6564-2.0305-10.021-12.279-14.89-23.091-14.966zm-234.91 29.819c-16.008-0.0579-34.73 11.689-21.046 23.279 12.174 10.514 30.57-2.2988 36.487-17.072-3.3288-4.3546-9.1774-6.1849-15.441-6.2076zm200.82 1.2382c-15.116 13.793 2.6376 28.261 17.415 18.728 3.9565-2.603-0.33815-15.449-17.415-18.728z" fill="#ff7f18" stroke-width=".33811"/>
 <path d="m0 130.8v580.4h595.28v-580.4zm31.955 31.76h531.37v516.88h-531.37z" fill="#ff7f18"/>
</svg>
