<?xml version="1.0" encoding="UTF-8" standalone="no"?>
<svg
   xmlns:dc="http://purl.org/dc/elements/1.1/"
   xmlns:cc="http://creativecommons.org/ns#"
   xmlns:rdf="http://www.w3.org/1999/02/22-rdf-syntax-ns#"
   xmlns:svg="http://www.w3.org/2000/svg"
   xmlns="http://www.w3.org/2000/svg"
   xmlns:sodipodi="http://sodipodi.sourceforge.net/DTD/sodipodi-0.dtd"
   xmlns:inkscape="http://www.inkscape.org/namespaces/inkscape"
   inkscape:version="0.92.4 5da689c313, 2019-01-14"
   sodipodi:docname="org.fontforge.FontForge.svg"
   id="svg5922"
   viewBox="0 130.75 595.28 580.4"
   version="1.1"
   height="2438"
   width="2500">
  <metadata
     id="metadata5928">
    <rdf:RDF>
      <cc:Work
         rdf:about="">
        <dc:format>image/svg+xml</dc:format>
        <dc:type
           rdf:resource="http://purl.org/dc/dcmitype/StillImage" />
        <dc:title></dc:title>
      </cc:Work>
    </rdf:RDF>
  </metadata>
  <defs
     id="defs5926" />
  <sodipodi:namedview
     pagecolor="#ffffff"
     bordercolor="#666666"
     borderopacity="1"
     objecttolerance="10"
     gridtolerance="10"
     guidetolerance="10"
     inkscape:pageopacity="0"
     inkscape:pageshadow="2"
     inkscape:window-width="1225"
     inkscape:window-height="774"
     id="namedview5924"
     showgrid="false"
     inkscape:zoom="0.32"
     inkscape:cx="-1719.9254"
     inkscape:cy="-1968.2609"
     inkscape:window-x="268"
     inkscape:window-y="180"
     inkscape:window-maximized="0"
     inkscape:current-layer="svg5922"
     showguides="false" />
  <radialGradient
     id="a"
     cx="-183.69"
     cy="328.97"
     r=".76"
     gradientTransform="matrix(545.67 0 0 528.31 100439 -173525)"
     gradientUnits="userSpaceOnUse">
    <stop
       stop-color="#4b2d4f"
       stop-opacity=".98"
       offset="0"
       id="stop5911"
       style="stop-color:#393f43;stop-opacity:0.98039216" />
    <stop
       stop-color="#180024"
       offset="1"
       id="stop5913"
       style="stop-color:#111113;stop-opacity:1" />
  </radialGradient>
  <path
     style="opacity:1;fill:#e9b96e;fill-opacity:1;fill-rule:nonzero;stroke:none;stroke-width:594.61700439;stroke-linecap:round;stroke-linejoin:bevel;stroke-miterlimit:4;stroke-dasharray:none;stroke-dashoffset:0;stroke-opacity:1;paint-order:stroke fill markers"
     d="m -2565.4141,2311.0996 -114.3691,114.3711 77.0469,77.0469 -404.7383,404.7383 -77.0469,-77.0469 -114.3691,114.3691 302.2929,302.293 633.4766,-633.4766 -225.2461,-225.248 z m 1058.336,1058.334 -633.4785,633.4785 302.291,302.291 114.3691,-114.3691 -57.7851,-57.7832 404.7402,-404.7383 57.7832,57.7832 114.3711,-114.3691 -57.7852,-57.7852 z"
     transform="matrix(0.238112,0,0,0.238112,0,130.69147)"
     id="path6675"
     inkscape:connector-curvature="0"
     sodipodi:nodetypes="cccccccccccccccccccc" />
  <path
     d="m24.803 155.55h545.67v530.79h-545.67v-530.79z"
     id="path5916"
     fill="url(#a)" />
  <path
     d="m0 130.75v580.4h595.28v-580.4zm31.955 31.76h531.37v516.88h-531.37z"
     id="path5918"
     style="fill:#b8bad1;fill-opacity:1"
     fill="#e579ff" />
  <path
     id="path4759"
     style="clip-rule:evenodd;fill:#b8bad1;fill-opacity:1;fill-rule:nonzero;stroke-width:0.1981829;stroke-linejoin:round;stroke-miterlimit:1.41420996"
     d="m 345.7283,256.07465 c 19.02556,0 36.46566,6.34186 45.1857,17.2419 21.40375,-21.60193 41.42022,-27.54742 58.66214,-27.54742 27.74561,0 36.46567,17.63828 36.46567,29.33107 0,14.66554 -9.31461,24.97106 -23.38559,24.97106 -15.26009,0 -7.72914,-34.8802 -29.33107,-34.8802 -17.63829,0 -32.30383,46.57299 -39.6366,87.20049 h 38.05113 c 4.36002,0 5.15275,3.17091 5.15275,6.54002 0,9.11643 -4.16184,16.84556 -11.69278,16.84556 h -37.45658 c 0,0 -17.21853,81.49102 -29.92561,132.38618 -17.10299,68.50191 -69.5622,87.59685 -102.46057,87.59685 -15.65645,0 -32.3038,-5.54913 -43.40205,-17.04374 -14.86372,15.26008 -37.45658,27.34924 -61.6349,27.34924 -11.89097,0 -31.70926,-7.92731 -31.70926,-22.98922 0,-8.52186 8.52187,-21.40375 17.63828,-21.40375 16.05281,0 18.03464,17.44009 36.0693,17.44009 8.72004,0 14.76423,-2.40554 21.9983,-28.53833 15.85463,-57.27486 39.83476,-174.79732 39.83476,-174.79732 h -28.34015 c -4.55822,0 -5.15276,-2.77457 -5.15276,-5.74731 0,-7.92731 2.97274,-17.63827 13.08007,-17.63827 h 26.35832 c 14.46737,-49.74393 46.57299,-96.3169 105.6315,-96.3169 z m -15.45828,19.8183 c -27.94378,0 -40.62749,46.37478 -46.77116,76.4986 h 66.19309 c 4.75639,-18.23283 12.68372,-36.86203 21.20558,-52.12212 -9.51278,-15.06189 -25.96196,-24.37648 -40.62751,-24.37648 z m -59.45486,295.6889 c 15.45827,0 27.7456,-5.15276 35.27655,-32.10564 17.83647,-64.21127 37.65475,-163.69908 37.65475,-163.69908 h -65.40035 c -9.49791,43.85213 -19.96773,91.12351 -29.16895,126.63887 -6.2612,24.16801 -11.51722,37.73958 -17.00767,49.14936 11.29643,13.27826 25.96195,20.01649 38.64567,20.01649 z"
     inkscape:connector-curvature="0" />
  <path
     style="opacity:1;fill:#ef2929;fill-opacity:1;fill-rule:nonzero;stroke:none;stroke-width:594.61700439;stroke-linecap:round;stroke-linejoin:bevel;stroke-miterlimit:4;stroke-dasharray:none;stroke-dashoffset:0;stroke-opacity:1;paint-order:stroke fill markers"
     d="M -2466.2656 2177.4648 C -2562.9022 2177.4648 -2641.6254 2251.416 -2649.1758 2346.0449 L -2649.7754 2346.0449 L -2649.7754 2455.0059 L -2649.7754 2544.4824 L -2649.7754 4083.8125 L -2190.9336 4083.8125 L -2190.9336 4462.5684 L -1937.4121 4462.5684 C -1835.748 4462.5684 -1753.9023 4380.7249 -1753.9023 4279.0605 C -1753.9023 4276.1092 -1753.9761 4273.176 -1754.1133 4270.2598 L -1753.9023 4270.2598 L -1753.9023 4246.0176 L -1753.9023 4095.5508 L -1753.9023 2544.4824 L -1639.4355 2544.4824 L -1455.9258 2544.4824 L -1455.9258 2394.0156 L -1458.875 2394.0156 C -1456.942 2383.3018 -1455.9258 2372.2602 -1455.9258 2360.9727 C -1455.9258 2259.3087 -1537.7715 2177.4648 -1639.4355 2177.4648 L -2466.2656 2177.4648 z M -2335.1504 2575.8496 L -2068.5254 2575.8496 C -2009.8462 2575.8496 -1962.6094 2623.0885 -1962.6094 2681.7676 L -1962.6094 2882.6504 C -1962.6094 2941.3295 -2009.8462 2988.5684 -2068.5254 2988.5684 L -2335.1504 2988.5684 C -2393.8297 2988.5683 -2441.0703 2941.3295 -2441.0703 2882.6504 L -2441.0703 2681.7676 C -2441.0704 2623.0885 -2393.8297 2575.8497 -2335.1504 2575.8496 z M -2335.1504 3101.793 L -2068.5254 3101.793 C -2009.8462 3101.793 -1962.6094 3149.0338 -1962.6094 3207.7129 L -1962.6094 3408.5938 C -1962.6094 3467.2731 -2009.8462 3514.5137 -2068.5254 3514.5137 L -2335.1504 3514.5137 C -2393.8297 3514.5137 -2441.0703 3467.2731 -2441.0703 3408.5938 L -2441.0703 3207.7129 C -2441.0703 3149.0338 -2393.8297 3101.793 -2335.1504 3101.793 z M -2335.1504 3627.7363 L -2068.5254 3627.7363 C -2009.8462 3627.7363 -1962.6093 3674.9777 -1962.6094 3733.6562 L -1962.6094 3934.5371 C -1962.6095 3993.2162 -2009.8464 4040.4547 -2068.5254 4040.4551 L -2335.1523 4040.4551 C -2393.8315 4040.4551 -2441.0703 3993.2162 -2441.0703 3934.5371 L -2441.0703 3733.6562 C -2441.0703 3674.9771 -2393.8297 3627.7363 -2335.1504 3627.7363 z M -2947.752 4140.1699 L -2947.752 4246.0176 L -2944.8047 4246.0176 C -2946.7376 4256.7314 -2947.752 4267.7734 -2947.752 4279.0605 C -2947.752 4380.7249 -2865.9063 4462.5684 -2764.2422 4462.5684 L -2246.2969 4462.5684 L -2246.2969 4140.1699 L -2947.752 4140.1699 z "
     transform="matrix(0.238112,0,0,0.238112,0,130.69147)"
     id="rect6647" />
  <path
     style="fill:none;stroke:#000000;stroke-width:0.48662251"
     d="m -317.56864,921.93187 -5.26038,16.06672 0.0217,1.42148 1.86233,13.95398 -19.2628,5.16144 -5.36426,-13.01557 -0.69211,-1.24182 -12.58922,-11.28406 -11.89958,6.8702 3.47751,16.54485 0.72937,1.21987 8.59011,11.15327 -14.10132,14.10175 -11.15325,-8.59015 -1.2203,-0.72935 -16.54485,-3.47753 -6.8702,11.8996 11.28406,12.58922 1.24184,0.69209 13.01598,5.36384 -5.16185,19.2632 -13.954,-1.8627 -1.42146,-0.021 -16.06674,5.2604 v 13.7408 l 16.06674,5.2603 1.42146,-0.022 13.954,-1.8623 5.16185,19.2632 -13.01598,5.3639 -1.24184,0.6921 -11.28406,12.5892 6.8702,11.8996 16.54485,-3.4776 1.2203,-0.7293 11.15325,-8.5901 14.10132,14.1013 -8.59011,11.1533 -0.72937,1.2203 -3.47751,16.5443 11.89958,6.8707 12.58922,-11.2841 0.69211,-1.2418 5.36426,-13.0156 19.2628,5.1614 -1.86233,13.954 -0.0217,1.4212 5.26038,16.0671 h 13.74039 l 5.26078,-16.0671 -0.0215,-1.4212 -1.86276,-13.954 19.26319,-5.1614 5.36387,13.0156 0.69213,1.2418 12.5892,11.2841 11.89958,-6.8707 -3.47753,-16.5443 -0.72935,-1.2203 -8.59013,-11.1533 14.10175,-14.1013 11.15325,8.5901 1.22032,0.7293 16.5444,3.4776 6.87022,-11.8996 -11.28406,-12.5892 -1.24184,-0.6921 -13.01557,-5.3639 5.16144,-19.2632 13.95398,1.8623 1.42146,0.022 16.06677,-5.2603 v -13.7408 l -16.06677,-5.2604 -1.42146,0.021 -13.95398,1.8627 -5.16144,-19.2632 13.01557,-5.36384 1.24184,-0.69209 11.28406,-12.58922 -6.87022,-11.8996 -16.5444,3.47753 -1.22032,0.72935 -11.15325,8.59015 -14.10175,-14.10175 8.59013,-11.15327 0.72935,-1.21987 3.47753,-16.54485 -11.89958,-6.8702 -12.5892,11.28406 -0.69213,1.24182 -5.36387,13.01557 -19.26319,-5.16144 1.86276,-13.95398 0.0215,-1.42148 -5.26078,-16.06672 z m 6.8702,61.03862 a 47.171146,47.171146 0 0 1 47.17117,47.17111 47.171146,47.171146 0 0 1 -47.17117,47.1712 47.171146,47.171146 0 0 1 -47.17116,-47.1712 47.171146,47.171146 0 0 1 47.17116,-47.17111 z"
     id="path7048"
     inkscape:connector-curvature="0" />
</svg>
