<?xml version="1.0" encoding="UTF-8" standalone="no"?>
<!-- Created with Inkscape (http://www.inkscape.org/) -->

<svg
   xmlns:dc="http://purl.org/dc/elements/1.1/"
   xmlns:cc="http://creativecommons.org/ns#"
   xmlns:rdf="http://www.w3.org/1999/02/22-rdf-syntax-ns#"
   xmlns:svg="http://www.w3.org/2000/svg"
   xmlns="http://www.w3.org/2000/svg"
   xmlns:xlink="http://www.w3.org/1999/xlink"
   xmlns:sodipodi="http://sodipodi.sourceforge.net/DTD/sodipodi-0.dtd"
   xmlns:inkscape="http://www.inkscape.org/namespaces/inkscape"
   version="1.1"
   id="svg2"
   xml:space="preserve"
   width="665.81598"
   height="649.172"
   viewBox="0 0 665.81598 649.172"
   sodipodi:docname="scribus.svg"
   inkscape:version="0.92.2 2405546, 2018-03-11"><metadata
     id="metadata8"><rdf:RDF><cc:Work
         rdf:about=""><dc:format>image/svg+xml</dc:format><dc:type
           rdf:resource="http://purl.org/dc/dcmitype/StillImage" /><dc:title></dc:title></cc:Work></rdf:RDF></metadata><defs
     id="defs6"><clipPath
       clipPathUnits="userSpaceOnUse"
       id="clipPath18"><path
         d="M 20.806,466.073 H 478.555 V 20.808 H 20.806 Z"
         id="path16"
         inkscape:connector-curvature="0" /></clipPath><clipPath
       clipPathUnits="userSpaceOnUse"
       id="clipPath26"><path
         d="M -32768,32767 H 32767 V -32768 H -32768 Z"
         id="path24"
         inkscape:connector-curvature="0" /></clipPath><radialGradient
       fx="0"
       fy="0"
       cx="0"
       cy="0"
       r="1"
       gradientUnits="userSpaceOnUse"
       gradientTransform="matrix(347.88916,0,0,336.81998,171.70755,366.20593)"
       spreadMethod="pad"
       id="radialGradient32"><stop
         style="stop-opacity:0.98001068;stop-color:#ffffff"
         offset="0"
         id="stop28" /><stop
         style="stop-opacity:1;stop-color:#ffffff"
         offset="1"
         id="stop30" /></radialGradient><mask
       maskUnits="userSpaceOnUse"
       x="0"
       y="0"
       width="1"
       height="1"
       id="mask34"><g
         id="g44"><g
           clip-path="url(#clipPath26)"
           id="g42"><g
             id="g40"><g
               id="g38"><path
                 d="M -32768,32767 H 32767 V -32768 H -32768 Z"
                 style="fill:url(#radialGradient32);stroke:none"
                 id="path36"
                 inkscape:connector-curvature="0" /></g></g></g></g></mask><radialGradient
       fx="0"
       fy="0"
       cx="0"
       cy="0"
       r="1"
       gradientUnits="userSpaceOnUse"
       gradientTransform="matrix(347.88916,0,0,336.81998,171.70755,366.20593)"
       spreadMethod="pad"
       id="radialGradient54"
       xlink:href="#radialGradient32"><stop
         style="stop-opacity:1;stop-color:#55152f"
         offset="0"
         id="stop50" /><stop
         style="stop-opacity:1;stop-color:#2c0b18"
         offset="1"
         id="stop52" /></radialGradient><clipPath
       clipPathUnits="userSpaceOnUse"
       id="clipPath64"><path
         d="M 0,500 H 500 V 0 H 0 Z"
         id="path62"
         inkscape:connector-curvature="0" /></clipPath></defs><sodipodi:namedview
     pagecolor="#ffffff"
     bordercolor="#666666"
     borderopacity="1"
     objecttolerance="10"
     gridtolerance="10"
     guidetolerance="10"
     inkscape:pageopacity="0"
     inkscape:pageshadow="2"
     inkscape:window-width="1296"
     inkscape:window-height="726"
     id="namedview4"
     showgrid="false"
     inkscape:zoom="0.5006316"
     inkscape:cx="159.57728"
     inkscape:cy="471.80136"
     inkscape:window-x="609"
     inkscape:window-y="168"
     inkscape:window-maximized="0"
     inkscape:current-layer="g10"
     fit-margin-top="0"
     fit-margin-left="0"
     fit-margin-right="0"
     fit-margin-bottom="0" /><g
     id="g10"
     inkscape:groupmode="layer"
     inkscape:label="after-effects-cc-seeklogo.com"
     transform="matrix(1.3333333,0,0,-1.3333333,-3.9999999e-4,649.17172)"><g
       id="g22" /><path
       inkscape:connector-curvature="0"
       id="path56"
       style="fill:url(#radialGradient54);fill-opacity:1;stroke:none"
       d="M 20.806,466.073 H 478.555 V 20.808 H 20.806 Z" /><path
       inkscape:connector-curvature="0"
       style="fill:#ff408c;fill-opacity:1;stroke-width:0.83886957"
       d="M 3e-4,486.87854 V -2.0780274e-4 H 499.36283 V 486.87854 Z M 26.806661,460.23569 H 472.55646 V 26.643469 H 26.806661 Z"
       id="path9" /><g
       style="fill:#ff408c;fill-opacity:1"
       transform="matrix(0.78018704,0,0,-0.78018704,139.472,368.54592)"
       id="g26"><path
         style="fill:#ff408c;fill-opacity:1"
         inkscape:connector-curvature="0"
         d="m 192.511,64.521 c -2.746,-2.745 -7.162,-2.862 -10.046,-0.268 -14.862,13.354 -93,81.184 -171.942,105.162 l -0.855,0.259 c -2.051,0.623 -3.727,2.114 -4.582,4.082 -0.854,1.969 -0.801,4.209 0.146,6.133 l 0.395,0.799 c 0.004,0.011 0.008,0.019 0.015,0.027 0.271,0.564 11.653,24.328 13.133,57.811 0.916,20.82 -2.101,40.832 -8.945,59.519 -2.442,0.19 -4.834,1.215 -6.703,3.084 -4.168,4.167 -4.166,10.921 0,15.087 4.166,4.166 10.92,4.167 15.086,0 2.408,-2.409 3.416,-5.682 3.039,-8.82 l 76.486,-76.489 c 1.908,-1.907 2.609,-4.71 1.824,-7.289 -2.703,-8.89 -0.291,-18.509 6.299,-25.097 4.756,-4.758 11.078,-7.377 17.809,-7.377 6.731,0 13.058,2.619 17.813,7.377 4.758,4.756 7.375,11.08 7.375,17.808 0,6.728 -2.617,13.051 -7.377,17.81 -4.754,4.754 -11.074,7.371 -17.799,7.372 -2.494,0 -4.953,-0.362 -7.31,-1.075 -2.582,-0.783 -5.379,-0.08 -7.283,1.824 L 32.61,318.749 c -3.142,-0.378 -6.416,0.628 -8.826,3.038 -4.166,4.166 -4.164,10.921 0,15.087 4.166,4.166 10.922,4.167 15.088,0 1.869,-1.869 2.892,-4.258 3.084,-6.702 16.48,-6.036 34.014,-9.105 52.15,-9.105 2.276,0 4.604,0.049 6.922,0.145 33.588,1.385 58.088,13.064 58.315,13.173 l 0.775,0.382 c 1.014,0.498 2.117,0.749 3.221,0.748 0.99,0.001 1.98,-0.2 2.91,-0.603 1.963,-0.855 3.457,-2.529 4.08,-4.579 l 0.258,-0.854 c 23.979,-78.943 91.807,-157.083 105.16,-171.944 2.594,-2.888 2.477,-7.3 -0.271,-10.046 z"
         id="path22" /><path
         style="fill:#ff408c;fill-opacity:1"
         inkscape:connector-curvature="0"
         d="M 337.857,86.974 253.02,2.139 C 251.65,0.769 249.792,0 247.855,0 c -1.937,-0.001 -3.796,0.768 -5.164,2.137 l -36.295,36.299 c -2.854,2.853 -2.854,7.477 0,10.329 l 84.84,84.834 c 1.369,1.371 3.225,2.14 5.164,2.14 1.936,0 3.793,-0.771 5.162,-2.14 l 36.297,-36.297 c 2.852,-2.851 2.852,-7.475 -0.002,-10.328 z"
         id="path24-3" /></g></g></svg>