<svg width="665.82" height="649.17" version="1.1" viewBox="0 0 665.82 649.17" xml:space="preserve" xmlns="http://www.w3.org/2000/svg" xmlns:xlink="http://www.w3.org/1999/xlink"><defs><radialGradient id="radialGradient54" cx="0" cy="0" r="1" gradientTransform="matrix(347.89 0 0 336.82 171.71 366.21)" gradientUnits="userSpaceOnUse"><stop stop-color="#55152f" offset="0"/><stop stop-color="#2c0b18" offset="1"/></radialGradient></defs><g transform="matrix(1.3333 0 0 -1.3333 -4e-4 649.17)" opacity=".99"><path d="m20.806 466.07h457.75v-445.26h-457.75z" fill="url(#radialGradient54)"/><path d="m3e-4 486.88v-486.88h499.36v486.88zm26.806-26.643h445.75v-433.59h-445.75z" fill="#ff408c" stroke-width=".83887"/><g transform="matrix(.8425 0 0 -.8425 117.05 386.66)" fill="#ff408c"><path d="m192.51 64.521c-2.746-2.745-7.162-2.862-10.046-0.268-14.862 13.354-93 81.184-171.94 105.16l-0.855 0.259c-2.051 0.623-3.727 2.114-4.582 4.082-0.854 1.969-0.801 4.209 0.146 6.133l0.395 0.799c4e-3 0.011 8e-3 0.019 0.015 0.027 0.271 0.564 11.653 24.328 13.133 57.811 0.916 20.82-2.101 40.832-8.945 59.519-2.442 0.19-4.834 1.215-6.703 3.084-4.168 4.167-4.166 10.921 0 15.087s10.92 4.167 15.086 0c2.408-2.409 3.416-5.682 3.039-8.82l76.486-76.489c1.908-1.907 2.609-4.71 1.824-7.289-2.703-8.89-0.291-18.509 6.299-25.097 4.756-4.758 11.078-7.377 17.809-7.377s13.058 2.619 17.813 7.377c4.758 4.756 7.375 11.08 7.375 17.808s-2.617 13.051-7.377 17.81c-4.754 4.754-11.074 7.371-17.799 7.372-2.494 0-4.953-0.362-7.31-1.075-2.582-0.783-5.379-0.08-7.283 1.824l-76.479 76.489c-3.142-0.378-6.416 0.628-8.826 3.038-4.166 4.166-4.164 10.921 0 15.087 4.166 4.166 10.922 4.167 15.088 0 1.869-1.869 2.892-4.258 3.084-6.702 16.48-6.036 34.014-9.105 52.15-9.105 2.276 0 4.604 0.049 6.922 0.145 33.588 1.385 58.088 13.064 58.315 13.173l0.775 0.382c1.014 0.498 2.117 0.749 3.221 0.748 0.99 1e-3 1.98-0.2 2.91-0.603 1.963-0.855 3.457-2.529 4.08-4.579l0.258-0.854c23.979-78.943 91.807-157.08 105.16-171.94 2.594-2.888 2.477-7.3-0.271-10.046z"/><path d="m337.86 86.974-84.837-84.835c-1.37-1.37-3.228-2.139-5.165-2.139-1.937-1e-3 -3.796 0.768-5.164 2.137l-36.295 36.299c-2.854 2.853-2.854 7.477 0 10.329l84.84 84.834c1.369 1.371 3.225 2.14 5.164 2.14 1.936 0 3.793-0.771 5.162-2.14l36.297-36.297c2.852-2.851 2.852-7.475-2e-3 -10.328z"/></g></g></svg>
