<svg width="2500" height="2438" version="1.1" viewBox="0 130.75 595.28 580.4" xmlns="http://www.w3.org/2000/svg">
 <radialGradient id="a" cx="-183.69" cy="328.97" r=".76" gradientTransform="matrix(545.67 0 0 528.31 100439 -173525)" gradientUnits="userSpaceOnUse">
  <stop stop-color="#393f43" stop-opacity=".98039" offset="0"/>
  <stop stop-color="#111113" offset="1"/>
 </radialGradient>
 <path d="m24.803 155.55h545.67v530.79h-545.67v-530.79z" fill="url(#a)"/>
 <path d="m0 130.75v580.4h595.28v-580.4zm31.955 31.76h531.37v516.88h-531.37z" fill="#ea9fcc"/>
 <path transform="matrix(.23811 0 0 .23811 0 130.69)" d="m1283.8 453.91c-88.073 0-182.02 72.899-207.38 194.71l-197 961.2 145.61 1.0586 23.207-111.46c1.8814-9.0362 9.5468-16.311 17.184-16.311h409.87c7.6369 0 12.272 7.2744 10.391 16.311l-77.922 374.23c-1.8814 9.0361-9.5448 16.309-17.182 16.309h-73.012c29.818 44.033 75.192 61.691 108.03 61.691 46.347 0 110.23-6.1708 119.59-51.117 0 0 246.08-1181.9 250.3-1202.1 4.2226-20.28 24.714-130.76 115.96-130.76s41.455 149.06 44.166 218.43h82.672l15.791-165.9c9.5224-100.03-19.293-166.26-94.006-166.26h-676.26zm-30.496 126.85h409.87c7.6368 0 12.272 7.2744 10.391 16.311l-66.242 318.14c-1.8815 9.0361-9.5448 16.309-17.182 16.309h-409.87c-7.6368 0-12.272-7.2725-10.391-16.309l66.244-318.14c1.8815-9.0361 9.5449-16.311 17.182-16.311zm-93.475 448.93h409.87c7.6369 0 12.27 7.2725 10.389 16.309l-67.168 322.59c-1.8815 9.0362-9.5448 16.312-17.182 16.312h-409.87c-7.6368 0-12.27-7.2763-10.389-16.312l67.168-322.59c1.8815-9.0361 9.5449-16.309 17.182-16.309zm-633.47 664.54v128c0 192 134.57 223.24 207.6 225.35h656.4c-157.89-42.307-256.97-161.35-256.97-353.35h-607.03z" fill="#ea9fcc" style="paint-order:stroke fill markers"/>
</svg>
